<?xml version="1.0" encoding="UTF-8" standalone="no"?>
<!DOCTYPE svg PUBLIC "-//W3C//DTD SVG 1.1//EN"
"http://www.w3.org/Graphics/SVG/1.1/DTD/svg11.dtd">
<svg viewBox="0 0 1466 825" version="1.1" xmlns="http://www.w3.org/2000/svg" xmlns:xlink="http://www.w3.org/1999/xlink">
<defs>
<clipPath id="c0_1"><path d="M0,825V.2H1466.7V825Z"/></clipPath>
<clipPath id="c1_1"><path d="M35.6,797.7V642H353.3V797.7Z"/></clipPath>
<clipPath id="c2_1"><path d="M0,825V787.8H397.3V825Z"/></clipPath>
<clipPath id="c3_1"><path d="M324.5,825V678.3H1466.7V825Z"/></clipPath>
<clipPath id="c4_1"><path d="M1041.9,825V.2h424.8V825Z"/></clipPath>
<style type="text/css"><![CDATA[
.g0_1{
fill: #003057;
}
.g1_1{
fill: #FFF;
}
]]></style>
</defs>
<path d="M0,825H1466.7V0H0V825Z" class="g0_1"/>
<path d="M0,825H1466.7V678.3H0V825Z" class="g0_1"/>
<image clip-path="url(#c0_1)" preserveAspectRatio="none" x="0" y="0" width="1467" height="825" xlink:href="img/1.png"/>
<image clip-path="url(#c1_1)" preserveAspectRatio="none" x="36" y="642" width="317" height="156" xlink:href="img/2.png"/>
<path d="M188.8,789.2l4.7,-8.3h20l.7,-.2l.7,-.1l.6,-.2l.6,-.2l.6,-.2l.5,-.2l.4,-.4l.5,-.4l.4,-.4l.4,-.5l.7,-1.2l.2,-.3l.1,-.3l.1,-.2v-.2l.1,-.2v-1.2L220,774l-.2,-.5l-.2,-.6l-.3,-.6l-.3,-.6l-.3,-.7l-.4,-.6l-.4,-.7l-.5,-.7l-.4,-.7L216,767l-.9,-1.3l-1,-1.4l-.5,-.6l-.5,-.6l-.4,-.6l-.4,-.5l-.5,-.6l-.3,-.4l-.3,-.5l-.4,-.5l-.3,-.4l-.2,-.3l-.2,-.4v-.2l-.2,-.5l-.1,-.6l-.1,-.5v-2.7l.2,-.7V753l.2,-.7l.2,-.7l.4,-1.4l.3,-.7l.2,-.6l.3,-.6l.3,-.5l.5,-.6l.4,-.6l.4,-.5l.5,-.6l.6,-.6l.5,-.5l.6,-.6l.6,-.5l.6,-.5l.6,-.5l1.2,-1l.6,-.4l.7,-.4l.6,-.3l.7,-.3l.6,-.3l.6,-.3l.5,-.3l.6,-.2l.7,-.1l.6,-.2l.7,-.1l.6,-.2l.7,-.1l.8,-.1l.7,-.1l.8,-.1h.8l.9,-.1l.9,-.1h18.5l-4.3,7.9h-14l-.4,.1l-.4,.1h-.5l-.4,.2h-.4l-.5,.2l-.8,.3l-.8,.4l-.7,.4l-.8,.6l-.7,.5l-.2,.3l-.3,.3l-.3,.3l-.3,.3l-.2,.3l-.2,.3l-.2,.3l-.2,.3l-.1,.4l-.2,.4v.3l-.1,.4l-.1,.3v.8l.2,.4l.1,.4l.1,.4l.3,.5l.2,.6l.4,.4l.2,.6l.4,.5l.4,.5l.4,.7l.4,.5l.9,1.2l.9,1.2l.9,1.1l.9,1.1l.5,.5l.4,.6l.4,.5l1,1.4l.3,.5l.3,.4l.2,.3l.1,.3l.2,.4v.2l.2,.4l.1,.4l.1,.3l.1,.4l.1,.7l.1,.7v.7l-.1,.6l-.1,.6l-.1,.7l-.1,.5l-.1,.5l-.2,.4v.2l-.1,.2l-.1,.1v.2l-.1,.1l-.1,.1v.2h-.1v.1l-.1,.1v.1l-.1,.1l-.2,.2l-.1,.2l-.1,.2l-.2,.2l-.1,.2l-.3,.5l-.4,.6l-.5,.6l-.4,.6l-.5,.7l-.6,.6l-.4,.6l-.6,.6l-.5,.5l-.6,.6l-.3,.2l-.3,.2l-.2,.2l-.1,.1l-.2,.1l-.2,.2l-.2,.2l-.2,.1l-.3,.2l-.3,.2l-.3,.2l-.3,.3l-.3,.2l-.5,.3l-.3,.2l-.4,.2l-.4,.3l-.9,.4l-1,.4l-.9,.4l-.6,.2l-.4,.1l-.6,.1l-.5,.2h-.6l-.5,.1l-.6,.1Z" class="g1_1"/>
<path d="M149.8,789.3L196.1,651.6L182,789.3Z" class="g1_1"/>
<path d="M301,789.3l28.3,-51.5h13.5l-24,43.5h26.6l-4.8,8Z" class="g1_1"/>
<path d="M240.2,723.4l-11.6,-5.7h42.8l-36.6,12.7Z" class="g1_1"/>
<path d="M240.2,723.4l-11.6,-5.7h42.8l-36.6,12.7Z" class="g1_1"/>
<path d="M45,789.5l151.1,-138L103.5,755.9l6.2,-2.4l6.1,-2.1l5.9,-2.1l5.8,-2.1l5.6,-1.9l5.4,-1.7l5.4,-1.8l5.1,-1.5l5.1,-1.6l4.8,-1.4l4.8,-1.4l4.7,-1.2l4.5,-1.2l4.3,-1.1l4.3,-1.1l4.1,-.9l4,-1l3.9,-.8l3.7,-.8l3.6,-.7l3.6,-.7l3.4,-.6l3.4,-.6l3.2,-.6l3,-.5l3,-.4l2.9,-.5l2.8,-.4l2.7,-.4l2.6,-.3l2.6,-.4l2.4,-.2l-7.7,-3.8h42.4l-36.2,12.6l4.2,-5.4l-3.6,.5l-3.6,.6l-3.4,.5l-3.3,.5l-3.3,.5l-3.2,.6l-3,.5l-3,.6l-3,.5l-2.8,.5l-2.8,.6l-2.8,.5l-2.6,.6l-2.6,.6l-2.6,.5l-2.5,.6l-2.5,.6l-2.4,.6l-4.7,1.3l-4.5,1.3l-4.4,1.3l-4.4,1.4l-8.5,3.1l-4.1,1.7l-4.3,1.8l-4.2,1.9l-4.2,1.9l-4.4,2.1l-4.5,2.3l-4.6,2.3l-4.7,2.5l-2.4,1.3l-2.6,1.4l-2.5,1.3l-2.6,1.5l-2.7,1.4l-2.7,1.5l-2.7,1.5l-2.9,1.6l-2.9,1.6l-3,1.7l-3,1.7l-3.2,1.7l-3.2,1.9l-3.3,1.8l-3.4,1.9l-3.5,2l-3.6,1.9l-3.7,2.1Z" class="g1_1"/>
<path d="M249.7,789.5H237.1l.1,-.1l.1,-.2l.1,-.4l.3,-.5l.4,-.6l.4,-.8l.4,-.8l.6,-1l.6,-1.2l.7,-1.2l.7,-1.3l.8,-1.4l.8,-1.6l.8,-1.6l1,-1.7l.9,-1.8l1.1,-1.8l1,-1.9l1,-2l1.2,-2l1.1,-2.1l1.1,-2.2l1.3,-2.2l1.2,-2.3l2.4,-4.6l2.6,-4.7l2.6,-4.8l2.6,-4.8h33.1l.6,.1h.5l.6,.1l.5,.1l.6,.1l.4,.1l.4,.1l.5,.1l.4,.1l.4,.1l.4,.2l.3,.1l.4,.2l.6,.3l.5,.3l.6,.4l.4,.4l.5,.4l.4,.4l.3,.4l.8,.9l.3,.4l.3,.5l.3,.4l.4,.5l.2,.5l.2,.5l.2,.5l.2,.6v.6l.2,.6l.1,.6v1.4l-.1,.8l-.1,.8l-.1,.9l-.1,.4l-.1,.4l-.2,.6l-.1,.5l-.1,.6l-.2,.6l-.5,1.2l-.2,.7l-.2,.7l-.6,1.3l-.6,1.4l-.6,1.4l-.7,1.4l-.7,1.4l-.9,1.4l-.8,1.4l-.9,1.3l-.4,.7l-.4,.6l-.5,.5l-.4,.6l-.4,.6l-.5,.5l-.8,.9l-.7,.9l-.8,.8l-.8,.9l-.8,.8l-1.7,1.5l-.8,.6l-.9,.7l-.8,.7l-.9,.6l-.9,.6l-1,.6l-.9,.5l-1,.6l-.9,.5l-1.1,.6l-1,.5l-1,.4l-1.1,.5l-1.1,.4l-1.1,.4l-1.2,.4l-1.1,.4l-1.1,.3l-1.2,.3l-2.3,.6l-1.1,.2l-1.2,.2l-1.2,.3l-1.1,.2Zm3.7,-7.9l-3.7,7.9l3.7,-7.8h14.3l1.1,-.1l.9,-.1h1.1l.9,-.2l1,-.2l.9,-.2l.9,-.2l.9,-.3l.9,-.4l.9,-.4l1,-.4l.9,-.6l.9,-.6l.4,-.3l.5,-.3l.5,-.4l.5,-.3l.5,-.4l.4,-.5l.6,-.4l.5,-.5l.5,-.5l.5,-.5l.7,-.6l.5,-.6l.6,-.6l.6,-.6l1.1,-1.3l1.1,-1.2l1.2,-1.4l1,-1.4l.6,-.6l.4,-.7l.5,-.7l.5,-.7l.8,-1.3l.7,-1.2l.3,-.6l.3,-.7l.3,-.5l.2,-.6l.1,-.5l.2,-.5l.1,-.9l.1,-.9l.2,-1.1v-3l-.1,-.5l-.1,-.5l-.1,-.5l-.1,-.5l-.2,-.4l-.2,-.4l-.2,-.5l-.3,-.4l-.3,-.4l-.3,-.3l-.5,-.3l-.4,-.3l-.4,-.3l-.6,-.3l-.5,-.2l-.6,-.2l-.7,-.1l-.8,-.1h-.8l-.8,-.1H273.1Z" class="g1_1"/>
<path d="M188.8,789.2l4.7,-8.3h20l.7,-.2l.7,-.1l.6,-.2l.6,-.2l.6,-.2l.5,-.2l.4,-.4l.5,-.4l.4,-.4l.4,-.5l.7,-1.2l.2,-.3l.1,-.3l.1,-.2v-.2l.1,-.2v-1.2L220,774l-.2,-.5l-.2,-.6l-.3,-.6l-.3,-.6l-.3,-.7l-.4,-.6l-.4,-.7l-.5,-.7l-.4,-.7L216,767l-.9,-1.3l-1,-1.4l-.5,-.6l-.5,-.6l-.4,-.6l-.4,-.5l-.5,-.6l-.3,-.4l-.3,-.5l-.4,-.5l-.3,-.4l-.2,-.3l-.2,-.4v-.2l-.2,-.5l-.1,-.6l-.1,-.5v-2.7l.2,-.7V753l.2,-.7l.2,-.7l.4,-1.4l.3,-.7l.2,-.6l.3,-.6l.3,-.5l.5,-.6l.4,-.6l.4,-.5l.5,-.6l.6,-.6l.5,-.5l.6,-.6l.6,-.5l.6,-.5l.6,-.5l1.2,-1l.6,-.4l.7,-.4l.6,-.3l.7,-.3l.6,-.3l.6,-.3l.5,-.3l.6,-.2l.7,-.1l.6,-.2l.7,-.1l.6,-.2l.7,-.1l.8,-.1l.7,-.1l.8,-.1h.8l.9,-.1l.9,-.1h18.5l-4.3,7.9h-14l-.4,.1l-.4,.1h-.5l-.4,.2h-.4l-.5,.2l-.8,.3l-.8,.4l-.7,.4l-.8,.6l-.7,.5l-.2,.3l-.3,.3l-.3,.3l-.3,.3l-.2,.3l-.2,.3l-.2,.3l-.2,.3l-.1,.4l-.2,.4v.3l-.1,.4l-.1,.3v.8l.2,.4l.1,.4l.1,.4l.3,.5l.2,.6l.4,.4l.2,.6l.4,.5l.4,.5l.4,.7l.4,.5l.9,1.2l.9,1.2l.9,1.1l.9,1.1l.5,.5l.4,.6l.4,.5l1,1.4l.3,.5l.3,.4l.2,.3l.1,.3l.2,.4v.2l.2,.4l.1,.4l.1,.3l.1,.4l.1,.7l.1,.7v.7l-.1,.6l-.1,.6l-.1,.7l-.1,.5l-.1,.5l-.2,.4v.2l-.1,.2l-.1,.1v.2l-.1,.1l-.1,.1v.2h-.1v.1l-.1,.1v.1l-.1,.1l-.2,.2l-.1,.2l-.1,.2l-.2,.2l-.1,.2l-.3,.5l-.4,.6l-.5,.6l-.4,.6l-.5,.7l-.6,.6l-.4,.6l-.6,.6l-.5,.5l-.6,.6l-.3,.2l-.3,.2l-.2,.2l-.1,.1l-.2,.1l-.2,.2l-.2,.2l-.2,.1l-.3,.2l-.3,.2l-.3,.2l-.3,.3l-.3,.2l-.5,.3l-.3,.2l-.4,.2l-.4,.3l-.9,.4l-1,.4l-.9,.4l-.6,.2l-.4,.1l-.6,.1l-.5,.2h-.6l-.5,.1l-.6,.1Z" class="g1_1"/>
<path d="M149.8,789.3L196.1,651.6L182,789.3Z" class="g1_1"/>
<path d="M301,789.3l28.3,-51.5h13.5l-24,43.5h26.6l-4.8,8Z" class="g1_1"/>
<path d="M240.2,723.4l-11.6,-5.7h42.8l-36.6,12.7Z" class="g1_1"/>
<path d="M240.2,723.4l-11.6,-5.7h42.8l-36.6,12.7Z" class="g1_1"/>
<path d="M240.2,723.4l-11.6,-5.7h42.8l-36.6,12.7Z" class="g1_1"/>
<path d="M240.2,723.4l-11.6,-5.7h42.8l-36.6,12.7Z" class="g1_1"/>
<path d="M45,789.5l151.1,-138L103.5,755.9l6.2,-2.4l6.1,-2.1l5.9,-2.1l5.8,-2.1l5.6,-1.9l5.4,-1.7l5.4,-1.8l5.1,-1.5l5.1,-1.6l4.8,-1.4l4.8,-1.4l4.7,-1.2l4.5,-1.2l4.3,-1.1l4.3,-1.1l4.1,-.9l4,-1l3.9,-.8l3.7,-.8l3.6,-.7l3.6,-.7l3.4,-.6l3.4,-.6l3.2,-.6l3,-.5l3,-.4l2.9,-.5l2.8,-.4l2.7,-.4l2.6,-.3l2.6,-.4l2.4,-.2l-7.7,-3.8h42.4l-36.2,12.6l4.2,-5.4l-3.6,.5l-3.6,.6l-3.4,.5l-3.3,.5l-3.3,.5l-3.2,.6l-3,.5l-3,.6l-3,.5l-2.8,.5l-2.8,.6l-2.8,.5l-2.6,.6l-2.6,.6l-2.6,.5l-2.5,.6l-2.5,.6l-2.4,.6l-4.7,1.3l-4.5,1.3l-4.4,1.3l-4.4,1.4l-8.5,3.1l-4.1,1.7l-4.3,1.8l-4.2,1.9l-4.2,1.9l-4.4,2.1l-4.5,2.3l-4.6,2.3l-4.7,2.5l-2.4,1.3l-2.6,1.4l-2.5,1.3l-2.6,1.5l-2.7,1.4l-2.7,1.5l-2.7,1.5l-2.9,1.6l-2.9,1.6l-3,1.7l-3,1.7l-3.2,1.7l-3.2,1.9l-3.3,1.8l-3.4,1.9l-3.5,2l-3.6,1.9l-3.7,2.1Z" class="g1_1"/>
<path d="M249.7,789.5H237.1l.1,-.1l.1,-.2l.1,-.4l.3,-.5l.4,-.6l.4,-.8l.4,-.8l.6,-1l.6,-1.2l.7,-1.2l.7,-1.3l.8,-1.4l.8,-1.6l.8,-1.6l1,-1.7l.9,-1.8l1.1,-1.8l1,-1.9l1,-2l1.2,-2l1.1,-2.1l1.1,-2.2l1.3,-2.2l1.2,-2.3l2.4,-4.6l2.6,-4.7l2.6,-4.8l2.6,-4.8h33.1l.6,.1h.5l.6,.1l.5,.1l.6,.1l.4,.1l.4,.1l.5,.1l.4,.1l.4,.1l.4,.2l.3,.1l.4,.2l.6,.3l.5,.3l.6,.4l.4,.4l.5,.4l.4,.4l.3,.4l.8,.9l.3,.4l.3,.5l.3,.4l.4,.5l.2,.5l.2,.5l.2,.5l.2,.6v.6l.2,.6l.1,.6v1.4l-.1,.8l-.1,.8l-.1,.9l-.1,.4l-.1,.4l-.2,.6l-.1,.5l-.1,.6l-.2,.6l-.5,1.2l-.2,.7l-.2,.7l-.6,1.3l-.6,1.4l-.6,1.4l-.7,1.4l-.7,1.4l-.9,1.4l-.8,1.4l-.9,1.3l-.4,.7l-.4,.6l-.5,.5l-.4,.6l-.4,.6l-.5,.5l-.8,.9l-.7,.9l-.8,.8l-.8,.9l-.8,.8l-1.7,1.5l-.8,.6l-.9,.7l-.8,.7l-.9,.6l-.9,.6l-1,.6l-.9,.5l-1,.6l-.9,.5l-1.1,.6l-1,.5l-1,.4l-1.1,.5l-1.1,.4l-1.1,.4l-1.2,.4l-1.1,.4l-1.1,.3l-1.2,.3l-2.3,.6l-1.1,.2l-1.2,.2l-1.2,.3l-1.1,.2Zm3.7,-7.9l-3.7,7.9l3.7,-7.8h14.3l1.1,-.1l.9,-.1h1.1l.9,-.2l1,-.2l.9,-.2l.9,-.2l.9,-.3l.9,-.4l.9,-.4l1,-.4l.9,-.6l.9,-.6l.4,-.3l.5,-.3l.5,-.4l.5,-.3l.5,-.4l.4,-.5l.6,-.4l.5,-.5l.5,-.5l.5,-.5l.7,-.6l.5,-.6l.6,-.6l.6,-.6l1.1,-1.3l1.1,-1.2l1.2,-1.4l1,-1.4l.6,-.6l.4,-.7l.5,-.7l.5,-.7l.8,-1.3l.7,-1.2l.3,-.6l.3,-.7l.3,-.5l.2,-.6l.1,-.5l.2,-.5l.1,-.9l.1,-.9l.2,-1.1v-3l-.1,-.5l-.1,-.5l-.1,-.5l-.1,-.5l-.2,-.4l-.2,-.4l-.2,-.5l-.3,-.4l-.3,-.4l-.3,-.3l-.5,-.3l-.4,-.3l-.4,-.3l-.6,-.3l-.5,-.2l-.6,-.2l-.7,-.1l-.8,-.1h-.8l-.8,-.1H273.1Z" class="g1_1"/>
<image clip-path="url(#c2_1)" preserveAspectRatio="none" x="0" y="788" width="397" height="38" xlink:href="img/3.png"/>
<image clip-path="url(#c3_1)" preserveAspectRatio="none" x="324" y="678" width="1143" height="147" xlink:href="img/4.png"/>
<image clip-path="url(#c4_1)" preserveAspectRatio="none" x="1042" y="0" width="425" height="825" xlink:href="img/5.png"/>
</svg>