<svg id="Layer_1" data-name="Layer 1" xmlns="http://www.w3.org/2000/svg" viewBox="0 0 1585.77 73.5"><defs><style>.cls-1,.cls-3,.cls-4,.cls-5,.cls-6,.cls-7,.cls-8{fill:none;stroke-miterlimit:10;stroke-width:6px;}.cls-1{stroke:#858686;}.cls-2{fill:#444445;}.cls-3{stroke:#816528;}.cls-4{stroke:#f79620;}.cls-5{stroke:#70cbce;}.cls-6{stroke:#73bf44;}.cls-7{stroke:#ec2326;}.cls-8{stroke:#050606;}</style></defs><rect class="cls-1" x="3" y="3" width="187.33" height="67.5" rx="17.83"/><path class="cls-2" d="M67.14,49.52a5.15,5.15,0,0,1-1.41-3.85V37.28a5.17,5.17,0,0,1,1.41-3.87A5.67,5.67,0,0,1,71.25,32a5.62,5.62,0,0,1,4.11,1.37,5.14,5.14,0,0,1,1.41,3.87v8.39a5.17,5.17,0,0,1-1.41,3.87,5.7,5.7,0,0,1-4.11,1.37A5.6,5.6,0,0,1,67.14,49.52Zm5.66-2.68a3.58,3.58,0,0,0,.5-2.06V38.17a3.64,3.64,0,0,0-.5-2.07,2,2,0,0,0-3.1,0,3.64,3.64,0,0,0-.49,2.07v6.61a3.58,3.58,0,0,0,.49,2.06,2,2,0,0,0,3.1,0Z" transform="translate(-41.86 -6.38)"/><path class="cls-2" d="M96.22,42.43v3.35h-9V42.43Z" transform="translate(-41.86 -6.38)"/><path class="cls-2" d="M109.72,50.11a5.38,5.38,0,0,1-2.3-2.35,8.16,8.16,0,0,1-.79-3.71V32.26h3.48V44.13A3.44,3.44,0,0,0,111,46.6a3.21,3.21,0,0,0,2.4.87,3.25,3.25,0,0,0,2.42-.87,3.4,3.4,0,0,0,.86-2.47V32.26h3.48V44.05a8,8,0,0,1-.8,3.71A5.41,5.41,0,0,1,117,50.11a8.7,8.7,0,0,1-7.29,0Z" transform="translate(-41.86 -6.38)"/><path class="cls-2" d="M123.67,37.55h3.48V50.72h-3.48Zm7.62,5.19a2,2,0,0,0-.55-1.5,2.16,2.16,0,0,0-1.57-.53,2,2,0,0,0-1.49.54,2,2,0,0,0-.53,1.51l-.27-2.92A4.94,4.94,0,0,1,128.31,38a3.35,3.35,0,0,1,2.09-.62,3.89,3.89,0,0,1,3.22,1.4,6.08,6.08,0,0,1,1.15,4v8h-3.48Z" transform="translate(-41.86 -6.38)"/><path class="cls-2" d="M138.19,32.26h3.48V50.72h-3.48ZM139.82,46,146,37.55h3.69l-9.36,12.26Zm3.12-2.06,2.87-1.73,4.48,8.53h-4Z" transform="translate(-41.86 -6.38)"/><path class="cls-2" d="M151.94,37.55h3.48V50.72h-3.48Zm7.62,5.19a2,2,0,0,0-.55-1.5,2.15,2.15,0,0,0-1.57-.53,2,2,0,0,0-1.49.54,2.07,2.07,0,0,0-.53,1.51l-.27-2.92A4.94,4.94,0,0,1,156.58,38a3.37,3.37,0,0,1,2.09-.62,3.93,3.93,0,0,1,3.23,1.4,6.14,6.14,0,0,1,1.14,4v8h-3.48Z" transform="translate(-41.86 -6.38)"/><path class="cls-2" d="M168.69,50.24a4.53,4.53,0,0,1-1.94-2,6.73,6.73,0,0,1-.66-3.1V43a6.63,6.63,0,0,1,.66-3.07A4.54,4.54,0,0,1,168.69,38a7.52,7.52,0,0,1,6.16,0A4.49,4.49,0,0,1,176.79,40a6.5,6.5,0,0,1,.67,3.07v2.18a6.49,6.49,0,0,1-.67,3.08,4.51,4.51,0,0,1-1.94,2,7.41,7.41,0,0,1-6.16,0ZM173.4,47a2.42,2.42,0,0,0,.58-1.74V43a2.35,2.35,0,0,0-.58-1.71,2.16,2.16,0,0,0-1.64-.61,2.13,2.13,0,0,0-1.62.61,2.39,2.39,0,0,0-.58,1.71v2.18a2.42,2.42,0,0,0,.58,1.74,2.1,2.1,0,0,0,1.62.61A2.16,2.16,0,0,0,173.4,47Z" transform="translate(-41.86 -6.38)"/><path class="cls-2" d="M179,37.55h3.34l2.34,8.13,2.78-8.13h2.06l2.78,8.13,2.33-8.13H198l-4.06,13.17H191.3l-2.83-8.59-2.83,8.59h-2.59Z" transform="translate(-41.86 -6.38)"/><path class="cls-2" d="M200.24,37.55h3.47V50.72h-3.47Zm7.61,5.19a2,2,0,0,0-.55-1.5,2.15,2.15,0,0,0-1.57-.53,2,2,0,0,0-1.49.54,2.07,2.07,0,0,0-.53,1.51l-.26-2.92A4.84,4.84,0,0,1,204.88,38a3.34,3.34,0,0,1,2.08-.62,3.91,3.91,0,0,1,3.23,1.4,6.14,6.14,0,0,1,1.14,4v8h-3.48Z" transform="translate(-41.86 -6.38)"/><rect class="cls-3" x="210.33" y="3" width="223.23" height="67.5" rx="17.83"/><path class="cls-2" d="M276.79,50.72h-3.48V36.35l-2.25.85V33.51l2.76-1.25h3Z" transform="translate(-41.86 -6.38)"/><path class="cls-2" d="M296.62,42.43v3.35h-9V42.43Z" transform="translate(-41.86 -6.38)"/><path class="cls-2" d="M307.28,32.26h4.25l6.87,14.15-.3.33V32.26h3.32V50.71h-4.28L310.3,36.78l.31-.33V50.71h-3.33Z" transform="translate(-41.86 -6.38)"/><path class="cls-2" d="M327.46,50.24a4.48,4.48,0,0,1-1.94-2,6.6,6.6,0,0,1-.67-3.1V43a6.5,6.5,0,0,1,.67-3.07A4.49,4.49,0,0,1,327.46,38a7.52,7.52,0,0,1,6.16,0A4.54,4.54,0,0,1,335.56,40a6.62,6.62,0,0,1,.67,3.07v2.18a6.61,6.61,0,0,1-.67,3.08,4.56,4.56,0,0,1-1.94,2,7.41,7.41,0,0,1-6.16,0Zm4.7-3.29a2.43,2.43,0,0,0,.59-1.74V43a2.35,2.35,0,0,0-.59-1.71,2.13,2.13,0,0,0-1.63-.61,2.1,2.1,0,0,0-1.62.61,2.35,2.35,0,0,0-.58,1.71v2.18A2.47,2.47,0,0,0,328.9,47a2.11,2.11,0,0,0,1.63.61A2.13,2.13,0,0,0,332.16,47Z" transform="translate(-41.86 -6.38)"/><path class="cls-2" d="M338.38,37.55h6.45v3h-6.45Zm2.17,12.35a3.7,3.7,0,0,1-.81-2.6V33.71h3.48V46.43a1.26,1.26,0,0,0,.19.75.66.66,0,0,0,.56.26h.86v3.35h-1.75A3.27,3.27,0,0,1,340.55,49.9Z" transform="translate(-41.86 -6.38)"/><path class="cls-2" d="M357.81,50.11a5.42,5.42,0,0,1-2.29-2.35,8.19,8.19,0,0,1-.78-3.73V39a8.19,8.19,0,0,1,.78-3.73,5.42,5.42,0,0,1,2.29-2.35,7.37,7.37,0,0,1,3.6-.82,6.36,6.36,0,0,1,3.11.75A6.15,6.15,0,0,1,366.79,35,9.33,9.33,0,0,1,368,38.45h-3.61a4.4,4.4,0,0,0-.63-1.56,2.83,2.83,0,0,0-1-1,2.73,2.73,0,0,0-1.36-.35,3.32,3.32,0,0,0-1.66.4,2.6,2.6,0,0,0-1.05,1.17,4.33,4.33,0,0,0-.36,1.85V44a4.25,4.25,0,0,0,.36,1.84A2.6,2.6,0,0,0,359.75,47a3.32,3.32,0,0,0,1.66.4,2.81,2.81,0,0,0,1.37-.34,2.86,2.86,0,0,0,1-1,4.56,4.56,0,0,0,.61-1.57H368A9.71,9.71,0,0,1,366.78,48a6.09,6.09,0,0,1-2.26,2.17,6.36,6.36,0,0,1-3.11.75A7.48,7.48,0,0,1,357.81,50.11Z" transform="translate(-41.86 -6.38)"/><path class="cls-2" d="M371,32.26h3.48V50.72H371Zm7.61,10.48a2,2,0,0,0-.55-1.5,2.15,2.15,0,0,0-1.57-.53,2,2,0,0,0-1.49.54,2.07,2.07,0,0,0-.52,1.51l-.27-2.92A4.84,4.84,0,0,1,375.59,38a3.35,3.35,0,0,1,2.09-.62,3.91,3.91,0,0,1,3.22,1.4,6.14,6.14,0,0,1,1.14,4v8h-3.48Z" transform="translate(-41.86 -6.38)"/><path class="cls-2" d="M385.88,49.9a4.09,4.09,0,0,1-1-3.06A3.6,3.6,0,0,1,386,43.91a5.36,5.36,0,0,1,3.52-1h3.3l.18,2.65h-3.46a1.91,1.91,0,0,0-1.18.31,1.13,1.13,0,0,0-.4,1,1.06,1.06,0,0,0,.5,1,2.93,2.93,0,0,0,1.49.31,5.15,5.15,0,0,0,2.08-.32,1,1,0,0,0,.68-1l.27,1.92a1.78,1.78,0,0,1-.66,1.2,3.86,3.86,0,0,1-1.44.75,6.93,6.93,0,0,1-1.84.24A4.39,4.39,0,0,1,385.88,49.9Zm6.84-7.53a1.7,1.7,0,0,0-.61-1.41,2.68,2.68,0,0,0-1.73-.49,4.65,4.65,0,0,0-1.46.24,4.22,4.22,0,0,0-1.28.67l-2.16-2.12a5.17,5.17,0,0,1,2.09-1.4,7.74,7.74,0,0,1,2.86-.5,6.9,6.9,0,0,1,2.95.57,4.22,4.22,0,0,1,1.86,1.68,5.13,5.13,0,0,1,.64,2.65v8.46h-3.16Z" transform="translate(-41.86 -6.38)"/><path class="cls-2" d="M399.31,37.55H403V50.72h-3.73Zm6.79,3.28a2.77,2.77,0,0,0-.85-.12,2,2,0,0,0-1.63.68,2.78,2.78,0,0,0-.58,1.88l-.27-3.43A4.84,4.84,0,0,1,404.19,38a3.09,3.09,0,0,1,1.91-.65,3.92,3.92,0,0,1,1.49.26,3.25,3.25,0,0,1,1.16.76l-2,2.83A1.75,1.75,0,0,0,406.1,40.83Z" transform="translate(-41.86 -6.38)"/><path class="cls-2" d="M411.81,50.24a4.18,4.18,0,0,1-1.52-2,8.07,8.07,0,0,1-.52-3.08v-2.1a8.26,8.26,0,0,1,.52-3.11,3.95,3.95,0,0,1,3.91-2.64,3.19,3.19,0,0,1,1.92.62,4.51,4.51,0,0,1,1.41,1.79l-.27,2.92a2.68,2.68,0,0,0-.23-1.15,1.54,1.54,0,0,0-.67-.71,2.05,2.05,0,0,0-1.06-.25,1.82,1.82,0,0,0-1.51.67,2.87,2.87,0,0,0-.54,1.87v2.09a2.77,2.77,0,0,0,.54,1.83,1.86,1.86,0,0,0,1.51.65,2.16,2.16,0,0,0,1.06-.24,1.56,1.56,0,0,0,.67-.7,2.45,2.45,0,0,0,.23-1.1l.18,3a3.45,3.45,0,0,1-1.25,1.67,3.32,3.32,0,0,1-2,.59A4.15,4.15,0,0,1,411.81,50.24Zm.2,5.29A4.46,4.46,0,0,1,410.09,54l2.33-2.14a3,3,0,0,0,1.07.74,3.38,3.38,0,0,0,1.29.26,2.64,2.64,0,0,0,1.79-.6,2,2,0,0,0,.69-1.65v-13h3.48V50.33a6.52,6.52,0,0,1-.69,3.11,4.69,4.69,0,0,1-2,2,7,7,0,0,1-3.21.67A6.81,6.81,0,0,1,412,55.53Z" transform="translate(-41.86 -6.38)"/><path class="cls-2" d="M424,32.26h3.47v3.48H424Zm0,5.29h3.47V50.72H424Z" transform="translate(-41.86 -6.38)"/><path class="cls-2" d="M430.69,37.55h3.48V50.72h-3.48Zm7.62,5.19a2,2,0,0,0-.55-1.5,2.15,2.15,0,0,0-1.57-.53,2,2,0,0,0-1.49.54,2.07,2.07,0,0,0-.53,1.51l-.27-2.92A4.94,4.94,0,0,1,435.33,38a3.37,3.37,0,0,1,2.09-.62,3.89,3.89,0,0,1,3.22,1.4,6.08,6.08,0,0,1,1.15,4v8h-3.48Z" transform="translate(-41.86 -6.38)"/><path class="cls-2" d="M446.87,50.24a4.24,4.24,0,0,1-1.52-2,8.26,8.26,0,0,1-.52-3.08v-2.1a8.47,8.47,0,0,1,.52-3.11,3.95,3.95,0,0,1,3.91-2.64,3.2,3.2,0,0,1,1.93.62,4.4,4.4,0,0,1,1.4,1.79l-.27,2.92a2.68,2.68,0,0,0-.22-1.15,1.65,1.65,0,0,0-.67-.71,2.08,2.08,0,0,0-1.06-.25,1.84,1.84,0,0,0-1.52.67,2.87,2.87,0,0,0-.54,1.87v2.09a2.77,2.77,0,0,0,.54,1.83,1.88,1.88,0,0,0,1.52.65,2.18,2.18,0,0,0,1.06-.24,1.68,1.68,0,0,0,.67-.7,2.45,2.45,0,0,0,.22-1.1l.18,3a3.43,3.43,0,0,1-1.24,1.67,3.35,3.35,0,0,1-2,.59A4.17,4.17,0,0,1,446.87,50.24Zm.2,5.29A4.52,4.52,0,0,1,445.15,54l2.34-2.14a2.94,2.94,0,0,0,1.06.74,3.43,3.43,0,0,0,1.3.26,2.61,2.61,0,0,0,1.78-.6,2,2,0,0,0,.69-1.65v-13h3.48V50.33a6.52,6.52,0,0,1-.69,3.11,4.58,4.58,0,0,1-2,2,7,7,0,0,1-3.2.67A6.86,6.86,0,0,1,447.07,55.53Z" transform="translate(-41.86 -6.38)"/><rect class="cls-4" x="453.56" y="3" width="172.95" height="67.5" rx="17.83"/><path class="cls-2" d="M511.16,47.59l6.33-8.33a4.84,4.84,0,0,0,.67-1.15,2.89,2.89,0,0,0,.23-1.1v0a1.44,1.44,0,0,0-.48-1.16,2.07,2.07,0,0,0-1.37-.4,1.82,1.82,0,0,0-1.4.56,2.7,2.7,0,0,0-.64,1.61h-3.57a6.8,6.8,0,0,1,.83-3,4.79,4.79,0,0,1,1.94-1.9,5.82,5.82,0,0,1,2.82-.66,7,7,0,0,1,3,.57,4.09,4.09,0,0,1,1.86,1.64,5,5,0,0,1,.64,2.61h0a7.41,7.41,0,0,1-.43,2.49,7.73,7.73,0,0,1-1.23,2.24l-4.54,5.74h6.31v3.35H511.16Z" transform="translate(-41.86 -6.38)"/><path class="cls-2" d="M541,42.43v3.35h-9V42.43Z" transform="translate(-41.86 -6.38)"/><path class="cls-2" d="M554.37,50.11a5.34,5.34,0,0,1-2.28-2.35A8.06,8.06,0,0,1,551.3,44V39a8.06,8.06,0,0,1,.79-3.73,5.34,5.34,0,0,1,2.28-2.35,7.38,7.38,0,0,1,3.61-.82,6.39,6.39,0,0,1,3.11.75A6.12,6.12,0,0,1,563.35,35a9.33,9.33,0,0,1,1.24,3.45H561a4.81,4.81,0,0,0-.63-1.56,2.94,2.94,0,0,0-1-1,2.66,2.66,0,0,0-1.35-.35,3.35,3.35,0,0,0-1.67.4,2.64,2.64,0,0,0-1,1.17,4.33,4.33,0,0,0-.36,1.85V44a4.25,4.25,0,0,0,.36,1.84,2.64,2.64,0,0,0,1,1.17,3.35,3.35,0,0,0,1.67.4,2.75,2.75,0,0,0,2.4-1.33,4.56,4.56,0,0,0,.61-1.57h3.6A9.34,9.34,0,0,1,563.34,48a6,6,0,0,1-2.26,2.17,6.32,6.32,0,0,1-3.1.75A7.49,7.49,0,0,1,554.37,50.11Z" transform="translate(-41.86 -6.38)"/><path class="cls-2" d="M567.51,32.26H571V50.72h-3.48Zm7.62,10.48a2,2,0,0,0-.55-1.5,2.15,2.15,0,0,0-1.57-.53,2,2,0,0,0-1.49.54,2.07,2.07,0,0,0-.53,1.51l-.27-2.92A4.94,4.94,0,0,1,572.15,38a3.37,3.37,0,0,1,2.09-.62,3.93,3.93,0,0,1,3.23,1.4,6.14,6.14,0,0,1,1.14,4v8h-3.48Z" transform="translate(-41.86 -6.38)"/><path class="cls-2" d="M582.45,49.9a4.05,4.05,0,0,1-1.05-3.06,3.58,3.58,0,0,1,1.18-2.93,5.34,5.34,0,0,1,3.52-1h3.3l.18,2.65h-3.47a1.93,1.93,0,0,0-1.18.31,1.15,1.15,0,0,0-.39,1,1.06,1.06,0,0,0,.49,1,3,3,0,0,0,1.5.31,5.22,5.22,0,0,0,2.08-.32,1,1,0,0,0,.67-1l.27,1.92a1.81,1.81,0,0,1-.65,1.2,3.91,3.91,0,0,1-1.45.75,6.85,6.85,0,0,1-1.83.24A4.37,4.37,0,0,1,582.45,49.9Zm6.83-7.53a1.72,1.72,0,0,0-.6-1.41,2.7,2.7,0,0,0-1.73-.49,4.6,4.6,0,0,0-1.46.24,4.22,4.22,0,0,0-1.28.67l-2.16-2.12a5.13,5.13,0,0,1,2.08-1.4,7.76,7.76,0,0,1,2.87-.5,6.88,6.88,0,0,1,2.94.57,4.12,4.12,0,0,1,1.86,1.68,5.13,5.13,0,0,1,.65,2.65v8.46h-3.17Z" transform="translate(-41.86 -6.38)"/><path class="cls-2" d="M595.87,37.55h3.74V50.72h-3.74Zm6.8,3.28a2.79,2.79,0,0,0-.86-.12,2,2,0,0,0-1.63.68,2.83,2.83,0,0,0-.57,1.88l-.27-3.43A4.82,4.82,0,0,1,600.75,38a3.09,3.09,0,0,1,1.92-.65,4,4,0,0,1,1.49.26,3.34,3.34,0,0,1,1.16.76l-2,2.83A1.85,1.85,0,0,0,602.67,40.83Z" transform="translate(-41.86 -6.38)"/><path class="cls-2" d="M608.37,50.24a4.24,4.24,0,0,1-1.52-2,8.26,8.26,0,0,1-.52-3.08v-2.1a8.47,8.47,0,0,1,.52-3.11,3.95,3.95,0,0,1,3.92-2.64,3.19,3.19,0,0,1,1.92.62,4.4,4.4,0,0,1,1.4,1.79l-.27,2.92a2.68,2.68,0,0,0-.22-1.15,1.65,1.65,0,0,0-.67-.71,2.08,2.08,0,0,0-1.06-.25,1.84,1.84,0,0,0-1.52.67,2.87,2.87,0,0,0-.54,1.87v2.09a2.77,2.77,0,0,0,.54,1.83,1.88,1.88,0,0,0,1.52.65,2.18,2.18,0,0,0,1.06-.24,1.68,1.68,0,0,0,.67-.7,2.45,2.45,0,0,0,.22-1.1l.18,3a3.43,3.43,0,0,1-1.24,1.67,3.32,3.32,0,0,1-2,.59A4.18,4.18,0,0,1,608.37,50.24Zm.21,5.29A4.49,4.49,0,0,1,606.65,54L609,51.83a2.94,2.94,0,0,0,1.06.74,3.43,3.43,0,0,0,1.3.26,2.61,2.61,0,0,0,1.78-.6,2,2,0,0,0,.69-1.65v-13h3.48V50.33a6.52,6.52,0,0,1-.69,3.11,4.58,4.58,0,0,1-2,2,7,7,0,0,1-3.2.67A6.78,6.78,0,0,1,608.58,55.53Z" transform="translate(-41.86 -6.38)"/><path class="cls-2" d="M620.54,32.26H624v3.48h-3.48Zm0,5.29H624V50.72h-3.48Z" transform="translate(-41.86 -6.38)"/><path class="cls-2" d="M627.26,37.55h3.47V50.72h-3.47Zm7.61,5.19a2,2,0,0,0-.55-1.5,2.15,2.15,0,0,0-1.57-.53,2,2,0,0,0-1.49.54,2.07,2.07,0,0,0-.53,1.51l-.26-2.92A4.84,4.84,0,0,1,631.9,38a3.34,3.34,0,0,1,2.08-.62,3.91,3.91,0,0,1,3.23,1.4,6.14,6.14,0,0,1,1.14,4v8h-3.48Z" transform="translate(-41.86 -6.38)"/><path class="cls-2" d="M643.44,50.24a4.18,4.18,0,0,1-1.52-2,8.07,8.07,0,0,1-.52-3.08v-2.1a8.26,8.26,0,0,1,.52-3.11,3.95,3.95,0,0,1,3.91-2.64,3.19,3.19,0,0,1,1.92.62,4.51,4.51,0,0,1,1.41,1.79l-.27,2.92a2.68,2.68,0,0,0-.23-1.15,1.54,1.54,0,0,0-.67-.71,2.05,2.05,0,0,0-1.06-.25,1.82,1.82,0,0,0-1.51.67,2.87,2.87,0,0,0-.54,1.87v2.09a2.77,2.77,0,0,0,.54,1.83,1.86,1.86,0,0,0,1.51.65,2.16,2.16,0,0,0,1.06-.24,1.56,1.56,0,0,0,.67-.7,2.45,2.45,0,0,0,.23-1.1l.18,3a3.45,3.45,0,0,1-1.25,1.67,3.32,3.32,0,0,1-2,.59A4.15,4.15,0,0,1,643.44,50.24Zm.2,5.29A4.4,4.4,0,0,1,641.72,54l2.33-2.14a3,3,0,0,0,1.07.74,3.34,3.34,0,0,0,1.29.26,2.64,2.64,0,0,0,1.79-.6,2,2,0,0,0,.69-1.65v-13h3.48V50.33a6.52,6.52,0,0,1-.69,3.11,4.69,4.69,0,0,1-2,2,7,7,0,0,1-3.21.67A6.78,6.78,0,0,1,643.64,55.53Z" transform="translate(-41.86 -6.38)"/><rect class="cls-5" x="875.41" y="3" width="213.18" height="67.5" rx="17.83"/><path class="cls-2" d="M935.5,44.69l5.69-12.41h3.93l-5.53,12.26h8.29v3.35H935.5ZM943,39.87h3.48V50.74H943Z" transform="translate(-41.86 -6.38)"/><path class="cls-2" d="M966.69,42.43v3.35h-9V42.43Z" transform="translate(-41.86 -6.38)"/><path class="cls-2" d="M977.36,32.26h3.47V50.72h-3.47Zm1.75,15.11h4.43a3.88,3.88,0,0,0,2.65-.82,2.94,2.94,0,0,0,.94-2.34V38.78a2.94,2.94,0,0,0-.94-2.34,3.88,3.88,0,0,0-2.65-.82h-4.43V32.26h4.35a9,9,0,0,1,3.94.78,5.48,5.48,0,0,1,2.49,2.26,7.16,7.16,0,0,1,.85,3.58v5.23a7.16,7.16,0,0,1-.82,3.48,5.63,5.63,0,0,1-2.46,2.31,8.85,8.85,0,0,1-4,.82h-4.34Z" transform="translate(-41.86 -6.38)"/><path class="cls-2" d="M994,32.26h3.48v3.48H994Zm0,5.29h3.48V50.72H994Z" transform="translate(-41.86 -6.38)"/><path class="cls-2" d="M1003.43,50.7a10.56,10.56,0,0,1-2.09-.61,7.79,7.79,0,0,1-1.73-1l2.15-2.68a8.21,8.21,0,0,0,2,.94,6.51,6.51,0,0,0,2,.33,5.26,5.26,0,0,0,1.89-.27c.45-.18.67-.43.67-.76A.79.79,0,0,0,1008,46a1.72,1.72,0,0,0-.75-.32,10.33,10.33,0,0,0-1.28-.17l-.46-.06-.48-.05h-.21a15,15,0,0,1-2.36-.47,3.08,3.08,0,0,1-1.51-1.07,3.72,3.72,0,0,1-.62-2.31,3.75,3.75,0,0,1,2.48-3.69,7.9,7.9,0,0,1,2.92-.48,9.62,9.62,0,0,1,2,.2,10.29,10.29,0,0,1,1.91.58,9.45,9.45,0,0,1,1.69.92l-2.07,2.52a8.79,8.79,0,0,0-1.8-.75,6.94,6.94,0,0,0-1.81-.26,4.41,4.41,0,0,0-1.63.24c-.39.16-.59.38-.59.67a.6.6,0,0,0,.31.52,2.31,2.31,0,0,0,.78.26c.31.06.76.12,1.35.19l.23,0,.23,0h.23a15.72,15.72,0,0,1,2.5.46,3.26,3.26,0,0,1,1.64,1.12,3.86,3.86,0,0,1,.68,2.46,3.88,3.88,0,0,1-2.59,3.84,8.24,8.24,0,0,1-3.06.51A12.45,12.45,0,0,1,1003.43,50.7Z" transform="translate(-41.86 -6.38)"/><path class="cls-2" d="M1016.53,50.2a4.79,4.79,0,0,1-2-2.09,7.18,7.18,0,0,1-.7-3.3V43.4a7,7,0,0,1,.7-3.27,4.72,4.72,0,0,1,2-2.06,6.69,6.69,0,0,1,3.22-.71,8.36,8.36,0,0,1,2,.24,6.35,6.35,0,0,1,1.72.72,4.5,4.5,0,0,1,1.27,1.14l-2.24,2.19a3.64,3.64,0,0,0-1.13-.7,3.94,3.94,0,0,0-1.36-.24,2.83,2.83,0,0,0-2,.7,2.65,2.65,0,0,0-.72,2v1.41a2.72,2.72,0,0,0,.72,2,2.8,2.8,0,0,0,2,.72,3.71,3.71,0,0,0,1.37-.26,3.35,3.35,0,0,0,1.12-.77l2.24,2.31a4.67,4.67,0,0,1-1.28,1.13,6.21,6.21,0,0,1-1.71.7,8.36,8.36,0,0,1-2,.24A6.81,6.81,0,0,1,1016.53,50.2Z" transform="translate(-41.86 -6.38)"/><path class="cls-2" d="M1027.12,32.26h3.48V50.72h-3.48Zm7.62,10.48a2,2,0,0,0-.55-1.5,2.15,2.15,0,0,0-1.57-.53,2,2,0,0,0-1.49.54,2.07,2.07,0,0,0-.53,1.51l-.27-2.92a4.94,4.94,0,0,1,1.43-1.86,3.37,3.37,0,0,1,2.09-.62,3.93,3.93,0,0,1,3.23,1.4,6.14,6.14,0,0,1,1.14,4v8h-3.48Z" transform="translate(-41.86 -6.38)"/><path class="cls-2" d="M1042.06,49.9a4.05,4.05,0,0,1-1-3.06,3.6,3.6,0,0,1,1.17-2.93,5.39,5.39,0,0,1,3.53-1h3.3l.18,2.65h-3.47a1.93,1.93,0,0,0-1.18.31,1.15,1.15,0,0,0-.39,1,1.06,1.06,0,0,0,.49,1,3,3,0,0,0,1.5.31,5.13,5.13,0,0,0,2.07-.32,1,1,0,0,0,.68-1l.27,1.92a1.81,1.81,0,0,1-.65,1.2,3.91,3.91,0,0,1-1.45.75,6.85,6.85,0,0,1-1.83.24A4.37,4.37,0,0,1,1042.06,49.9Zm6.83-7.53a1.72,1.72,0,0,0-.6-1.41,2.7,2.7,0,0,0-1.73-.49,4.6,4.6,0,0,0-1.46.24,4.22,4.22,0,0,0-1.28.67l-2.16-2.12a5.13,5.13,0,0,1,2.08-1.4,7.76,7.76,0,0,1,2.87-.5,6.88,6.88,0,0,1,2.94.57,4.12,4.12,0,0,1,1.86,1.68,5.13,5.13,0,0,1,.65,2.65v8.46h-3.17Z" transform="translate(-41.86 -6.38)"/><path class="cls-2" d="M1055.48,37.55h3.74V50.72h-3.74Zm6.8,3.28a2.79,2.79,0,0,0-.86-.12,2,2,0,0,0-1.63.68,2.83,2.83,0,0,0-.57,1.88l-.27-3.43a4.82,4.82,0,0,1,1.41-1.83,3.09,3.09,0,0,1,1.92-.65,4,4,0,0,1,1.49.26,3.34,3.34,0,0,1,1.16.76l-2,2.83A1.85,1.85,0,0,0,1062.28,40.83Z" transform="translate(-41.86 -6.38)"/><path class="cls-2" d="M1068,50.24a4.24,4.24,0,0,1-1.52-2,8.26,8.26,0,0,1-.52-3.08v-2.1a8.47,8.47,0,0,1,.52-3.11,3.95,3.95,0,0,1,3.92-2.64,3.19,3.19,0,0,1,1.92.62,4.4,4.4,0,0,1,1.4,1.79l-.27,2.92a2.68,2.68,0,0,0-.22-1.15,1.65,1.65,0,0,0-.67-.71,2.08,2.08,0,0,0-1.06-.25,1.84,1.84,0,0,0-1.52.67,2.87,2.87,0,0,0-.54,1.87v2.09A2.77,2.77,0,0,0,1070,47a1.88,1.88,0,0,0,1.52.65,2.18,2.18,0,0,0,1.06-.24,1.68,1.68,0,0,0,.67-.7,2.45,2.45,0,0,0,.22-1.1l.18,3a3.43,3.43,0,0,1-1.24,1.67,3.34,3.34,0,0,1-2,.59A4.18,4.18,0,0,1,1068,50.24Zm.2,5.29a4.52,4.52,0,0,1-1.92-1.56l2.34-2.14a2.94,2.94,0,0,0,1.06.74,3.43,3.43,0,0,0,1.3.26,2.61,2.61,0,0,0,1.78-.6,2,2,0,0,0,.69-1.65v-13h3.48V50.33a6.52,6.52,0,0,1-.69,3.11,4.58,4.58,0,0,1-2,2,7,7,0,0,1-3.2.67A6.86,6.86,0,0,1,1068.18,55.53Z" transform="translate(-41.86 -6.38)"/><path class="cls-2" d="M1080.15,32.26h3.48v3.48h-3.48Zm0,5.29h3.48V50.72h-3.48Z" transform="translate(-41.86 -6.38)"/><path class="cls-2" d="M1086.87,37.55h3.47V50.72h-3.47Zm7.61,5.19a2,2,0,0,0-.55-1.5,2.15,2.15,0,0,0-1.57-.53,2,2,0,0,0-1.49.54,2.07,2.07,0,0,0-.53,1.51l-.26-2.92a4.84,4.84,0,0,1,1.43-1.86,3.34,3.34,0,0,1,2.08-.62,3.91,3.91,0,0,1,3.23,1.4,6.14,6.14,0,0,1,1.14,4v8h-3.48Z" transform="translate(-41.86 -6.38)"/><path class="cls-2" d="M1103.05,50.24a4.18,4.18,0,0,1-1.52-2,8.07,8.07,0,0,1-.52-3.08v-2.1a8.26,8.26,0,0,1,.52-3.11,3.95,3.95,0,0,1,3.91-2.64,3.19,3.19,0,0,1,1.92.62,4.51,4.51,0,0,1,1.41,1.79l-.27,2.92a2.68,2.68,0,0,0-.23-1.15,1.54,1.54,0,0,0-.67-.71,2.05,2.05,0,0,0-1.06-.25,1.82,1.82,0,0,0-1.51.67,2.87,2.87,0,0,0-.54,1.87v2.09A2.77,2.77,0,0,0,1105,47a1.86,1.86,0,0,0,1.51.65,2.16,2.16,0,0,0,1.06-.24,1.56,1.56,0,0,0,.67-.7,2.45,2.45,0,0,0,.23-1.1l.18,3a3.45,3.45,0,0,1-1.25,1.67,3.32,3.32,0,0,1-2,.59A4.15,4.15,0,0,1,1103.05,50.24Zm.2,5.29a4.4,4.4,0,0,1-1.92-1.56l2.33-2.14a3,3,0,0,0,1.07.74,3.34,3.34,0,0,0,1.29.26,2.64,2.64,0,0,0,1.79-.6,2,2,0,0,0,.69-1.65v-13H1112V50.33a6.52,6.52,0,0,1-.69,3.11,4.69,4.69,0,0,1-2,2,7,7,0,0,1-3.21.67A6.78,6.78,0,0,1,1103.25,55.53Z" transform="translate(-41.86 -6.38)"/><rect class="cls-6" x="646.51" y="3" width="208.9" height="67.5" rx="17.83"/><path class="cls-2" d="M709.42,50.3a4.88,4.88,0,0,1-2.09-1.77,5.46,5.46,0,0,1-.85-2.78h3.6a2.37,2.37,0,0,0,.33,1,1.86,1.86,0,0,0,.67.61,2,2,0,0,0,.94.21,2,2,0,0,0,1.53-.56,2.1,2.1,0,0,0,.54-1.55V45a2.66,2.66,0,0,0-.44-1.63,1.48,1.48,0,0,0-1.25-.57h-1.56V39.45h1.56a1.19,1.19,0,0,0,1-.5,2.38,2.38,0,0,0,.36-1.4v-.32a2,2,0,0,0-.4-1.32,1.42,1.42,0,0,0-1.12-.46,1.62,1.62,0,0,0-.86.24,2.1,2.1,0,0,0-.65.7,3.17,3.17,0,0,0-.38,1.1h-3.58a6.52,6.52,0,0,1,.91-2.91,5,5,0,0,1,2-1.86,5.72,5.72,0,0,1,2.72-.65,5.38,5.38,0,0,1,3.79,1.25,4.64,4.64,0,0,1,1.34,3.55v.56a3.91,3.91,0,0,1-.65,2.24A4,4,0,0,1,715,41.09a3.27,3.27,0,0,1,2.06,1.39,4.89,4.89,0,0,1,.73,2.78v.56a5.63,5.63,0,0,1-.63,2.76,4.18,4.18,0,0,1-1.86,1.74,6.57,6.57,0,0,1-2.93.59A6.9,6.9,0,0,1,709.42,50.3Z" transform="translate(-41.86 -6.38)"/><path class="cls-2" d="M737.14,42.43v3.35h-9V42.43Z" transform="translate(-41.86 -6.38)"/><path class="cls-2" d="M747.81,32.26h3.48V50.72h-3.48Zm1.27,0h10.85v3.36H749.08Zm0,7.79h9.45V43.4h-9.45Z" transform="translate(-41.86 -6.38)"/><path class="cls-2" d="M765.57,45.56a2,2,0,0,0,.54,1.48,2.07,2.07,0,0,0,1.51.52,2,2,0,0,0,1.51-.54,2.12,2.12,0,0,0,.53-1.54l.17,2.88a4.05,4.05,0,0,1-1.22,1.82,3.1,3.1,0,0,1-2.09.73,4.07,4.07,0,0,1-3.28-1.36,5.82,5.82,0,0,1-1.15-3.87V37.55h3.48Zm4.09-8h3.46V50.72h-3.46Z" transform="translate(-41.86 -6.38)"/><path class="cls-2" d="M780,46.37a1,1,0,0,0,.27.74,1.1,1.1,0,0,0,.78.26h.59v3.35h-1.78a3.23,3.23,0,0,1-2.46-.91,3.56,3.56,0,0,1-.88-2.58v-15H780Z" transform="translate(-41.86 -6.38)"/><path class="cls-2" d="M787.56,46.37a1,1,0,0,0,.27.74,1.1,1.1,0,0,0,.78.26h.58v3.35h-1.77a3.27,3.27,0,0,1-2.47-.91,3.6,3.6,0,0,1-.87-2.58v-15h3.48Z" transform="translate(-41.86 -6.38)"/><path class="cls-2" d="M801.53,50.11a5.39,5.39,0,0,1-2.28-2.35,8.06,8.06,0,0,1-.79-3.73V39a8.06,8.06,0,0,1,.79-3.73,5.39,5.39,0,0,1,2.28-2.35,7.38,7.38,0,0,1,3.61-.82,6.36,6.36,0,0,1,3.11.75A6.22,6.22,0,0,1,810.52,35a9.51,9.51,0,0,1,1.23,3.45h-3.6a4.81,4.81,0,0,0-.63-1.56,2.86,2.86,0,0,0-1-1,2.66,2.66,0,0,0-1.35-.35,3.29,3.29,0,0,0-1.66.4,2.6,2.6,0,0,0-1.05,1.17,4.33,4.33,0,0,0-.36,1.85V44a4.25,4.25,0,0,0,.36,1.84A2.6,2.6,0,0,0,803.48,47a3.29,3.29,0,0,0,1.66.4,2.75,2.75,0,0,0,2.4-1.33,4.56,4.56,0,0,0,.61-1.57h3.6A9.34,9.34,0,0,1,810.5,48a6,6,0,0,1-2.26,2.17,6.32,6.32,0,0,1-3.1.75A7.49,7.49,0,0,1,801.53,50.11Z" transform="translate(-41.86 -6.38)"/><path class="cls-2" d="M814.67,32.26h3.48V50.72h-3.48Zm7.62,10.48a2,2,0,0,0-.55-1.5,2.15,2.15,0,0,0-1.57-.53,2,2,0,0,0-1.49.54,2.07,2.07,0,0,0-.53,1.51l-.26-2.92A4.82,4.82,0,0,1,819.31,38a3.37,3.37,0,0,1,2.09-.62,3.93,3.93,0,0,1,3.23,1.4,6.14,6.14,0,0,1,1.14,4v8h-3.48Z" transform="translate(-41.86 -6.38)"/><path class="cls-2" d="M829.61,49.9a4.05,4.05,0,0,1-1.05-3.06,3.58,3.58,0,0,1,1.18-2.93,5.34,5.34,0,0,1,3.52-1h3.3l.18,2.65h-3.47a1.93,1.93,0,0,0-1.18.31,1.15,1.15,0,0,0-.39,1,1.06,1.06,0,0,0,.49,1,3,3,0,0,0,1.5.31,5.22,5.22,0,0,0,2.08-.32,1,1,0,0,0,.68-1l.26,1.92a1.81,1.81,0,0,1-.65,1.2,3.91,3.91,0,0,1-1.45.75,6.85,6.85,0,0,1-1.83.24A4.37,4.37,0,0,1,829.61,49.9Zm6.84-7.53a1.73,1.73,0,0,0-.61-1.41,2.7,2.7,0,0,0-1.73-.49,4.6,4.6,0,0,0-1.46.24,4.22,4.22,0,0,0-1.28.67l-2.16-2.12a5.13,5.13,0,0,1,2.08-1.4,7.76,7.76,0,0,1,2.87-.5,7,7,0,0,1,3,.57A4.22,4.22,0,0,1,839,39.61a5.22,5.22,0,0,1,.64,2.65v8.46h-3.16Z" transform="translate(-41.86 -6.38)"/><path class="cls-2" d="M843,37.55h3.73V50.72H843Zm6.79,3.28a2.77,2.77,0,0,0-.85-.12,2,2,0,0,0-1.64.68,2.83,2.83,0,0,0-.57,1.88l-.27-3.43A4.74,4.74,0,0,1,847.92,38a3.07,3.07,0,0,1,1.91-.65,4,4,0,0,1,1.49.26,3.34,3.34,0,0,1,1.16.76l-2,2.83A1.85,1.85,0,0,0,849.83,40.83Z" transform="translate(-41.86 -6.38)"/><path class="cls-2" d="M855.53,50.24a4.16,4.16,0,0,1-1.51-2,8.07,8.07,0,0,1-.52-3.08v-2.1A8.26,8.26,0,0,1,854,40a4.12,4.12,0,0,1,1.51-2,4.2,4.2,0,0,1,2.4-.67,3.19,3.19,0,0,1,1.92.62,4.4,4.4,0,0,1,1.4,1.79L861,42.69a2.68,2.68,0,0,0-.23-1.15,1.59,1.59,0,0,0-.67-.71,2.05,2.05,0,0,0-1.06-.25,1.84,1.84,0,0,0-1.52.67,2.87,2.87,0,0,0-.54,1.87v2.09a2.77,2.77,0,0,0,.54,1.83,1.88,1.88,0,0,0,1.52.65,2.16,2.16,0,0,0,1.06-.24,1.62,1.62,0,0,0,.67-.7,2.45,2.45,0,0,0,.23-1.1l.17,3a3.43,3.43,0,0,1-1.24,1.67,3.32,3.32,0,0,1-2,.59A4.2,4.2,0,0,1,855.53,50.24Zm.21,5.29A4.49,4.49,0,0,1,853.81,54l2.34-2.14a3,3,0,0,0,1.07.74,3.34,3.34,0,0,0,1.29.26,2.61,2.61,0,0,0,1.78-.6,2,2,0,0,0,.7-1.65v-13h3.47V50.33a6.52,6.52,0,0,1-.69,3.11,4.58,4.58,0,0,1-2,2,7,7,0,0,1-3.2.67A6.78,6.78,0,0,1,855.74,55.53Z" transform="translate(-41.86 -6.38)"/><path class="cls-2" d="M870.29,50.22a4.7,4.7,0,0,1-2.07-2,6.71,6.71,0,0,1-.71-3.19V43.53a7.53,7.53,0,0,1,.68-3.34,4.66,4.66,0,0,1,2-2.11,6.42,6.42,0,0,1,3.14-.72,5,5,0,0,1,3,.86,5.23,5.23,0,0,1,1.87,2.51,10.8,10.8,0,0,1,.65,4v.87h-9V43.21h5.84l0-.31a3.06,3.06,0,0,0-.71-1.76,2,2,0,0,0-1.55-.62,2.55,2.55,0,0,0-1.95.75,3,3,0,0,0-.69,2.12v1.67a2.74,2.74,0,0,0,.76,2.08,2.9,2.9,0,0,0,2.11.74,4,4,0,0,0,1.39-.25,4.22,4.22,0,0,0,1.24-.7l2.27,2a7.51,7.51,0,0,1-2.31,1.45,7,7,0,0,1-2.59.51A7.06,7.06,0,0,1,870.29,50.22Z" transform="translate(-41.86 -6.38)"/><rect class="cls-7" x="1108.59" y="3" width="223.23" height="67.5" rx="17.83"/><path class="cls-2" d="M1170.67,50.26a4.91,4.91,0,0,1-1.91-1.9,6.88,6.88,0,0,1-.83-3h3.48A2.62,2.62,0,0,0,1172,47a1.76,1.76,0,0,0,1.36.57,1.72,1.72,0,0,0,1.41-.6,2.53,2.53,0,0,0,.51-1.69V43.7a2.71,2.71,0,0,0-.45-1.68,1.53,1.53,0,0,0-1.27-.59,2.12,2.12,0,0,0-1.27.38,1.9,1.9,0,0,0-.73,1.07h-3.25V32.26h9.91v3.36h-6.44v3.26a2.61,2.61,0,0,1,1.08-.6,4.25,4.25,0,0,1,1.35-.23,4.45,4.45,0,0,1,2.46.66,4.11,4.11,0,0,1,1.55,1.93,7.83,7.83,0,0,1,.53,3.06v1.55a6.65,6.65,0,0,1-.64,3.06,4.36,4.36,0,0,1-1.86,1.94,6.08,6.08,0,0,1-2.94.66A5.39,5.39,0,0,1,1170.67,50.26Z" transform="translate(-41.86 -6.38)"/><path class="cls-2" d="M1198.23,42.43v3.35h-9V42.43Z" transform="translate(-41.86 -6.38)"/><path class="cls-2" d="M1208.9,32.26h3.48V50.72h-3.48Zm1.52,15.11h5.89a2.68,2.68,0,0,0,1.85-.58,2,2,0,0,0,.65-1.61v0a2.27,2.27,0,0,0-.29-1.2,1.81,1.81,0,0,0-.86-.75,3.22,3.22,0,0,0-1.35-.26h-5.89V39.58h5.89A2.38,2.38,0,0,0,1218,39a2,2,0,0,0,.59-1.54,1.68,1.68,0,0,0-.59-1.38,2.52,2.52,0,0,0-1.67-.49h-5.89V32.26h6a7.29,7.29,0,0,1,3.06.59,4.32,4.32,0,0,1,1.93,1.72,5.25,5.25,0,0,1,.66,2.7,4.2,4.2,0,0,1-.43,1.91,3.51,3.51,0,0,1-1.24,1.36,5,5,0,0,1-2,.73,4.87,4.87,0,0,1,2.09.74,3.68,3.68,0,0,1,1.32,1.5,4.89,4.89,0,0,1,.45,2.15v0a5.29,5.29,0,0,1-.67,2.71,4.18,4.18,0,0,1-1.94,1.72,7.19,7.19,0,0,1-3.07.59h-6.22Z" transform="translate(-41.86 -6.38)"/><path class="cls-2" d="M1225.84,49.9a4.05,4.05,0,0,1-1-3.06,3.58,3.58,0,0,1,1.18-2.93,5.34,5.34,0,0,1,3.52-1h3.3l.18,2.65h-3.47a1.93,1.93,0,0,0-1.18.31,1.15,1.15,0,0,0-.39,1,1.06,1.06,0,0,0,.49,1,3,3,0,0,0,1.5.31,5.22,5.22,0,0,0,2.08-.32,1,1,0,0,0,.68-1l.26,1.92a1.81,1.81,0,0,1-.65,1.2,3.91,3.91,0,0,1-1.45.75,6.85,6.85,0,0,1-1.83.24A4.37,4.37,0,0,1,1225.84,49.9Zm6.84-7.53a1.73,1.73,0,0,0-.61-1.41,2.7,2.7,0,0,0-1.73-.49,4.6,4.6,0,0,0-1.46.24,4.22,4.22,0,0,0-1.28.67l-2.16-2.12a5.13,5.13,0,0,1,2.08-1.4,7.76,7.76,0,0,1,2.87-.5,7,7,0,0,1,2.95.57,4.22,4.22,0,0,1,1.86,1.68,5.22,5.22,0,0,1,.64,2.65v8.46h-3.16Z" transform="translate(-41.86 -6.38)"/><path class="cls-2" d="M1238.25,37.55h6.45v3h-6.45Zm2.16,12.35a3.75,3.75,0,0,1-.8-2.6V33.71h3.48V46.43a1.26,1.26,0,0,0,.19.75.64.64,0,0,0,.55.26h.87v3.35H1243A3.29,3.29,0,0,1,1240.41,49.9Z" transform="translate(-41.86 -6.38)"/><path class="cls-2" d="M1246.73,37.55h6.45v3h-6.45Zm2.16,12.35a3.75,3.75,0,0,1-.8-2.6V33.71h3.48V46.43a1.26,1.26,0,0,0,.19.75.65.65,0,0,0,.56.26h.86v3.35h-1.75A3.29,3.29,0,0,1,1248.89,49.9Z" transform="translate(-41.86 -6.38)"/><path class="cls-2" d="M1258.62,50.22a4.68,4.68,0,0,1-2.06-2,6.59,6.59,0,0,1-.72-3.19V43.53a7.53,7.53,0,0,1,.68-3.34,4.77,4.77,0,0,1,2-2.11,6.43,6.43,0,0,1,3.15-.72,5,5,0,0,1,2.95.86,5.25,5.25,0,0,1,1.88,2.51,11,11,0,0,1,.64,4v.87h-9V43.21h5.84l0-.31a3.13,3.13,0,0,0-.72-1.76,2,2,0,0,0-1.54-.62,2.52,2.52,0,0,0-2,.75,3,3,0,0,0-.69,2.12v1.67a2.78,2.78,0,0,0,.75,2.08,2.91,2.91,0,0,0,2.12.74,4,4,0,0,0,1.38-.25,4.1,4.1,0,0,0,1.24-.7l2.28,2a7.68,7.68,0,0,1-2.32,1.45,6.89,6.89,0,0,1-2.58.51A7.1,7.1,0,0,1,1258.62,50.22Z" transform="translate(-41.86 -6.38)"/><path class="cls-2" d="M1270.17,37.55h3.73V50.72h-3.73Zm6.79,3.28a2.77,2.77,0,0,0-.85-.12,2,2,0,0,0-1.63.68,2.78,2.78,0,0,0-.58,1.88l-.27-3.43a4.84,4.84,0,0,1,1.42-1.83,3.07,3.07,0,0,1,1.91-.65,4,4,0,0,1,1.49.26,3.34,3.34,0,0,1,1.16.76l-2,2.83A1.85,1.85,0,0,0,1277,40.83Z" transform="translate(-41.86 -6.38)"/><path class="cls-2" d="M1279.86,37.55h3.28L1287.57,49l-2.2,2.8Zm12.18,0-5.87,16.26a4.3,4.3,0,0,1-.81,1.43,2.76,2.76,0,0,1-1.21.75,6,6,0,0,1-1.77.23h-.78V52.84h.78a1.69,1.69,0,0,0,.93-.24,1.57,1.57,0,0,0,.57-.81l4.88-14.24Z" transform="translate(-41.86 -6.38)"/><path class="cls-2" d="M1301.05,32.26h3.48V50.72h-3.48Zm1.27,0h10.86v3.36h-10.86Zm0,7.79h9.46V43.4h-9.46Z" transform="translate(-41.86 -6.38)"/><path class="cls-2" d="M1315.75,49.9a4.05,4.05,0,0,1-1-3.06,3.58,3.58,0,0,1,1.18-2.93,5.34,5.34,0,0,1,3.52-1h3.3l.18,2.65h-3.47a1.93,1.93,0,0,0-1.18.31,1.15,1.15,0,0,0-.39,1,1.06,1.06,0,0,0,.49,1,3,3,0,0,0,1.5.31,5.22,5.22,0,0,0,2.08-.32,1,1,0,0,0,.67-1l.27,1.92a1.81,1.81,0,0,1-.65,1.2,3.91,3.91,0,0,1-1.45.75,6.85,6.85,0,0,1-1.83.24A4.37,4.37,0,0,1,1315.75,49.9Zm6.83-7.53A1.7,1.7,0,0,0,1322,41a2.65,2.65,0,0,0-1.72-.49,4.6,4.6,0,0,0-1.46.24,4.22,4.22,0,0,0-1.28.67l-2.16-2.12a5.13,5.13,0,0,1,2.08-1.4,7.76,7.76,0,0,1,2.87-.5,6.88,6.88,0,0,1,2.94.57,4.12,4.12,0,0,1,1.86,1.68,5.13,5.13,0,0,1,.65,2.65v8.46h-3.17Z" transform="translate(-41.86 -6.38)"/><path class="cls-2" d="M1332.65,45.56a2,2,0,0,0,.54,1.48,2.09,2.09,0,0,0,1.52.52,2,2,0,0,0,1.5-.54,2.12,2.12,0,0,0,.53-1.54l.18,2.88a4.16,4.16,0,0,1-1.23,1.82,3.1,3.1,0,0,1-2.09.73,4,4,0,0,1-3.27-1.36,5.82,5.82,0,0,1-1.16-3.87V37.55h3.48Zm4.09-8h3.47V50.72h-3.47Z" transform="translate(-41.86 -6.38)"/><path class="cls-2" d="M1347.11,46.37a1,1,0,0,0,.27.74,1.14,1.14,0,0,0,.79.26h.58v3.35H1347a3.23,3.23,0,0,1-2.46-.91,3.56,3.56,0,0,1-.88-2.58v-15h3.48Z" transform="translate(-41.86 -6.38)"/><path class="cls-2" d="M1350.15,37.55h6.44v3h-6.44Zm2.16,12.35a3.7,3.7,0,0,1-.81-2.6V33.71H1355V46.43a1.34,1.34,0,0,0,.19.75.67.67,0,0,0,.56.26h.86v3.35h-1.75A3.27,3.27,0,0,1,1352.31,49.9Z" transform="translate(-41.86 -6.38)"/><rect class="cls-8" x="1351.82" y="3" width="230.95" height="67.5" rx="17.83"/><path class="cls-2" d="M1414.75,50.26a4.35,4.35,0,0,1-1.85-1.9,6.67,6.67,0,0,1-.64-3h0a10.1,10.1,0,0,1,.25-2.12,13.92,13.92,0,0,1,.71-2.25c0-.13.1-.25.16-.38s.11-.25.17-.37l3.74-8h3.94l-4.45,9.21-.87-.46a2.23,2.23,0,0,1,.92-.93,3,3,0,0,1,1.43-.33,5,5,0,0,1,2.6.65,4.06,4.06,0,0,1,1.64,1.89,7,7,0,0,1,.57,3v0a6.62,6.62,0,0,1-.64,3,4.35,4.35,0,0,1-1.84,1.93,6.07,6.07,0,0,1-2.93.66A6,6,0,0,1,1414.75,50.26Zm4.34-3.24a2.18,2.18,0,0,0,.5-1.53h0a2.75,2.75,0,0,0-.5-1.76,1.74,1.74,0,0,0-1.43-.61,1.71,1.71,0,0,0-1.41.62,2.73,2.73,0,0,0-.51,1.76v0a2.12,2.12,0,0,0,.51,1.52,2.15,2.15,0,0,0,2.84,0Z" transform="translate(-41.86 -6.38)"/><path class="cls-2" d="M1442.14,42.43v3.35h-9V42.43Z" transform="translate(-41.86 -6.38)"/><path class="cls-2" d="M1452.8,32.26h3.48V50.72h-3.48Zm1.75,15.11H1459a3.9,3.9,0,0,0,2.66-.82,3,3,0,0,0,.94-2.34V38.78a3,3,0,0,0-.94-2.34,3.9,3.9,0,0,0-2.66-.82h-4.43V32.26h4.36a9.08,9.08,0,0,1,3.94.78,5.45,5.45,0,0,1,2.48,2.26,7.05,7.05,0,0,1,.85,3.58v5.23a7,7,0,0,1-.82,3.48,5.55,5.55,0,0,1-2.45,2.31,8.89,8.89,0,0,1-4,.82h-4.34Z" transform="translate(-41.86 -6.38)"/><path class="cls-2" d="M1469.42,32.26h3.48v3.48h-3.48Zm0,5.29h3.48V50.72h-3.48Z" transform="translate(-41.86 -6.38)"/><path class="cls-2" d="M1478.88,50.7a10.46,10.46,0,0,1-2.1-.61,7.72,7.72,0,0,1-1.72-1l2.14-2.68a8.39,8.39,0,0,0,2,.94,6.61,6.61,0,0,0,2,.33,5.28,5.28,0,0,0,1.9-.27c.45-.18.67-.43.67-.76a.81.81,0,0,0-.29-.67,1.83,1.83,0,0,0-.75-.32,10.62,10.62,0,0,0-1.28-.17l-.47-.06-.47-.05h-.22a15.23,15.23,0,0,1-2.36-.47,3.1,3.1,0,0,1-1.5-1.07,3.65,3.65,0,0,1-.62-2.31,4,4,0,0,1,.63-2.26,4,4,0,0,1,1.84-1.43,7.94,7.94,0,0,1,2.92-.48,9.62,9.62,0,0,1,2,.2,9.85,9.85,0,0,1,1.91.58,9.12,9.12,0,0,1,1.69.92l-2.07,2.52a8.35,8.35,0,0,0-1.8-.75,6.87,6.87,0,0,0-1.8-.26,4.47,4.47,0,0,0-1.64.24c-.39.16-.58.38-.58.67a.58.58,0,0,0,.31.52,2.25,2.25,0,0,0,.77.26c.31.06.76.12,1.35.19l.23,0,.23,0h.23a15.5,15.5,0,0,1,2.5.46,3.33,3.33,0,0,1,1.65,1.12,3.86,3.86,0,0,1,.67,2.46,3.88,3.88,0,0,1-2.59,3.84,8.16,8.16,0,0,1-3.06.51A12.35,12.35,0,0,1,1478.88,50.7Z" transform="translate(-41.86 -6.38)"/><path class="cls-2" d="M1492,50.2a4.84,4.84,0,0,1-2-2.09,7.31,7.31,0,0,1-.69-3.3V43.4a7.12,7.12,0,0,1,.69-3.27,4.77,4.77,0,0,1,2-2.06,6.74,6.74,0,0,1,3.22-.71,8.39,8.39,0,0,1,2,.24,6.49,6.49,0,0,1,1.72.72,4.5,4.5,0,0,1,1.27,1.14L1498,41.65a3.53,3.53,0,0,0-1.13-.7,3.85,3.85,0,0,0-1.36-.24,2.79,2.79,0,0,0-2,.7,2.66,2.66,0,0,0-.73,2v1.41a2.72,2.72,0,0,0,.73,2,2.76,2.76,0,0,0,2,.72,3.71,3.71,0,0,0,1.37-.26,3.16,3.16,0,0,0,1.12-.77l2.25,2.31a5,5,0,0,1-1.28,1.13,6.15,6.15,0,0,1-1.72.7,8.25,8.25,0,0,1-2,.24A6.86,6.86,0,0,1,1492,50.2Z" transform="translate(-41.86 -6.38)"/><path class="cls-2" d="M1504.79,50.24a4.53,4.53,0,0,1-1.94-2,6.73,6.73,0,0,1-.66-3.1V43a6.63,6.63,0,0,1,.66-3.07,4.54,4.54,0,0,1,1.94-1.94,7.52,7.52,0,0,1,6.16,0,4.49,4.49,0,0,1,1.94,1.94,6.5,6.5,0,0,1,.67,3.07v2.18a6.49,6.49,0,0,1-.67,3.08,4.51,4.51,0,0,1-1.94,2,7.41,7.41,0,0,1-6.16,0ZM1509.5,47a2.42,2.42,0,0,0,.58-1.74V43a2.35,2.35,0,0,0-.58-1.71,2.16,2.16,0,0,0-1.64-.61,2.13,2.13,0,0,0-1.62.61,2.39,2.39,0,0,0-.58,1.71v2.18a2.42,2.42,0,0,0,.58,1.74,2.1,2.1,0,0,0,1.62.61A2.16,2.16,0,0,0,1509.5,47Z" transform="translate(-41.86 -6.38)"/><path class="cls-2" d="M1516.73,37.55h3.48V50.72h-3.48Zm7.62,5.19a2,2,0,0,0-.55-1.5,2.15,2.15,0,0,0-1.57-.53,2,2,0,0,0-1.49.54,2.07,2.07,0,0,0-.53,1.51l-.26-2.92a4.74,4.74,0,0,1,1.43-1.86,3.34,3.34,0,0,1,2.08-.62,3.91,3.91,0,0,1,3.23,1.4,6.14,6.14,0,0,1,1.14,4v8h-3.48Z" transform="translate(-41.86 -6.38)"/><path class="cls-2" d="M1531.26,37.55h3.48V50.72h-3.48Zm7.62,5.19a2,2,0,0,0-.56-1.5,2.13,2.13,0,0,0-1.57-.53,2,2,0,0,0-1.49.54,2.07,2.07,0,0,0-.52,1.51l-.27-2.92A4.84,4.84,0,0,1,1535.9,38a3.35,3.35,0,0,1,2.09-.62,3.89,3.89,0,0,1,3.22,1.4,6.14,6.14,0,0,1,1.14,4v8h-3.47Z" transform="translate(-41.86 -6.38)"/><path class="cls-2" d="M1548.17,50.22a4.73,4.73,0,0,1-2.06-2,6.71,6.71,0,0,1-.71-3.19V43.53a7.53,7.53,0,0,1,.68-3.34,4.66,4.66,0,0,1,2-2.11,6.42,6.42,0,0,1,3.14-.72,5,5,0,0,1,3,.86,5.23,5.23,0,0,1,1.87,2.51,10.81,10.81,0,0,1,.64,4v.87h-9V43.21h5.84l0-.31a3.06,3.06,0,0,0-.71-1.76,2,2,0,0,0-1.55-.62,2.52,2.52,0,0,0-2,.75,3,3,0,0,0-.69,2.12v1.67a2.74,2.74,0,0,0,.76,2.08,2.9,2.9,0,0,0,2.11.74,3.87,3.87,0,0,0,1.38-.25,4.15,4.15,0,0,0,1.25-.7l2.27,2A7.51,7.51,0,0,1,1554,50.4a7,7,0,0,1-2.59.51A7.13,7.13,0,0,1,1548.17,50.22Z" transform="translate(-41.86 -6.38)"/><path class="cls-2" d="M1562.08,50.2a4.74,4.74,0,0,1-2-2.09,7.18,7.18,0,0,1-.7-3.3V43.4a7,7,0,0,1,.7-3.27,4.67,4.67,0,0,1,2-2.06,6.68,6.68,0,0,1,3.21-.71,8.39,8.39,0,0,1,2,.24,6.49,6.49,0,0,1,1.72.72,4.5,4.5,0,0,1,1.27,1.14l-2.25,2.19a3.42,3.42,0,0,0-1.13-.7,3.84,3.84,0,0,0-1.35-.24,2.82,2.82,0,0,0-2,.7,2.65,2.65,0,0,0-.72,2v1.41a2.72,2.72,0,0,0,.72,2,2.78,2.78,0,0,0,2,.72,3.71,3.71,0,0,0,1.37-.26,3.21,3.21,0,0,0,1.11-.77l2.25,2.31A4.82,4.82,0,0,1,1569,50a6.21,6.21,0,0,1-1.71.7,8.39,8.39,0,0,1-2,.24A6.79,6.79,0,0,1,1562.08,50.2Z" transform="translate(-41.86 -6.38)"/><path class="cls-2" d="M1571.65,37.55h6.45v3h-6.45Zm2.17,12.35a3.7,3.7,0,0,1-.81-2.6V33.71h3.48V46.43a1.26,1.26,0,0,0,.19.75.67.67,0,0,0,.56.26h.86v3.35h-1.75A3.27,3.27,0,0,1,1573.82,49.9Z" transform="translate(-41.86 -6.38)"/><path class="cls-2" d="M1583.54,50.22a4.73,4.73,0,0,1-2.06-2,6.71,6.71,0,0,1-.71-3.19V43.53a7.53,7.53,0,0,1,.68-3.34,4.66,4.66,0,0,1,2-2.11,6.39,6.39,0,0,1,3.14-.72,5,5,0,0,1,3,.86,5.3,5.3,0,0,1,1.87,2.51,10.81,10.81,0,0,1,.64,4v.87h-9V43.21h5.84l0-.31a3,3,0,0,0-.72-1.76,2,2,0,0,0-1.54-.62,2.52,2.52,0,0,0-2,.75,3,3,0,0,0-.69,2.12v1.67a2.74,2.74,0,0,0,.76,2.08,2.88,2.88,0,0,0,2.11.74,3.87,3.87,0,0,0,1.38-.25,4.15,4.15,0,0,0,1.25-.7l2.27,2a7.63,7.63,0,0,1-2.31,1.45,7,7,0,0,1-2.59.51A7.13,7.13,0,0,1,1583.54,50.22Z" transform="translate(-41.86 -6.38)"/><path class="cls-2" d="M1596.75,50.24a4.18,4.18,0,0,1-1.52-2,8.07,8.07,0,0,1-.52-3.08v-2.1a8.26,8.26,0,0,1,.52-3.11,3.95,3.95,0,0,1,3.91-2.64,3.19,3.19,0,0,1,1.92.62,4.51,4.51,0,0,1,1.41,1.79l-.27,2.92a2.68,2.68,0,0,0-.23-1.15,1.54,1.54,0,0,0-.67-.71,2.05,2.05,0,0,0-1.06-.25,1.82,1.82,0,0,0-1.51.67,2.87,2.87,0,0,0-.54,1.87v2.09a2.77,2.77,0,0,0,.54,1.83,1.86,1.86,0,0,0,1.51.65,2.16,2.16,0,0,0,1.06-.24,1.56,1.56,0,0,0,.67-.7,2.45,2.45,0,0,0,.23-1.1l.18,3a3.45,3.45,0,0,1-1.25,1.67,3.32,3.32,0,0,1-2,.59A4.15,4.15,0,0,1,1596.75,50.24Zm5.45-18h3.48V50.72h-3.48Z" transform="translate(-41.86 -6.38)"/></svg>