<?xml version="1.0" encoding="UTF-8" standalone="no"?>
<!DOCTYPE svg PUBLIC "-//W3C//DTD SVG 1.1//EN"
"http://www.w3.org/Graphics/SVG/1.1/DTD/svg11.dtd">
<svg viewBox="0 0 1466 825" version="1.1" xmlns="http://www.w3.org/2000/svg" xmlns:xlink="http://www.w3.org/1999/xlink">
<defs>
<clipPath id="c0_9"><path d="M.8,546.4V404.5H163.4V546.4Z"/></clipPath>
<clipPath id="c1_9"><path d="M.8,471.7v-229h158v229Z"/></clipPath>
<clipPath id="c2_9"><path d="M0,825V0H1466.7V825Z"/></clipPath>
<clipPath id="c3_9"><path d="M1191.8,825V685.4h274.9V825Z"/></clipPath>
<clipPath id="c4_9"><path d="M.8,825V.8H1466.7V825Z"/></clipPath>
<clipPath id="c5_9"><path d="M.8,825V351.8H1013.9V825Z"/></clipPath>
<clipPath id="c6_9"><path d="M828.5,733.2c-11.4,0,-20.7,-9.3,-20.7,-20.8V387.1c0,-11.5,9.3,-20.8,20.7,-20.8H1408c11.4,0,20.7,9.3,20.7,20.8V712.4c0,11.5,-9.3,20.8,-20.7,20.8Z"/></clipPath>
<clipPath id="c7_9"><path d="M829.1,346.9c-11.8,0,-21.3,-9.6,-21.3,-21.4V148.6c0,-11.8,9.5,-21.4,21.3,-21.4h578.3c11.8,0,21.3,9.6,21.3,21.4V325.5c0,11.8,-9.5,21.4,-21.3,21.4Z"/></clipPath>
<clipPath id="c8_9"><path d="M252.4,733.2c-10.4,0,-18.8,-8.5,-18.8,-18.9V385.7c0,-10.4,8.4,-18.9,18.8,-18.9H751.5c10.4,0,18.9,8.5,18.9,18.9V714.3c0,10.4,-8.5,18.9,-18.9,18.9Z"/></clipPath>
<style type="text/css"><![CDATA[
.g0_9{
fill: #003057;
}
.g1_9{
fill: none;
stroke: #A9975C;
stroke-width: 3.817;
stroke-miterlimit: 10;
stroke-opacity: 0.25;
}
.g2_9{
fill: none;
stroke: #A9975C;
stroke-width: 3.785;
stroke-miterlimit: 10;
stroke-opacity: 0.25;
}
.g3_9{
fill: #FFF;
}
.g4_9{
fill: #B4A168;
}
.g5_9{
fill: none;
stroke: #BFB37C;
stroke-width: 2.291;
stroke-linejoin: round;
}
.g6_9{
fill: #ECECEC;
}
]]></style>
</defs>
<path d="M.8,.8H1466.7V825H.8V.8Z" class="g0_9"/>
<image clip-path="url(#c0_9)" preserveAspectRatio="none" x="1" y="404" width="162" height="142" xlink:href="img/1.png"/>
<image clip-path="url(#c1_9)" preserveAspectRatio="none" x="1" y="243" width="158" height="229" xlink:href="img/2.png"/>
<path clip-path="url(#c2_9)" d="M-56.4,773.6c9.5,-16.4,32.6,-29.8,51.6,-29.8H289.5c19,0,26.7,13.4,17.2,29.8L159.8,1028.2c-9.5,16.4,-32.6,29.8,-51.6,29.8H-186.1c-19,0,-26.7,-13.4,-17.2,-29.8Z" class="g1_9"/>
<image clip-path="url(#c3_9)" preserveAspectRatio="none" x="1192" y="685" width="275" height="140" xlink:href="img/3.png"/>
<path clip-path="url(#c4_9)" d="M1436,-63.5c-4.8,-8.3,-16.5,-15,-26.1,-15H1260.8c-9.6,0,-13.5,6.7,-8.7,15l74.4,128.6c4.8,8.3,16.5,15,26.1,15.1h149.1c9.6,0,13.5,-6.8,8.7,-15.1Z" class="g1_9"/>
<path d="M95.6,602.7l93.8,.7c5.9,0,8.3,-4.2,5.4,-9.3L148.2,511.6c-2.9,-5.2,-7.7,-5.2,-10.6,-.1L90.2,593.3c-2.9,5.2,-.5,9.4,5.4,9.4Z" class="g2_9"/>
<path clip-path="url(#c5_9)" d="M-25.4,573.4l93.8,-.8c5.8,0,8.2,4.2,5.3,9.4L27.1,664.5c-2.9,5.2,-7.7,5.2,-10.6,0L-30.8,582.8c-2.9,-5.2,-.5,-9.4,5.4,-9.4Z" class="g2_9"/>
<path d="M129.3,759.9c.4,0,.7,.1,1.2,.2c.3,.1,.6,.3,.8,.5c.1,0,.1,.1,.1,.1v1.2q0,.1,-.1,.1h-.8q-.1,0,-.1,-.1v-.5c0,0,0,-.1,-.1,-.1c-.3,-.2,-.7,-.3,-1,-.3c-.6,0,-1.2,.3,-1.4,.9c-.1,.5,-.2,1,-.1,1.5c0,.5,0,1,.1,1.5c.1,.3,.2,.5,.5,.6c.3,.1,.6,.2,.9,.2c.3,0,.7,-.1,1.1,-.2c.1,0,.1,-.1,.1,-.1v-1.3c0,0,0,-.1,-.1,-.1h-1q-.1,0,-.1,-.1v-.7q0,-.1,.1,-.1h2q.1,0,.1,.1v2.7c0,.1,-.1,.2,-.2,.2c-.6,.4,-1.3,.6,-2.1,.6c-1.3,0,-2.1,-.4,-2.4,-1.5c-.2,-.6,-.2,-1.2,-.2,-1.8c0,-.6,.1,-1.2,.2,-1.8c.4,-1.2,1.2,-1.7,2.5,-1.7Z" class="g3_9"/>
<path d="M134.6,761.8c.4,0,.9,.1,1.3,.4c.3,.2,.5,.5,.7,.9c.1,.5,.1,.9,.1,1.4c0,.1,-.1,.1,-.1,.1h-2.9c0,.2,0,.3,0,.4c.2,.4,.6,.7,1.1,.6c.4,0,.8,-.1,1.1,-.4h.1l.6,.5c0,0,0,.1,0,.1c-.5,.6,-1.2,.9,-2,.9c-.4,0,-.9,-.2,-1.2,-.4c-.3,-.2,-.5,-.5,-.7,-.9c-.1,-.4,-.1,-.8,-.1,-1.1c0,-.4,.1,-.8,.1,-1.2c.2,-.4,.4,-.7,.7,-.9c.4,-.3,.8,-.4,1.2,-.4m0,.9c-.4,0,-.8,.2,-.9,.6c0,.2,0,.3,0,.4c0,0,0,.1,0,.1h1.8q.1,0,.1,-.1c0,-.1,0,-.2,-.1,-.4c0,-.2,-.2,-.3,-.3,-.4c-.2,-.1,-.4,-.2,-.6,-.2Z" class="g3_9"/>
<path d="M139.7,761.8c.4,0,.8,.1,1.2,.3c.4,.2,.6,.6,.7,1c.2,.3,.2,.7,.2,1.1c0,.4,-.1,.8,-.2,1.2c-.1,.4,-.3,.7,-.7,.9c-.7,.5,-1.6,.5,-2.4,0c-.3,-.2,-.5,-.5,-.6,-.9c-.2,-.4,-.2,-.8,-.2,-1.2c0,-.4,.1,-.7,.2,-1.1c.1,-.4,.3,-.8,.6,-1c.4,-.2,.8,-.3,1.2,-.3m0,.9c-.4,0,-.7,.2,-.9,.6c-.1,.3,-.1,.6,-.1,.8c0,.3,0,.6,.1,.9c.2,.4,.7,.7,1.2,.5c.3,-.1,.5,-.3,.5,-.5c.1,-.3,.1,-.6,.1,-.9c0,-.2,0,-.5,-.1,-.8c0,-.3,-.4,-.6,-.8,-.6Z" class="g3_9"/>
<path d="M145.5,761.8c.1,0,.2,0,.4,.1c0,0,0,.1,0,.1v.8q0,.1,-.1,.1c-.2,-.1,-.4,-.1,-.5,-.1c-.7,0,-1.1,.4,-1.1,1.1v1.5q0,.1,.1,.1h.4q.1,0,.1,.1v.7q0,.1,-.1,.1h-2.1v-.8q0,-.1,0,-.1h.5v-2.7c0,0,0,-.1,0,-.1h-.4q-.1,0,-.1,0v-.8q0,-.1,.1,-.1h1.5v.6c.3,-.4,.8,-.6,1.3,-.6Z" class="g3_9"/>
<path d="M148.4,761.8c.5,-.1,1,.1,1.2,.5V762q0,-.1,.1,-.1h1.4q.1,0,.1,.1v.7q0,.1,-.1,.1h-.4v3.4c0,.5,-.2,1.1,-.6,1.6c-.4,.4,-1,.6,-1.6,.5c-.4,0,-.6,-.1,-1,-.2c-.3,-.1,-.5,-.3,-.7,-.5c-.1,0,-.1,-.1,0,-.1l.5,-.6c0,0,.1,0,.1,0c.3,.3,.7,.4,1.1,.4c.7,0,1,-.3,1,-1v-.5c-.3,.5,-.8,.6,-1.2,.6c-.4,0,-.7,-.1,-1,-.3c-.3,-.2,-.5,-.5,-.6,-.8c-.1,-.4,-.1,-.7,-.1,-1.2c0,-.4,0,-.7,.1,-1.1c.3,-.8,.9,-1.2,1.7,-1.2m.3,.9c-.4,0,-.8,.2,-.8,.6c-.1,.3,-.2,.5,-.2,.8c0,.3,0,.5,.2,.7c0,.4,.4,.6,.8,.6c.4,0,.7,-.2,.8,-.6c.1,-.2,.1,-.4,.1,-.7c0,-.3,0,-.5,-.1,-.8c-.1,-.3,-.4,-.6,-.8,-.6Z" class="g3_9"/>
<path d="M152.1,761.9h1.4q.1,0,.1,.1v3.4q0,.1,.1,.1h.4q.1,0,.1,.1v.7q0,.1,-.1,.1h-2q-.1,0,-.1,-.1v-.7q0,-.1,.1,-.1h.4q.1,0,.1,-.1v-2.5c0,0,0,-.1,-.1,-.1h-.4q-.1,0,-.1,-.1V762q0,-.1,.1,-.1m.6,-1.9h.9q.1,0,.1,.1v.8q0,.1,-.1,.1h-.9q-.1,0,-.1,-.1v-.8l.1,-.1q-.1,0,0,0Z" class="g3_9"/>
<path d="M156.9,761.8c.5,-.1,1,0,1.5,.4c.3,.3,.5,.7,.4,1.2v2.1q0,.1,.1,.1h.4q.1,0,.1,0v.8q0,.1,-.1,.1h-1.4v-.4c-.4,.4,-.9,.6,-1.4,.5c-.4,0,-.8,-.1,-1,-.3c-.3,-.3,-.5,-.7,-.5,-1.1c0,-.4,.2,-.8,.5,-1.1c.4,-.2,.9,-.4,1.4,-.3h.9q.1,0,.1,-.1v-.2c0,-.2,-.1,-.4,-.3,-.6c-.2,-.1,-.4,-.2,-.7,-.2c-.1,0,-.4,0,-.5,.1l-.1,.1v.4h-.8q-.1,0,-.1,0v-1q0,-.1,.1,-.1c.4,-.3,.9,-.4,1.4,-.4m.9,2.7H157c-.7,0,-.9,.2,-.9,.6c0,.4,.2,.6,.7,.6c.7,0,1.1,-.3,1.1,-.8Z" class="g3_9"/>
<path d="M162.3,760h5.1q.1,0,.1,.1v1.5h-.9q-.1,0,-.1,0V761h-1v4.4q0,.1,0,.1h.6v.8q0,.1,0,.1h-2.3q-.1,0,-.1,-.1v-.7q0,-.1,.1,-.1h.5q.1,0,.1,-.1V761h-1.1q-.1,0,-.1,0v.6h-.9q-.1,0,-.1,0v-1.5l.1,-.1q-.1,0,0,0Z" class="g3_9"/>
<path d="M169.6,761.8c.4,0,.8,.1,1.2,.3c.3,.2,.5,.6,.7,1c.1,.4,.2,.8,.1,1.3q0,.1,-.1,.1h-2.8q-.1,0,-.1,.1c0,.1,0,.2,.1,.3c.1,.4,.5,.7,1,.7c.4,0,.8,-.2,1.1,-.4q.1,-.1,.1,0l.6,.4c0,0,0,.1,0,.2c-.5,.5,-1.2,.8,-1.9,.7c-.5,0,-.9,-.1,-1.3,-.3c-.3,-.2,-.5,-.6,-.7,-1c-.1,-.3,-.1,-.7,-.1,-1.1c0,-.4,.1,-.8,.1,-1.2c.2,-.4,.4,-.7,.7,-.9c.4,-.1,.8,-.2,1.3,-.2m0,.9c-.5,0,-.8,.2,-.9,.6c-.1,.2,-.1,.3,-.1,.4c0,0,0,.1,.1,.1h1.8v-.1c0,-.1,0,-.2,0,-.4c-.1,-.2,-.3,-.3,-.4,-.4c-.1,-.2,-.3,-.2,-.5,-.2Z" class="g3_9"/>
<path d="M174.6,761.8c.6,0,1.1,.1,1.6,.3c.1,0,.1,.1,.1,.1v1.1h-.9q-.1,0,-.1,0v-.4c0,0,0,-.1,-.1,-.1c-.2,-.1,-.4,-.1,-.6,-.1c-.4,0,-.8,.2,-.9,.6c-.1,.3,-.2,.6,-.1,.8c0,.3,0,.7,.1,.9c.1,.4,.5,.6,.9,.6c.2,0,.4,0,.6,0q.1,0,.1,-.1v-.4q0,-.1,.1,-.1h.8q.1,0,.1,.1v1c0,.1,0,.2,-.1,.2c-.5,.2,-1,.3,-1.6,.3c-.9,.1,-1.7,-.4,-2,-1.2c-.1,-.4,-.1,-.8,-.1,-1.2c0,-.4,.1,-.7,.1,-1.1c.2,-.4,.4,-.8,.7,-1c.4,-.2,.9,-.3,1.3,-.3Z" class="g3_9"/>
<path d="M177.3,760h1.4q.1,0,.1,.1v2.2c.3,-.3,.8,-.5,1.2,-.5c.4,0,.9,.1,1.2,.4c.3,.4,.5,.8,.4,1.3v1.9q0,.1,.1,.1h.4q.1,0,.1,.1v.7q0,.1,-.1,.1h-2q-.1,0,-.1,-.1v-.7q0,-.1,.1,-.1h.4q.1,0,.1,-.1v-1.7c0,-.3,-.1,-.6,-.2,-.8c-.4,-.3,-.9,-.3,-1.3,0c-.1,.2,-.2,.5,-.2,.8v1.7q0,.1,.1,.1h.4q.1,0,.1,.1v.7q0,.1,-.1,.1h-2v-.8q0,-.1,0,-.1h.4c0,0,.1,0,.1,-.1V761c0,0,0,-.1,-.1,-.1h-.4v-.8q-.2,0,-.1,-.1Z" class="g3_9"/>
<path d="M126.1,786.9l4.6,-13.2h2.2l4.5,13.2h-2.3l-.9,-2.8h-4.8l-.9,2.8Zm3.9,-4.7h3.6l-1.8,-5.3Z" class="g3_9"/>
<path d="M146.1,785.4c-.6,1.2,-1.7,1.7,-3.4,1.7c-2.7,0,-4.2,-1.8,-4.2,-4.3v-1.3c0,-2.8,1.4,-4.3,3.9,-4.3c2.6,0,3.9,1.6,3.9,4.4v1h-5.8v.1c0,1.4,.6,2.6,2.1,2.6c.9,.1,1.6,-.3,2,-.9Zm-5.6,-4.3h3.7c0,-1.4,-.6,-2.1,-1.8,-2.1c-1.3,0,-1.7,.8,-1.9,2.1Z" class="g3_9"/>
<path d="M153.8,779.8c-.3,-.5,-.8,-.8,-1.4,-.8c-1,0,-1.7,.8,-1.7,2.2v5.7h-2.1v-9.5h2v.9c.5,-.7,1.3,-1.1,2.1,-1c1.1,-.1,2.1,.5,2.7,1.4Z" class="g3_9"/>
<path d="M164.4,782.7c0,2.5,-1.3,4.4,-4.1,4.4c-2.7,0,-4.1,-1.7,-4.1,-4.4v-1.2c0,-2.8,1.5,-4.4,4.1,-4.4c2.6,0,4.1,1.5,4.1,4.4Zm-2.1,0v-1.1c0,-1.7,-.7,-2.6,-2.1,-2.6c-1.3,0,-2,.9,-2,2.6v1.1c0,1.4,.5,2.6,2,2.6c1.6,0,2.1,-1.2,2.1,-2.6Z" class="g3_9"/>
<path d="M171.8,779.9c-.5,-.7,-1,-.9,-2.1,-.9c-.9,0,-1.5,.2,-1.5,.9c0,.8,.7,1.1,1.8,1.2c2.2,.3,3.5,1,3.5,3c0,1.7,-1.2,2.9,-3.7,2.9c-2,0,-3,-.5,-3.8,-1.6l1.6,-1c.4,.6,1,.8,2.2,.8c1.1,0,1.7,-.4,1.7,-1c0,-.8,-.5,-1,-2,-1.2c-1.9,-.2,-3.4,-1,-3.4,-3c0,-1.7,1.3,-2.9,3.6,-2.9c1.6,0,2.8,.4,3.6,1.6Z" class="g3_9"/>
<path d="M183.9,782.8c0,2.4,-1.3,4.3,-3.8,4.3c-.8,0,-1.7,-.2,-2.3,-.8v4.2h-2.1V777.4h2.1v.8c.6,-.7,1.4,-1.1,2.3,-1c2.3,0,3.8,1.6,3.8,4.3Zm-2.1,-.1v-1.1c0,-1.7,-.7,-2.6,-2,-2.6c-1.4,0,-2,.9,-2.1,2.4v1.3c0,1.4,.5,2.6,2.1,2.6c1.5,0,2,-1.2,2,-2.6Z" class="g3_9"/>
<path d="M189.1,781.3h2v-.8c0,-1.3,-.4,-1.5,-1.9,-1.5c-1,0,-1.6,.1,-2,.9l-1.5,-1.1c.7,-1.1,1.7,-1.5,3.7,-1.5c2.4,0,3.7,.7,3.7,3.2v6.4h-2v-.8c-.4,.7,-1,1,-2.2,1c-2.1,0,-3.4,-1.1,-3.4,-3c0,-2.1,1.5,-2.8,3.6,-2.8m2,1.6h-1.8c-1.3,0,-1.7,.4,-1.7,1.2c0,.8,.7,1.2,1.6,1.2c1.2,0,2,-.4,2,-2Z" class="g3_9"/>
<path d="M203,785.4c-.6,1.1,-1.8,1.7,-3.4,1.7c-2.7,0,-4.3,-1.7,-4.3,-4.3v-1.3c0,-2.7,1.6,-4.3,4.3,-4.3c1.3,-.1,2.6,.5,3.4,1.6l-1.6,1.1c-.4,-.7,-1.1,-.9,-1.8,-.9c-1.6,0,-2.2,.9,-2.2,2.6v1.1c0,1.4,.5,2.6,2.2,2.6c.7,.1,1.4,-.3,1.8,-.9Z" class="g3_9"/>
<path d="M211.7,785.4c-.6,1.2,-1.7,1.7,-3.4,1.7c-2.7,0,-4.2,-1.8,-4.2,-4.3v-1.3c0,-2.8,1.4,-4.3,3.9,-4.3c2.6,0,3.9,1.6,3.9,4.4v1h-5.7v.1c0,1.4,.5,2.6,2.1,2.6c.7,.1,1.5,-.3,1.9,-.9Zm-5.5,-4.3h3.6c0,-1.4,-.7,-2.1,-1.8,-2.1c-1.2,0,-1.7,.8,-1.8,2.1Z" class="g3_9"/>
<path d="M226.6,776.9c-.6,-.9,-1.7,-1.5,-2.9,-1.4c-1.3,0,-2.2,.6,-2.2,1.7c0,1.2,1.1,1.8,2.8,2.2c2.7,.5,4.1,1.6,4.1,3.9c0,2,-1.3,3.8,-4.5,3.8c-2.3,0,-3.9,-.7,-5,-2.2l1.7,-1.2c.7,.9,1.9,1.5,3.1,1.4c1.9,0,2.4,-.8,2.4,-1.8c0,-.9,-.6,-1.7,-2.9,-2.1c-2.5,-.6,-3.9,-1.8,-3.9,-4c0,-2,1.3,-3.7,4.4,-3.7c2.1,0,3.5,.7,4.5,2.2Z" class="g3_9"/>
<path d="M231.4,777.4l2.5,6.7l2.2,-6.7h2.1l-3.4,9.9c-.8,2.5,-1.5,3.3,-4.2,3.3v-1.9c1.3,0,1.9,-.2,2.4,-1.6l-3.7,-9.7Z" class="g3_9"/>
<path d="M245,779.9c-.5,-.7,-1,-.9,-2.1,-.9c-.9,0,-1.5,.2,-1.5,.9c0,.8,.7,1.1,1.8,1.2c2.2,.3,3.5,1,3.5,3c0,1.7,-1.2,2.9,-3.7,2.9c-1.9,0,-3,-.5,-3.8,-1.6l1.6,-1c.4,.6,1,.8,2.2,.8c1.1,0,1.7,-.4,1.7,-1c0,-.8,-.5,-1,-2,-1.2c-1.9,-.2,-3.4,-1,-3.4,-3c0,-1.7,1.3,-2.9,3.6,-2.9c1.6,0,2.8,.4,3.6,1.6Z" class="g3_9"/>
<path d="M248.2,777.4h1.2v-2.1h2.1v2.1h2v1.8h-2v4.3c0,1.1,.1,1.6,1.2,1.6h.7v1.8h-1c-2.3,0,-3.1,-.8,-3.1,-3v-4.8h-1.1Z" class="g3_9"/>
<path d="M262.7,785.4c-.7,1.2,-1.7,1.7,-3.4,1.7c-2.8,0,-4.2,-1.8,-4.2,-4.3v-1.3c0,-2.8,1.4,-4.3,3.9,-4.3c2.6,0,3.9,1.6,3.9,4.4v1h-5.8v.1c0,1.4,.5,2.6,2.1,2.6c.8,.1,1.6,-.3,2,-.9Zm-5.6,-4.3h3.7c-.1,-1.4,-.7,-2.1,-1.9,-2.1c-1.1,0,-1.7,.8,-1.8,2.1Z" class="g3_9"/>
<path d="M265.2,777.4h1.9v.9c.6,-.7,1.4,-1.1,2.3,-1c1.1,-.1,2.1,.5,2.7,1.3c.7,-.8,1.8,-1.3,2.8,-1.3c2.1,0,3.4,1.2,3.4,3.7v6h-2.1v-5.7c0,-1.6,-.6,-2.2,-1.7,-2.2c-1,0,-1.7,.8,-1.7,2.1V787h-2.1v-5.7c0,-1.6,-.7,-2.2,-1.7,-2.2c-1,0,-1.8,.8,-1.8,2.1V787h-2Z" class="g3_9"/>
<path d="M286.1,779.9c-.5,-.7,-.9,-.9,-2.1,-.9c-.8,0,-1.5,.2,-1.5,.9c0,.8,.7,1.1,1.8,1.2c2.2,.3,3.5,1,3.5,3c0,1.7,-1.2,2.9,-3.7,2.9c-2,0,-3.1,-.5,-3.8,-1.6l1.6,-1c.4,.6,1,.8,2.2,.8c1.1,0,1.7,-.4,1.7,-1c0,-.8,-.5,-1,-2,-1.2c-1.9,-.2,-3.4,-1,-3.4,-3c0,-1.7,1.3,-2.9,3.6,-2.9c1.6,0,2.8,.4,3.5,1.6Z" class="g3_9"/>
<path d="M127.6,807.3V794.1H132c3,0,5,1.6,5,5.8v1.6c0,4.2,-2,5.8,-5,5.8Zm7.2,-5.8v-1.6c0,-2.7,-.8,-3.8,-2.8,-3.8h-2.2v9.3H132c2,0,2.8,-1.2,2.8,-3.9Z" class="g3_9"/>
<path d="M146.6,805.8c-.7,1.2,-1.8,1.7,-3.4,1.7c-2.7,0,-4.2,-1.8,-4.2,-4.3v-1.3c0,-2.8,1.4,-4.3,3.9,-4.3c2.6,0,3.9,1.6,3.9,4.4v1H141v.1c0,1.5,.6,2.6,2.1,2.6c.8,.1,1.6,-.3,2,-.9ZM141,801.5h3.7c-.1,-1.4,-.6,-2.1,-1.8,-2.1c-1.3,0,-1.8,.8,-1.9,2.1Z" class="g3_9"/>
<path d="M154.4,800.3c-.5,-.6,-1,-.9,-2.2,-.9c-.9,0,-1.5,.3,-1.5,.9c0,.9,.7,1.1,1.9,1.2c2.1,.3,3.5,.9,3.5,3c0,1.8,-1.3,2.9,-3.7,2.9c-2,0,-3.1,-.5,-3.9,-1.6l1.6,-1c.4,.6,1,.8,2.3,.8c1,0,1.6,-.4,1.6,-1c0,-.8,-.5,-1,-2,-1.2c-1.8,-.2,-3.3,-1,-3.3,-3c0,-1.7,1.2,-2.9,3.5,-2.9c1.6,0,2.8,.5,3.6,1.6Z" class="g3_9"/>
<path d="M158.5,794.1h2.3v2.1h-2.3v-2.1Zm.1,3.7h2.1v9.5h-2.1v-9.5Z" class="g3_9"/>
<path d="M169.2,797.8h2.1v9.3c0,3,-1.7,4,-4.2,4c-1.7,0,-2.8,-.4,-3.6,-1.6l1.5,-1.1c.5,.7,1.2,1.1,2,1c1.5,0,2.2,-.7,2.2,-2.2v-.5c-.6,.6,-1.4,.9,-2.3,.8c-2.5,0,-3.8,-1.8,-3.8,-4.2V802c0,-2.8,1.5,-4.3,3.8,-4.3c.8,-.1,1.7,.3,2.3,.8Zm0,5.3V802c0,-1.7,-.7,-2.6,-2,-2.6c-1.4,0,-2.1,.9,-2.1,2.6v1.1c0,1.5,.6,2.6,2.1,2.6c1.5,0,2,-1.1,2,-2.6Z" class="g3_9"/>
<path d="M173.8,797.8h2v.9c.5,-.7,1.4,-1.1,2.4,-1c2,0,3.5,1,3.5,3.7v6h-2.1v-5.7c0,-1.7,-.7,-2.2,-1.8,-2.2c-1.3,0,-2,.9,-2,2.1v5.8h-2.1Z" class="g3_9"/>
<path d="M192,805.4h5.8v1.9h-8.1V794.1h2.2v11.3Z" class="g3_9"/>
<path d="M202.4,801.7h2.1v-.8c0,-1.2,-.5,-1.5,-1.9,-1.5c-1.1,0,-1.6,.1,-2,.9l-1.5,-1.1c.7,-1.1,1.7,-1.5,3.6,-1.5c2.5,0,3.8,.7,3.8,3.2v6.4h-2v-.8c-.5,.7,-1,1,-2.2,1c-2.1,0,-3.4,-1.1,-3.4,-3c0,-2.1,1.5,-2.8,3.5,-2.8m2.1,1.6h-1.9c-1.3,0,-1.7,.4,-1.7,1.2c0,.8,.6,1.2,1.6,1.2c1.2,0,2,-.4,2,-2Z" class="g3_9"/>
<path d="M211,798.5c.5,-.7,1.4,-1,2.3,-.9c2.3,0,3.9,1.5,3.9,4.4v1.2c0,2.5,-1.3,4.3,-3.9,4.3c-.9,.1,-1.7,-.2,-2.3,-.8v.6h-2V794.1h2Zm4.1,4.6V802c0,-1.7,-.7,-2.6,-2.1,-2.6c-1.3,0,-1.9,.9,-2,2.4v1.3c0,1.5,.5,2.6,2,2.6c1.6,0,2.1,-1.1,2.1,-2.6Z" class="g3_9"/>
<path d="M227,803.1c0,2.5,-1.2,4.4,-4,4.4c-2.7,0,-4.1,-1.7,-4.1,-4.4v-1.2c0,-2.8,1.5,-4.4,4.1,-4.4c2.6,0,4,1.5,4,4.4Zm-2,0V802c0,-1.7,-.7,-2.6,-2.1,-2.6c-1.4,0,-2,.9,-2,2.6v1.1c0,1.5,.4,2.6,2,2.6c1.5,0,2.1,-1.1,2.1,-2.6Z" class="g3_9"/>
<path d="M234.3,800.2c-.2,-.5,-.8,-.7,-1.3,-.7c-1.1,0,-1.8,.7,-1.8,2.1v5.7h-2.1v-9.5h2v.9c.5,-.7,1.3,-1.1,2.1,-1c1.1,-.1,2.2,.5,2.7,1.4Z" class="g3_9"/>
<path d="M240.1,801.7h2v-.8c0,-1.2,-.4,-1.5,-1.9,-1.5c-1,0,-1.5,.1,-2,.9l-1.5,-1.1c.7,-1.1,1.7,-1.5,3.7,-1.5c2.4,0,3.7,.7,3.7,3.2v6.4h-2v-.8c-.4,.7,-1,1,-2.1,1c-2.2,0,-3.5,-1.1,-3.5,-3c0,-2.1,1.5,-2.8,3.6,-2.8m2,1.6h-1.9c-1.2,0,-1.7,.4,-1.7,1.2c0,.8,.7,1.2,1.7,1.2c1.2,0,1.9,-.4,1.9,-2Z" class="g3_9"/>
<path d="M246,797.8h1.2v-2.1h2.1v2.1h2v1.8h-2v4.3c0,1.1,.1,1.6,1.2,1.6h.8v1.8h-1c-2.3,0,-3.2,-.8,-3.2,-3v-4.8h-1.2Z" class="g3_9"/>
<path d="M261,803.1c0,2.5,-1.2,4.4,-4,4.4c-2.7,0,-4.1,-1.7,-4.1,-4.4v-1.2c0,-2.8,1.5,-4.4,4.1,-4.4c2.6,0,4,1.5,4,4.4Zm-2,0V802c0,-1.7,-.7,-2.6,-2.1,-2.6c-1.3,0,-2,.9,-2,2.6v1.1c0,1.5,.5,2.6,2,2.6c1.5,0,2.1,-1.1,2.1,-2.6Z" class="g3_9"/>
<path d="M268.4,800.2c-.3,-.5,-.8,-.7,-1.4,-.7c-1,0,-1.8,.7,-1.8,2.1v5.7h-2v-9.5h2v.9c.4,-.7,1.3,-1.1,2.1,-1c1.1,-.1,2.1,.5,2.6,1.4Z" class="g3_9"/>
<path d="M272.4,797.8l2.5,6.7l2.2,-6.7h2.1l-3.4,10c-.8,2.4,-1.5,3.2,-4.2,3.2v-1.9c1.4,0,1.9,-.2,2.4,-1.6l-3.7,-9.7Z" class="g3_9"/>
<path d="M113,755.6h1.1v56h-1l-.1,-56Z" class="g4_9"/>
<path d="M89.2,808.4v0c-.9,0,-1.6,.6,-1.6,1.5c0,.9,.7,1.7,1.6,1.7c.9,0,1.6,-.7,1.6,-1.6c.1,-.9,-.7,-1.6,-1.6,-1.6m0,3c-.7,0,-1.3,-.7,-1.3,-1.4c0,-.8,.6,-1.4,1.3,-1.4c.8,0,1.4,.6,1.4,1.4c0,.7,-.6,1.4,-1.4,1.4Z" class="g4_9"/>
<path d="M89.6,810.1v0c.2,-.1,.3,-.2,.3,-.4c0,-.2,0,-.3,-.1,-.5c-.2,-.1,-.4,-.1,-.6,-.1c-.2,0,-.3,0,-.5,.1V811H89v-.8h.2c.2,0,.3,.1,.4,.3c0,.2,0,.4,.1,.5h.4c-.1,-.1,-.1,-.3,-.2,-.5c-.1,-.3,-.2,-.4,-.3,-.4m-.4,-.2H89v-.6h.2c.3,0,.4,.2,.4,.4c0,.2,-.2,.2,-.4,.2Z" class="g4_9"/>
<path d="M45.4,773.4v14.1H53l.8,-4.2h3.5c-1.3,6.4,-7.8,10.8,-15.9,10.8c-.6,0,-1.2,0,-1.7,0c-4.3,-.3,-8.3,-1.7,-11.8,-4.1c-3.3,-2.5,-5,-5.9,-5,-9.7c0,-4.2,1.8,-8.1,5,-10.8c3.2,-2.8,7.2,-4.4,11.5,-4.5h.8c5.3,0,10.6,1.9,14.7,5.3l.2,.2l.3,.2l.1,.1h8.7v-15H55.4v4.3C50.1,757,44.1,755.4,37.9,755.4h-.1c-8.1,0,-15.9,3.2,-21.6,9c-4.6,4.6,-7.1,10.3,-7,16c.1,6.1,3,11.8,8.3,16c5.4,4.1,12,6.4,18.9,6.3c.8,0,1.7,0,2.5,-.1c6.9,-.6,12.9,-2.1,17.2,-4.4v1.9h9.4V783.3h3.2v19.5H63.8v8.8H85.7v-8.8H80.8V783.3h11l.8,4.2h7.6V773.4Z" class="g4_9"/>
<image preserveAspectRatio="none" x="57" y="12" width="82" height="110" xlink:href="img/4.jpg"/>
<path d="M55.5,11.3h84.8V123.6H55.5V11.3Z" class="g5_9"/>
<path fill-rule="evenodd" d="M807.8,387.1c0,-11.5,9.3,-20.8,20.7,-20.8H1408c11.4,0,20.7,9.3,20.7,20.8V712.4c0,11.5,-9.3,20.7,-20.7,20.7H828.5c-11.4,0,-20.7,-9.2,-20.7,-20.7Z" class="g6_9"/>
<image clip-path="url(#c6_9)" preserveAspectRatio="none" x="808" y="366" width="621" height="367" xlink:href="img/5.jpg"/>
<path fill-rule="evenodd" d="M807.8,148.6c0,-11.8,9.5,-21.4,21.3,-21.4h578.3c11.8,0,21.3,9.6,21.3,21.4V325.5c0,11.8,-9.5,21.4,-21.3,21.4H829.1c-11.8,0,-21.3,-9.6,-21.3,-21.4Z" class="g6_9"/>
<image clip-path="url(#c7_9)" preserveAspectRatio="none" x="808" y="127" width="621" height="220" xlink:href="img/6.jpg"/>
<path fill-rule="evenodd" d="M233.6,385.7c0,-10.4,8.4,-18.8,18.8,-18.8H751.5c10.4,0,18.9,8.4,18.9,18.8V714.3c0,10.4,-8.5,18.9,-18.9,18.9H252.4c-10.4,0,-18.8,-8.5,-18.8,-18.9Z" class="g6_9"/>
<image clip-path="url(#c8_9)" preserveAspectRatio="none" x="234" y="367" width="536" height="366" xlink:href="img/7.jpg"/>
</svg>