<?xml version="1.0" encoding="utf-8"?>
<!-- Generator: Adobe Illustrator 26.0.1, SVG Export Plug-In . SVG Version: 6.00 Build 0)  -->
<svg version="1.1" id="Layer_1" xmlns="http://www.w3.org/2000/svg" xmlns:xlink="http://www.w3.org/1999/xlink" x="0px" y="0px"
	 viewBox="0 0 2000 2000" style="enable-background:new 0 0 2000 2000;" xml:space="preserve">
<style type="text/css">
	.st0{fill:#EBEBEC;}
	.st1{fill:none;}
	.st2{fill:#948A55;stroke:#948A55;stroke-width:5;stroke-linecap:round;stroke-linejoin:round;stroke-miterlimit:10;}
	.st3{fill:#175282;}
</style>
<path class="st0" d="M1089.07,218.58h647.54c19.92,0,29.7,18.68,21.83,41.73l-101.22,296.55c-7.87,23.04-30.39,41.73-50.31,41.73
	H959.37c-19.92,0-29.7-18.68-21.83-41.73l101.22-296.55C1046.62,237.26,1069.15,218.58,1089.07,218.58z"/>
<g>
	<path class="st1" d="M376.29,459.8c0.14,0.14,0.27,0.27,0.41,0.4c-0.34,1.34-0.59,2.7-1.03,4
		c-11.27,33.81-22.57,67.61-33.85,101.42c-1.92,5.76-3.79,11.53-5.79,17.63c27.58,0,54.62,0,81.92,0c0.4-4.03,0.8-7.87,1.16-11.72
		c1.77-18.94,3.51-37.88,5.3-56.82c2.11-22.39,4.35-44.77,6.29-67.18c0.31-3.59,1.18-5.32,4.99-6.07
		c33.11-6.49,66.18-13.22,99.27-19.79c9.34-1.85,18.74-3.4,28.91-5.22c-3.19,4.85-5.91,8.97-9.3,14.11
		c31.04-10.8,60.95-21.2,90.87-31.6c-0.05-0.19-0.1-0.38-0.15-0.57c-34.81,0-69.62,0-104.43,0c-0.06,0.19-0.13,0.38-0.19,0.57
		c6.13,2.93,12.27,5.86,18.59,8.88c-42.08,7.53-83.73,14.97-125.67,22.47c6.73-65.43,13.46-130.97,20.2-196.51
		c-0.44-0.08-0.87-0.15-1.31-0.23c-0.53,1.5-1.09,3-1.6,4.52c-22.21,66.3-44.43,132.6-66.54,198.94c-0.91,2.73-2.31,3.93-4.97,4.7
		c-21.21,6.11-42.48,12.06-63.55,18.64c-31.81,9.93-63.72,19.62-94.07,33.65c-0.49,0.23-1.18,0.03-2.72,0.03
		c75.52-85.69,150.48-170.76,225.45-255.82c-0.39-0.38-0.79-0.76-1.18-1.14C317.82,352.31,192.34,467.54,66.07,583.48
		c22.4,0,43.53,0.03,64.66-0.07c1.21-0.01,2.52-0.91,3.61-1.66c9.39-6.44,18.42-13.47,28.17-19.32
		c60.15-36.12,123.18-66.49,188-93.22C358.96,465.73,367.69,462.92,376.29,459.8z M560.4,583.49c2.25,0,3.72,0,5.19,0
		c21.98,0,43.97-0.26,65.95,0.09c16.24,0.26,31.41-3.99,46.01-10.22c36.44-15.56,57.95-44.18,69.26-81.19
		c3.79-12.42,1.98-23.87-7.89-33.33c-7.53-7.21-16.96-8.64-26.64-8.72c-25.6-0.22-51.2-0.03-76.81-0.14
		c-2.79-0.01-4.12,0.94-5.4,3.34c-22.15,41.53-44.4,83-66.62,124.48C562.56,579.45,561.67,581.12,560.4,583.49z M592.69,449.5
		c-17.16,0-33.81-0.28-50.45,0.08c-18,0.39-32.56,8.17-44.11,21.9c-6.04,7.19-7.86,15.75-8.66,24.71
		c-0.63,7.18,3.75,12.14,7.59,17.47c5.76,7.99,11.67,15.94,16.58,24.44c5.65,9.8,0.8,19.57-10.26,22.28
		c-1.47,0.36-3.01,0.64-4.52,0.66c-14.32,0.12-28.66,0.51-42.97,0.07c-5.78-0.18-9.24,1.29-11.61,6.66
		c-2.2,4.98-5.3,9.56-8.34,14.89c2.46,0,3.97,0,5.48,0c19.47,0,38.95-0.14,58.42,0.07c8.21,0.09,15.58-2.12,22.59-6.14
		c11.33-6.49,19.76-15.93,25.74-27.21c4.66-8.81,3.77-18.04-2.33-26.33c-6.5-8.83-13.37-17.41-19.51-26.49
		c-4.87-7.19-3.61-13.4,2.97-19.2c5.39-4.75,11.67-7.41,18.97-7.41c10.01,0.01,20.03,0.05,30.04-0.06c1.36-0.01,3.43-0.38,3.96-1.29
		C585.9,462.4,589.19,456.03,592.69,449.5z M769.99,562.78c20.87-38.3,41.26-75.72,61.89-113.58c-10.77,0-20.78,0.1-30.79-0.06
		c-2.83-0.05-4.39,0.76-5.8,3.36c-23.02,42.46-46.16,84.86-69.27,127.27c-0.56,1.04-0.98,2.15-1.47,3.26
		c0.64,0.23,0.89,0.4,1.14,0.4c32.83,0.02,65.65,0.04,98.48,0.01c0.86,0,2.15-0.29,2.52-0.89c3.87-6.35,7.59-12.8,11.68-19.77
		C815.37,562.78,793.17,562.78,769.99,562.78z"/>
	<path class="st2" d="M376.29,459.8c-8.6,3.12-17.33,5.93-25.78,9.41c-64.82,26.74-127.86,57.1-188,93.22
		c-9.74,5.85-18.77,12.88-28.17,19.32c-1.09,0.74-2.4,1.65-3.61,1.66c-21.13,0.1-42.25,0.07-64.66,0.07
		C192.34,467.54,317.82,352.31,443.3,237.09c0.39,0.38,0.79,0.76,1.18,1.14c-74.96,85.07-149.93,170.13-225.45,255.82
		c1.55,0,2.23,0.2,2.72-0.03c30.35-14.03,62.26-23.72,94.07-33.65c21.07-6.58,42.34-12.53,63.55-18.64c2.66-0.77,4.06-1.97,4.97-4.7
		c22.11-66.34,44.34-132.63,66.54-198.94c0.51-1.51,1.06-3.01,1.6-4.52c0.44,0.08,0.87,0.15,1.31,0.23
		c-6.74,65.54-13.47,131.08-20.2,196.51c41.93-7.5,83.58-14.95,125.67-22.47c-6.32-3.02-12.46-5.95-18.59-8.88
		c0.06-0.19,0.13-0.38,0.19-0.57c34.81,0,69.62,0,104.43,0c0.05,0.19,0.1,0.38,0.15,0.57c-29.91,10.4-59.82,20.8-90.87,31.6
		c3.39-5.15,6.11-9.27,9.3-14.11c-10.17,1.83-19.57,3.37-28.91,5.22c-33.1,6.57-66.16,13.3-99.27,19.79
		c-3.81,0.75-4.68,2.48-4.99,6.07c-1.94,22.41-4.18,44.79-6.29,67.18c-1.79,18.94-3.53,37.88-5.3,56.82
		c-0.36,3.84-0.76,7.68-1.16,11.72c-27.29,0-54.34,0-81.92,0c2-6.09,3.87-11.87,5.79-17.63c11.28-33.81,22.58-67.61,33.85-101.42
		c0.43-1.3,0.69-2.67,1.03-4c0.14-0.17,0.28-0.34,0.42-0.51C376.85,459.72,376.57,459.76,376.29,459.8z"/>
	<path class="st2" d="M560.4,583.49c1.27-2.37,2.16-4.03,3.05-5.7c22.23-41.48,44.48-82.95,66.62-124.48c1.28-2.4,2.6-3.35,5.4-3.34
		c25.6,0.12,51.21-0.07,76.81,0.14c9.67,0.08,19.11,1.51,26.64,8.72c9.87,9.46,11.69,20.91,7.89,33.33
		c-11.31,37.01-32.81,65.64-69.26,81.19c-14.6,6.23-29.77,10.48-46.01,10.22c-21.98-0.35-43.97-0.09-65.95-0.09
		C564.11,583.49,562.64,583.49,560.4,583.49z M602.03,563.47c12.47,0,24.26,0.04,36.05-0.01c13.82-0.06,26.28-4.04,36.92-13.05
		c12.06-10.22,22.18-22.14,31.06-35.2c5.54-8.14,7.92-16.99,7.78-26.69c-0.18-11.72-6.18-18.23-17.88-18.51
		c-13.07-0.32-26.14-0.08-39.21-0.32c-3.06-0.05-4.66,0.94-6.1,3.64c-13.95,26.06-28.04,52.04-42.09,78.05
		C606.45,555.22,604.38,559.09,602.03,563.47z"/>
	<path class="st2" d="M592.69,449.5c-3.51,6.53-6.79,12.9-10.4,19.09c-0.53,0.91-2.6,1.27-3.96,1.29
		c-10.01,0.11-20.03,0.06-30.04,0.06c-7.3-0.01-13.58,2.66-18.97,7.41c-6.59,5.8-7.84,12.02-2.97,19.2
		c6.14,9.07,13.01,17.65,19.51,26.49c6.1,8.29,6.99,17.53,2.33,26.33c-5.98,11.28-14.4,20.72-25.74,27.21
		c-7.02,4.02-14.38,6.23-22.59,6.14c-19.47-0.21-38.94-0.07-58.42-0.07c-1.51,0-3.02,0-5.48,0c3.04-5.34,6.14-9.92,8.34-14.89
		c2.37-5.36,5.83-6.83,11.61-6.66c14.31,0.44,28.64,0.05,42.97-0.07c1.51-0.01,3.04-0.29,4.52-0.66
		c11.06-2.71,15.92-12.48,10.26-22.28c-4.91-8.51-10.82-16.46-16.58-24.44c-3.84-5.32-8.22-10.29-7.59-17.47
		c0.79-8.96,2.61-17.52,8.66-24.71c11.54-13.72,26.1-21.51,44.11-21.9C558.88,449.22,575.54,449.5,592.69,449.5z"/>
	<path class="st2" d="M769.99,562.78c23.18,0,45.38,0,68.37,0c-4.09,6.97-7.81,13.42-11.68,19.77c-0.36,0.6-1.66,0.89-2.52,0.89
		c-32.83,0.03-65.65,0.01-98.48-0.01c-0.25,0-0.5-0.17-1.14-0.4c0.5-1.11,0.91-2.23,1.47-3.26c23.1-42.42,46.25-84.81,69.27-127.27
		c1.41-2.6,2.96-3.41,5.8-3.36c10.01,0.16,20.02,0.06,30.79,0.06C811.25,487.06,790.86,524.49,769.99,562.78z"/>
	<path class="st1" d="M376.29,459.8c0.28-0.04,0.56-0.07,0.83-0.11c-0.14,0.17-0.28,0.34-0.42,0.51
		C376.57,460.07,376.43,459.93,376.29,459.8z"/>
	<path class="st1" d="M602.03,563.47c2.35-4.37,4.42-8.24,6.51-12.11c14.05-26.01,28.15-51.99,42.09-78.05
		c1.44-2.69,3.04-3.69,6.1-3.64c13.07,0.23,26.15,0,39.21,0.32c11.7,0.29,17.71,6.8,17.88,18.51c0.15,9.71-2.24,18.55-7.78,26.69
		c-8.88,13.06-19,24.98-31.06,35.2c-10.64,9.02-23.1,13-36.92,13.05C626.29,563.5,614.5,563.47,602.03,563.47z"/>
</g>
<g>
	<path class="st3" d="M1250.36,566.33c-29.35-2.22-49.35-21.34-56.7-53.29c-3.75-16.3-3.67-32.75-1.41-49.24
		c3.2-23.36,9.69-45.5,20.73-65.8c9.19-16.9,20.36-31.9,35.02-43.34c12.72-9.92,26.81-14.98,42.43-14.81
		c15.81,0.17,31.63,0,47.44,0.05c10.85,0.04,21.42,1.82,31.39,6.86c16.6,8.39,26.42,23.25,32,42.03
		c4.87,16.38,5.26,33.19,3.28,50.11c-2.91,24.9-9.58,48.45-21.33,70.01c-9.16,16.81-20.26,31.77-34.84,43.17
		c-12.71,9.94-26.79,15.1-42.42,14.84c-7.87-0.13-15.73-0.02-23.6-0.02C1282.37,566.76,1260.98,567.14,1250.36,566.33z
		 M1310.69,386.41c-3.81,0-7.64,0.24-11.44-0.05c-10.91-0.82-19.69,4.08-27.27,12.27c-11.41,12.34-19.27,27.21-24.57,43.79
		c-4.75,14.88-7.93,30.07-6.25,46.05c0.58,5.56,1.92,10.91,4.24,15.89c5.15,11.05,13.82,15.67,24.53,15.93
		c10.54,0.26,21.08,0.17,31.62,0c2.65-0.04,5.39-0.69,7.92-1.62c8.25-3.03,14.45-9.3,19.96-16.48
		c13.41-17.45,21.19-37.83,24.91-60.25c1.8-10.82,2.05-21.65-0.83-32.34c-3.64-13.5-11.48-21.7-24.32-22.82
		C1323.05,386.26,1310.69,386.51,1310.69,386.41z"/>
	<path class="st3" d="M1522.13,299.25c-32.63,0-64.6,0-96.5,0c-0.17-0.4-0.39-0.66-0.33-0.82c4.45-12.96,8.72-25.99,13.48-38.84
		c2.73-7.38,8.67-10.88,16.49-10.96c8.56-0.09,17.13-0.03,25.7-0.03c72.3,0,144.6,0,216.9,0c1.49,0,2.97,0,4.89,0
		c-1.29,3.85-2.42,7.29-3.61,10.71c-3.12,9.03-6.2,18.08-9.43,27.07c-3.21,8.95-8.78,12.83-18.26,12.85
		c-25.82,0.03-51.64,0.01-77.46,0.01c-1.37,0-2.75,0-4.26,0c-5.36,15.62-10.67,31.07-15.97,46.52
		c-25.01,72.9-50.03,145.79-74.94,218.72c-1.03,3.02-2.4,3.97-5.55,3.91c-11.71-0.2-23.47-0.7-35.13,0.08
		c-14.64,0.97-24.34-13.06-19.47-26.97c26.41-75.47,52.21-151.15,78.22-226.77C1518.6,309.76,1520.26,304.77,1522.13,299.25z"/>
	<path class="st3" d="M1062.25,568.46c-5.92,0-11.84,0.03-17.76-0.01c-14.41-0.09-22.86-12.13-18.11-25.94
		c11.44-33.29,22.96-66.56,34.44-99.83c21.89-63.47,43.8-126.93,65.59-190.43c0.95-2.75,2.1-3.62,4.97-3.58
		c11.96,0.18,23.93,0.06,35.9,0.08c15.65,0.03,23.89,11.63,18.78,26.48c-28.75,83.58-57.52,167.15-86.28,250.72
		c-4.38,12.72-8.88,25.4-13.05,38.19c-1.06,3.25-2.33,4.64-5.97,4.42C1074.61,568.19,1068.43,568.46,1062.25,568.46z"/>
</g>
</svg>
