<svg width="371" height="311" viewBox="0 0 371 311" fill="none" xmlns="http://www.w3.org/2000/svg">
<g filter="url(#filter0_d_1412_2)">
<rect x="364" y="176.725" width="239" height="176.725" rx="25.2465" transform="rotate(-180 364 176.725)" fill="#C8C8C8"/>
</g>
<g opacity="0.4">
<mask id="mask0_1412_2" style="mask-type:alpha" maskUnits="userSpaceOnUse" x="125" y="0" width="239" height="177">
<rect x="125" y="1.52588e-05" width="239" height="176.725" rx="25.2465" fill="#C8C8C8"/>
</mask>
<g mask="url(#mask0_1412_2)">
<path d="M231.4 115.304C229.42 103.98 228.972 92.3159 229.657 80.9348C229.714 78.7832 231.529 77.3106 233.684 77.3668C235.838 77.423 237.312 79.2346 237.254 81.3862C236.456 92.2577 237.302 103.299 239.055 113.604C239.508 115.642 237.806 117.624 235.764 118.077C233.723 118.531 231.853 117.342 231.4 115.304ZM235.567 49.6785C235.453 49.1689 235.227 48.1497 235.624 47.5268C247.831 8.45541 276.364 -24.6175 313.735 -42.008C315.664 -42.971 318.044 -41.8957 319.007 -39.9707C319.971 -38.0458 318.892 -35.6675 316.964 -34.7045C281.521 -18.2769 254.69 12.8138 243.164 50.1298C242.596 52.3948 240.158 53.4712 238.4 52.7921C237.266 52.5092 235.906 51.2072 235.567 49.6785ZM261.053 116.204C251.998 75.4379 265.454 32.3461 296.537 3.51928C298.352 2.04675 300.506 2.10292 301.979 3.91451C303.453 5.7261 303.395 7.87774 301.58 9.35028C272.71 36.0816 260.219 76.2855 268.707 114.503C274.366 139.982 289.098 162.911 309.73 178.647C311.6 179.836 311.656 182.497 310.464 184.366C309.273 186.235 306.608 186.292 304.737 185.103C282.633 167.555 267.051 143.211 261.053 116.204ZM246.825 -25.0077C246.598 -26.0269 246.769 -27.6689 247.676 -28.4052C252.895 -33.842 258.227 -38.7691 263.558 -43.6963C265.373 -45.1689 267.641 -44.6031 269.001 -43.3011C270.475 -41.4895 269.907 -39.2245 268.602 -37.8653C263.157 -33.4477 257.825 -28.5205 253.117 -23.1971C251.813 -21.838 249.148 -21.7808 247.788 -23.0828C247.674 -23.5924 246.938 -24.4982 246.825 -25.0077ZM307.275 218.226C307.048 217.207 307.446 216.584 307.73 215.452C308.921 213.583 310.849 212.62 313.23 213.695C341.63 228.241 374.739 232.651 406.38 225.623C434.448 219.389 459.571 204.719 478.915 183.312C480.219 181.953 482.771 181.386 484.244 183.197C485.604 184.5 486.17 187.047 484.355 188.52C464.218 211.173 437.564 226.183 407.454 232.87C374.283 240.238 339.529 235.659 309.372 220.434C308.351 220.661 307.501 219.245 307.275 218.226ZM288.61 110.083C288.271 108.554 288.044 107.535 287.705 106.006C287.252 103.968 288.954 101.986 290.995 101.532C293.037 101.079 295.02 102.777 295.473 104.816C295.699 105.835 296.039 107.363 296.265 108.383C305.999 152.206 349.644 179.941 393.533 170.193C437.421 160.445 465.222 116.841 455.488 73.0178C445.755 29.1947 402.109 1.45912 358.221 11.2071C326.07 18.3481 301.679 43.5497 295.485 75.9385C294.917 78.2035 293.102 79.6761 290.835 79.1103C288.567 78.5446 287.094 76.733 287.662 74.468C294.197 38.795 321.197 10.875 356.41 3.05394C404.381 -7.60081 452.391 22.9083 463.03 70.808C473.669 118.708 443.088 166.672 395.117 177.327C347.26 188.492 299.249 157.982 288.61 110.083ZM325.289 255.932C325.176 255.423 325.062 254.913 325.346 253.781C325.914 251.516 328.353 250.439 330.11 251.119C356.415 258.644 385.047 259.77 412.605 253.65C433.018 249.116 452.129 241.128 468.916 229.913C470.844 228.95 472.999 229.007 474.472 230.818C475.435 232.743 475.377 234.895 473.562 236.367C455.868 248.318 435.736 256.532 414.302 261.293C385.724 267.641 356.071 266.741 328.122 259.046C326.365 258.367 325.515 256.952 325.289 255.932ZM338.07 200.157C337.956 199.648 337.73 198.629 338.127 198.006C338.695 195.741 341.134 194.665 342.891 195.344C361.259 200.889 380.762 201.904 399.645 197.71C432.816 190.342 460.154 168.764 475.305 138.129C476.497 136.26 478.425 135.297 480.806 136.372C482.676 137.561 483.639 139.486 482.561 141.864C466.842 174.764 437.179 197.929 401.966 205.75C381.553 210.284 360.518 209.609 340.903 203.271C339.146 202.592 338.296 201.177 338.07 200.157ZM316.679 103.849C311.699 81.4275 319.93 58.2109 337.569 43.5989C339.384 42.1264 341.652 42.6921 343.012 43.9941C344.485 45.8057 343.917 48.0707 342.613 49.4299C326.675 62.0598 319.919 82.2751 324.333 102.148C330.672 130.684 359.353 148.911 387.931 142.563C416.51 136.216 434.779 107.561 428.441 79.0253C422.103 50.4893 393.421 32.2631 364.843 38.6106C363.312 38.9506 361.781 39.2907 360.25 39.6307C358.209 40.0841 355.828 39.0088 355.375 36.9705C354.922 34.9322 356.001 32.5539 358.042 32.1005C359.573 31.7605 361.614 31.3071 363.145 30.967C395.806 23.7127 428.739 44.2029 436.096 77.325C443.453 110.447 422.801 142.839 389.629 150.207C356.345 157.065 323.922 136.461 316.679 103.849ZM366.72 290.576C366.607 290.067 366.607 290.067 366.494 289.557C366.552 287.406 368.367 285.933 370.521 285.989C386.623 286.156 402.896 284.68 418.206 281.28C419.737 280.94 420.758 280.713 422.289 280.373C424.33 279.92 426.711 280.995 427.164 283.033C427.616 285.071 426.538 287.45 424.497 287.903C422.966 288.243 421.945 288.47 420.414 288.81C404.084 292.437 387.3 294.026 370.575 293.463C368.533 293.917 367.173 292.615 366.72 290.576ZM317.917 -8.71538C317.577 -10.2441 318.259 -11.9995 319.676 -12.8491C329.204 -18.1735 339.581 -22.0826 350.298 -24.4629C394.187 -34.2108 439.425 -18.5926 467.646 16.8467C469.119 18.6583 468.551 20.9232 467.246 22.2824C465.431 23.755 463.164 23.1892 461.804 21.8872C435.68 -11.3443 393.333 -26.0005 351.996 -16.8193C341.789 -14.5523 332.433 -10.87 323.302 -6.16852C321.374 -5.20556 319.106 -5.77132 318.143 -7.69625C318.03 -8.20582 317.917 -8.71538 317.917 -8.71538ZM344.236 97.7278C340.388 80.4024 351.508 62.9606 368.86 59.1068C386.211 55.2529 403.669 66.3471 407.517 83.6726C411.365 100.998 400.245 118.44 382.894 122.294C365.543 126.147 348.085 115.053 344.236 97.7278ZM399.862 85.3728C396.92 72.1239 383.826 63.8033 370.557 66.7503C357.289 69.6974 348.949 82.7787 351.891 96.0275C354.834 109.276 367.928 117.597 381.196 114.65C394.465 111.703 402.805 98.6216 399.862 85.3728ZM317.332 -100.555C316.88 -102.594 318.071 -104.463 320.112 -104.916C324.195 -105.823 328.164 -107.239 332.247 -108.146C359.295 -114.153 386.453 -114.838 413.326 -109.578C415.594 -109.012 417.067 -107.201 416.499 -104.936C415.931 -102.671 414.116 -101.198 411.848 -101.764C386.11 -106.741 359.972 -106.283 333.945 -100.502C329.862 -99.5955 326.29 -98.8021 322.32 -97.3857C320.279 -96.9323 317.898 -98.0076 317.332 -100.555ZM311.221 -128.072C310.768 -130.111 311.959 -131.979 314.001 -132.433C318.083 -133.34 322.053 -134.756 326.135 -135.663C335.832 -137.816 345.131 -139.347 354.543 -140.368C356.698 -140.312 358.568 -139.123 359.021 -137.085C358.963 -134.933 357.772 -133.065 355.73 -132.611C346.318 -131.59 337.019 -130.059 327.833 -128.019C323.75 -127.112 320.178 -126.319 316.209 -124.903C314.054 -124.959 311.673 -126.034 311.221 -128.072ZM312.651 -157.799C312.198 -159.837 313.389 -161.706 315.317 -162.669C316.848 -163.009 317.869 -163.236 319.4 -163.576C358.696 -172.304 398.384 -172.029 436.935 -162.411C439.202 -161.845 440.165 -159.92 439.597 -157.655C439.029 -155.39 437.101 -154.427 434.834 -154.993C396.907 -164.215 358.862 -164.32 320.587 -155.819C319.056 -155.479 318.036 -155.252 316.505 -154.912C315.484 -154.685 313.103 -155.761 312.651 -157.799ZM328.483 -190.19C327.917 -192.738 329.619 -194.72 331.773 -194.664C339.542 -195.854 347.31 -197.045 354.794 -197.103C356.835 -197.556 358.819 -195.858 359.272 -193.82C359.214 -191.668 358.023 -189.8 355.868 -189.856C347.987 -189.175 340.105 -188.494 332.961 -186.907C330.806 -186.963 328.936 -188.151 328.483 -190.19ZM368.4 -193.709C368.287 -194.218 368.287 -194.218 368.174 -194.728C368.231 -196.879 369.933 -198.861 372.088 -198.805C392.896 -199.149 414.27 -196.945 434.453 -192.873C436.721 -192.307 437.684 -190.382 437.626 -188.231C437.058 -185.966 435.13 -185.003 432.975 -185.059C413.416 -188.735 393.176 -190.656 372.367 -190.312C370.723 -190.482 368.853 -191.67 368.4 -193.709ZM364.84 -221.792L364.727 -222.302C364.671 -224.963 366.373 -226.945 368.527 -226.889C381.341 -227.061 394.268 -226.724 407.422 -225.368C409.066 -225.199 410.539 -223.387 410.482 -221.235C410.424 -219.084 408.099 -217.498 406.455 -217.667C393.925 -218.627 381.395 -219.587 368.694 -218.905C366.54 -218.961 365.18 -220.263 364.84 -221.792ZM383.854 -136.184C383.741 -136.694 383.741 -136.694 383.628 -137.203C383.685 -139.355 385.5 -140.828 387.655 -140.771C401.716 -140.151 415.493 -138.399 429.099 -135.004C431.366 -134.439 432.329 -132.514 432.272 -130.362C431.704 -128.097 429.776 -127.134 427.621 -127.19C414.639 -130.189 400.862 -131.941 387.822 -132.788C385.554 -133.353 384.194 -134.655 383.854 -136.184ZM443.456 -31.7863C443.23 -32.8054 443.514 -33.9379 443.911 -34.5608C445.102 -36.4296 447.654 -36.9963 449.525 -35.8077C485.122 -15.3746 510.452 19.1027 519.393 59.3588C519.846 61.3971 518.767 63.7754 516.216 64.3422C513.664 64.9089 511.793 63.7202 511.228 61.1724C502.852 23.4641 478.996 -9.20159 445.156 -28.9555C444.419 -29.8613 443.683 -30.7671 443.456 -31.7863ZM483.308 118.706C483.195 118.196 483.081 117.687 483.479 117.064C487.341 100.699 487.802 83.4861 484.067 66.6703C481.916 56.9884 478.859 48.0429 474.27 39.4373C473.307 37.5124 473.875 35.2474 475.803 34.2844C477.731 33.3215 479.999 33.8872 480.962 35.8122C485.664 44.9273 489.458 54.7786 491.722 64.9701C495.683 82.805 495.449 101.037 491.302 118.534C490.734 120.799 488.806 121.762 486.538 121.196C484.384 121.14 483.534 119.725 483.308 118.706ZM478.799 -77.6004C478.572 -78.6196 478.856 -79.7521 479.253 -80.375C480.445 -82.2438 482.996 -82.8105 484.867 -81.6218C492.973 -76.4709 501.191 -70.8105 508.503 -64.4137C509.863 -63.1117 510.429 -60.5639 509.237 -58.6951C507.933 -57.3359 505.381 -56.7692 503.511 -57.9578C496.312 -63.845 488.604 -69.6188 480.498 -74.7697C479.762 -75.6755 479.025 -76.5813 478.799 -77.6004ZM470.65 -114.29C470.423 -115.309 470.82 -115.932 471.104 -117.064C472.296 -118.933 474.224 -119.896 476.605 -118.821C503.531 -106.086 527.28 -88.3685 547.738 -66.1771C549.212 -64.3655 549.154 -62.2139 547.339 -60.7414C545.524 -59.2688 543.37 -59.325 541.896 -61.1366C522.175 -82.4222 499.162 -99.2341 473.257 -112.195C471.613 -112.365 470.876 -113.27 470.65 -114.29ZM540.255 199.097C540.029 198.077 540.313 196.945 540.71 196.322C554.213 175.143 563.975 151.586 568.691 127.011C569.259 124.746 571.074 123.274 573.342 123.84C575.61 124.405 577.083 126.217 576.515 128.482C571.515 154.189 561.979 178.765 547.569 200.68C546.377 202.549 543.825 203.116 541.955 201.927C541.218 201.022 540.482 200.116 540.255 199.097ZM477.749 -142.602C477.522 -143.621 477.409 -144.131 477.806 -144.753C478.488 -146.509 480.926 -147.585 482.683 -146.906C517.262 -131.059 548.607 -108.077 573.201 -79.3186C574.675 -77.507 574.617 -75.3554 572.802 -73.8828C570.987 -72.4103 568.833 -72.4665 567.359 -74.2781C543.501 -102.131 512.781 -124.717 479.449 -139.771C478.825 -140.167 477.975 -141.583 477.749 -142.602ZM561.679 218.4C561.452 217.381 561.736 216.248 562.134 215.626C566.105 209.396 570.077 203.167 573.425 196.542C574.616 194.673 576.657 194.22 578.925 194.785C580.796 195.974 581.248 198.012 580.68 200.277C576.822 207.016 572.964 213.755 568.992 219.984C567.801 221.853 565.249 222.42 563.379 221.231C562.132 220.438 561.905 219.419 561.679 218.4ZM490.347 -167.858C490.12 -168.877 490.007 -169.386 490.801 -170.632C491.482 -172.388 493.921 -173.464 496.302 -172.389C509.453 -166.22 522.207 -159.428 534.167 -151.39C536.038 -150.201 536.604 -147.653 535.412 -145.785C534.221 -143.916 531.669 -143.349 529.798 -144.538C517.952 -152.066 505.708 -158.971 492.67 -164.631C491.31 -165.933 490.573 -166.839 490.347 -167.858ZM590.251 226.491C590.025 225.472 590.309 224.34 590.706 223.717C602.904 203.897 612.609 182.492 618.799 159.728C619.367 157.463 621.805 156.387 623.562 157.066C625.83 157.632 626.906 160.066 626.225 161.822C619.638 185.208 609.537 207.236 596.941 227.679C595.75 229.548 593.198 230.114 591.327 228.926C591.214 228.416 590.478 227.51 590.251 226.491ZM582.901 178.93C582.787 178.421 582.561 177.402 582.958 176.779C591.358 156.733 596.47 136.348 598.69 115.001C598.747 112.85 601.073 111.264 603.227 111.32C605.382 111.376 606.968 113.697 606.911 115.849C604.293 137.819 598.898 159.336 590.611 179.891C589.93 181.647 587.492 182.723 585.734 182.044C583.977 181.365 583.127 179.95 582.901 178.93ZM512.354 -189.322C512.128 -190.341 512.525 -190.964 512.809 -192.096C514.001 -193.965 515.929 -194.928 518.31 -193.853C552.605 -176.873 582.928 -153.665 608.941 -125.756C610.414 -123.944 610.357 -121.792 608.542 -120.32C606.727 -118.847 604.572 -118.904 603.099 -120.715C577.71 -148.228 547.613 -170.417 514.451 -187.114C513.431 -186.887 512.694 -187.793 512.354 -189.322ZM624.554 224.219C624.328 223.2 624.725 222.577 625.009 221.445C641.578 189.96 652.252 156.041 655.725 121.048C655.783 118.897 658.108 117.311 660.263 117.367C662.417 117.423 664.004 119.744 663.946 121.896C660.189 158.021 649.231 193.072 632.265 225.18C631.074 227.049 629.145 228.012 626.765 226.937C625.518 226.144 624.781 225.238 624.554 224.219ZM575.838 -11.996C575.498 -13.5247 576.179 -15.2802 578.107 -16.2431C580.036 -17.2061 582.303 -16.6404 583.266 -14.7154C594.71 7.87423 602.41 32.8994 606.425 58.2084C606.878 60.2467 605.176 62.2288 603.134 62.6822C601.093 63.1356 599.109 61.4374 598.657 59.3991C595.379 34.9958 587.905 10.9898 576.574 -11.0903C575.951 -11.4865 575.838 -11.996 575.838 -11.996ZM553.605 -128.972C553.379 -129.991 553.663 -131.123 554.457 -132.369C555.648 -134.238 558.313 -134.295 560.184 -133.106C572.596 -123.03 583.591 -112.105 594.302 -100.046C595.775 -98.2348 595.718 -96.0832 593.903 -94.6107C592.088 -93.1382 589.933 -93.1943 588.46 -95.0059C578.373 -106.668 567.378 -117.594 555.078 -127.16C553.945 -127.443 553.831 -127.953 553.605 -128.972ZM543.715 -204.843C543.489 -205.862 543.773 -206.994 544.17 -207.617C545.361 -209.486 547.913 -210.053 549.783 -208.864C574.384 -194.544 596.886 -177.619 617.289 -158.088C618.649 -156.786 618.705 -154.125 617.4 -152.766C616.096 -151.407 613.431 -151.35 612.071 -152.652C592.291 -171.786 569.789 -188.711 545.925 -202.125C544.678 -202.918 543.941 -203.823 543.715 -204.843ZM625.159 135.323C625.046 134.814 624.933 134.304 625.33 133.681C626.523 127 627.604 119.808 628.287 113.24C628.345 111.088 630.16 109.616 632.314 109.672C634.469 109.728 635.942 111.54 635.884 113.691C635.314 120.769 634.234 127.96 633.04 134.642C632.473 136.907 630.658 138.38 628.39 137.814C626.746 137.644 625.499 136.852 625.159 135.323ZM595.125 -36.0642C594.786 -37.5929 595.467 -39.3483 596.885 -40.1979C598.813 -41.1609 601.08 -40.5952 602.044 -38.6702C612.695 -19.6476 621.531 0.84762 627.305 22.0229C627.758 24.0612 626.68 26.4395 624.638 26.8929C622.597 27.3463 620.216 26.271 619.763 24.2327C614.102 3.567 606.003 -16.0224 595.465 -34.5355C595.238 -35.5546 595.238 -35.5546 595.125 -36.0642ZM627.457 63.6963C626.723 57.9777 626.101 52.7687 624.97 47.673C624.517 45.6347 626.219 43.6526 628.26 43.1992C630.301 42.7458 632.285 44.444 632.738 46.4823C633.87 51.578 634.604 57.2967 635.339 63.0153C635.792 65.0536 634.09 67.0357 632.048 67.4891C629.781 66.9233 627.91 65.7346 627.457 63.6963ZM667.089 198.731C666.976 198.221 666.749 197.202 667.146 196.579C673.163 180.271 677.536 163.793 680.775 147.032C681.343 144.767 683.158 143.295 685.426 143.861C687.693 144.426 689.167 146.238 688.599 148.503C685.473 165.773 680.703 182.874 674.686 199.182C674.005 200.938 671.68 202.523 669.809 201.335C668.052 200.656 667.315 199.75 667.089 198.731ZM581.99 -213.344C581.763 -214.363 582.047 -215.495 582.445 -216.118C583.636 -217.987 586.188 -218.554 588.058 -217.365C596.901 -211.308 605.856 -204.742 614.414 -197.553C616.285 -196.364 616.341 -193.703 615.149 -191.834C613.958 -189.966 611.293 -189.908 609.422 -191.097C600.977 -197.777 592.532 -204.456 583.69 -210.513C582.84 -211.928 582.103 -212.834 581.99 -213.344ZM619.625 -51.1306C619.286 -52.6593 619.967 -54.4147 621.385 -55.2643C623.313 -56.2273 625.58 -55.6616 626.543 -53.7366C641.218 -28.6563 652.149 -1.14044 658.6 27.9051C660.637 37.0774 662.277 46.8725 663.294 56.2715C663.747 58.3098 662.045 60.2919 660.003 60.7453C657.962 61.1987 655.978 59.5005 655.526 57.4622C654.509 48.0632 652.982 38.7776 651.058 30.1149C644.833 2.08849 634.639 -24.5215 620.078 -49.0923C619.738 -50.621 619.738 -50.621 619.625 -51.1306ZM647.241 -59.403C646.901 -60.9318 647.582 -62.6872 649 -63.5368C650.928 -64.4998 653.196 -63.934 654.159 -62.0091C658.521 -54.4227 662.487 -46.2134 665.829 -38.4003C666.792 -36.4754 665.713 -34.097 663.785 -33.134C661.857 -32.1711 659.476 -33.2464 658.513 -35.1713C655.171 -42.9844 651.319 -50.6842 646.957 -58.2706C647.354 -58.8935 647.241 -59.403 647.241 -59.403ZM668.086 -13.7704C667.633 -15.8086 668.825 -17.6774 670.866 -18.1308C672.908 -18.5842 675.175 -18.0184 675.741 -15.4706C682.594 3.32638 687.518 23.0863 690.288 42.79C690.741 44.8283 689.039 46.8104 686.997 47.2638C684.956 47.7172 682.972 46.019 682.52 43.9807C679.239 24.3903 674.428 5.13995 668.086 -13.7704ZM680.069 -58.6737C679.729 -60.2025 680.41 -61.9579 682.338 -62.9208C684.266 -63.8838 686.647 -62.8085 687.61 -60.8836C699.393 -36.7652 708.341 -10.9476 714.226 15.5501L714.905 18.6075C715.358 20.6458 714.166 22.5146 711.615 23.0813C709.573 23.5347 707.703 22.3461 707.137 19.7982L706.571 17.2503C700.799 -8.73778 691.965 -34.0458 680.295 -57.6546C680.182 -58.1642 680.182 -58.1642 680.069 -58.6737ZM716.123 -45.8281C715.67 -47.8664 716.862 -49.7351 718.393 -50.0752C720.321 -51.0381 722.702 -49.9628 723.665 -48.0379C727.459 -38.1865 731.254 -28.3351 734.028 -18.257C734.481 -16.2188 733.402 -13.8405 731.361 -13.3871C729.32 -12.9337 726.939 -14.009 726.486 -16.0473C723.712 -26.1253 720.031 -35.4671 716.236 -45.3185L716.123 -45.8281Z" fill="#3E3E3E"/>
</g>
</g>
<rect x="343.803" width="176.725" height="40.3944" transform="rotate(90 343.803 0)" fill="#ECECEC"/>
<rect x="145.197" y="20.1972" width="40.3944" height="21.8803" rx="6.73239" fill="#3E3E3E"/>
<rect x="192.324" y="20.1972" width="28.6127" height="5.04929" rx="2.52465" fill="#3E3E3E"/>
<rect x="192.324" y="28.6126" width="40.3944" height="5.04929" rx="2.52465" fill="#3E3E3E"/>
<rect x="192.324" y="37.0282" width="23.5634" height="5.04929" rx="2.52465" fill="#3E3E3E"/>
<g filter="url(#filter1_d_1412_2)">
<path d="M108.465 74.3121C112.319 67.8486 121.681 67.8486 125.535 74.3121C128.714 79.6417 135.945 80.787 140.615 76.7005C146.278 71.7444 155.181 74.6372 156.85 81.9755C158.226 88.0265 164.749 91.3504 170.453 88.9069C177.371 85.9435 184.944 91.4458 184.264 98.9406C183.702 105.121 188.88 110.298 195.06 109.736C202.554 109.056 208.057 116.629 205.093 123.547C202.65 129.251 205.974 135.774 212.025 137.15C219.363 138.819 222.256 147.722 217.3 153.385C213.213 158.055 214.358 165.287 219.688 168.465C226.152 172.32 226.152 181.681 219.688 185.535C214.358 188.714 213.213 195.945 217.3 200.615C222.256 206.278 219.363 215.181 212.025 216.85C205.974 218.226 202.65 224.749 205.093 230.454C208.057 237.371 202.554 244.944 195.06 244.264C188.88 243.702 183.702 248.88 184.264 255.06C184.944 262.554 177.371 268.057 170.453 265.093C164.749 262.65 158.226 265.974 156.85 272.025C155.181 279.363 146.278 282.256 140.615 277.3C135.945 273.213 128.714 274.359 125.535 279.688C121.681 286.152 112.319 286.152 108.465 279.688C105.286 274.359 98.0549 273.213 93.3851 277.3C87.7218 282.256 78.8188 279.363 77.1502 272.025C75.7743 265.974 69.2507 262.65 63.5466 265.093C56.629 268.057 49.0557 262.554 49.7364 255.06C50.2976 248.88 45.1205 243.702 38.9405 244.264C31.4457 244.944 25.9434 237.371 28.9068 230.454C31.3503 224.749 28.0263 218.226 21.9754 216.85C14.6371 215.181 11.7443 206.278 16.7003 200.615C20.7869 195.945 19.6416 188.714 14.3119 185.535C7.84843 181.681 7.84843 172.32 14.3119 168.465C19.6416 165.287 20.7869 158.055 16.7003 153.385C11.7443 147.722 14.6371 138.819 21.9754 137.15C28.0263 135.774 31.3503 129.251 28.9068 123.547C25.9434 116.629 31.4457 109.056 38.9405 109.736C45.1205 110.298 50.2976 105.121 49.7364 98.9406C49.0557 91.4458 56.629 85.9435 63.5466 88.9069C69.2507 91.3504 75.7743 88.0265 77.1502 81.9755C78.8188 74.6372 87.7218 71.7444 93.3851 76.7005C98.0549 80.787 105.286 79.6417 108.465 74.3121Z" fill="#AE9FCE"/>
</g>
<path d="M53.0661 192.22V148.163H55.8885V192.22H53.0661ZM62.5659 161.38C62.3594 159.636 61.5219 158.282 60.0533 157.319C58.5847 156.355 56.7834 155.873 54.6494 155.873C53.0891 155.873 51.7237 156.125 50.5535 156.63C49.3947 157.135 48.4883 157.829 47.8343 158.713C47.1918 159.596 46.8706 160.6 46.8706 161.724C46.8706 162.665 47.0943 163.474 47.5418 164.151C48.0007 164.816 48.5858 165.373 49.2972 165.82C50.0085 166.256 50.7543 166.618 51.5344 166.905C52.3146 167.18 53.0317 167.404 53.6857 167.576L57.2653 168.539C58.1832 168.78 59.2043 169.113 60.3286 169.538C61.4645 169.962 62.5487 170.542 63.5813 171.276C64.6254 171.999 65.4859 172.928 66.1628 174.064C66.8397 175.2 67.1782 176.594 67.1782 178.246C67.1782 180.15 66.6791 181.871 65.6809 183.409C64.6942 184.946 63.2486 186.168 61.344 187.074C59.4509 187.981 57.1506 188.434 54.4429 188.434C51.9188 188.434 49.7331 188.027 47.886 187.212C46.0502 186.398 44.6046 185.262 43.5491 183.805C42.505 182.347 41.9141 180.655 41.7765 178.728H46.1822C46.2969 180.059 46.7444 181.16 47.5245 182.032C48.3162 182.892 49.3144 183.535 50.5191 183.959C51.7352 184.372 53.0432 184.579 54.4429 184.579C56.0721 184.579 57.5349 184.315 58.8314 183.787C60.1279 183.248 61.1547 182.502 61.9119 181.55C62.6692 180.586 63.0478 179.462 63.0478 178.177C63.0478 177.007 62.7208 176.054 62.0668 175.32C61.4129 174.586 60.5524 173.989 59.4854 173.53C58.4184 173.071 57.2653 172.67 56.0262 172.326L51.6893 171.087C48.9358 170.295 46.7558 169.165 45.1496 167.696C43.5433 166.228 42.7402 164.306 42.7402 161.931C42.7402 159.957 43.2737 158.237 44.3407 156.768C45.4192 155.288 46.8648 154.141 48.6776 153.326C50.5018 152.5 52.5383 152.087 54.7871 152.087C57.0588 152.087 59.0781 152.494 60.8449 153.309C62.6118 154.112 64.0115 155.213 65.0441 156.613C66.0882 158.013 66.6389 159.602 66.6963 161.38H62.5659Z" fill="#333333"/>
<path d="M79.7856 212.644V203.194L101.867 182.749C103.744 180.931 105.319 179.296 106.592 177.842C107.884 176.388 108.863 174.964 109.53 173.571C110.196 172.157 110.529 170.633 110.529 168.997C110.529 167.18 110.115 165.615 109.287 164.302C108.459 162.97 107.329 161.95 105.895 161.243C104.461 160.516 102.836 160.153 101.018 160.153C99.1203 160.153 97.4645 160.536 96.051 161.304C94.6375 162.071 93.5471 163.172 92.7797 164.605C92.0124 166.039 91.6287 167.745 91.6287 169.724H79.1799C79.1799 165.665 80.0986 162.142 81.9362 159.153C83.7737 156.165 86.3483 153.853 89.6599 152.217C92.9716 150.581 96.788 149.764 101.109 149.764C105.552 149.764 109.419 150.551 112.71 152.126C116.022 153.681 118.596 155.842 120.434 158.608C122.271 161.374 123.19 164.545 123.19 168.119C123.19 170.461 122.726 172.773 121.797 175.055C120.888 177.337 119.263 179.871 116.92 182.658C114.578 185.424 111.276 188.746 107.016 192.623L97.9592 201.498V201.922H124.008V212.644H79.7856ZM156.168 213.492C151.887 213.492 148.07 212.705 144.718 211.13C141.386 209.555 138.741 207.384 136.782 204.617C134.824 201.851 133.804 198.681 133.723 195.107H146.445C146.586 197.51 147.596 199.458 149.474 200.952C151.352 202.447 153.583 203.194 156.168 203.194C158.227 203.194 160.045 202.739 161.62 201.831C163.215 200.902 164.457 199.62 165.345 197.984C166.254 196.328 166.708 194.43 166.708 192.29C166.708 190.109 166.244 188.191 165.315 186.535C164.406 184.879 163.144 183.587 161.529 182.658C159.913 181.729 158.066 181.254 155.986 181.234C154.169 181.234 152.402 181.608 150.685 182.355C148.989 183.102 147.666 184.122 146.717 185.414L135.056 183.324L137.994 150.612H175.916V161.334H148.807L147.202 176.872H147.565C148.656 175.338 150.302 174.066 152.503 173.056C154.704 172.046 157.167 171.542 159.893 171.542C163.629 171.542 166.961 172.42 169.889 174.177C172.817 175.933 175.129 178.347 176.825 181.416C178.521 184.465 179.359 187.979 179.339 191.957C179.359 196.136 178.39 199.852 176.431 203.103C174.493 206.334 171.777 208.878 168.283 210.736C164.81 212.573 160.772 213.492 156.168 213.492Z" fill="#333333"/>
<defs>
<filter id="filter0_d_1412_2" x="118.268" y="-7.62939e-05" width="252.465" height="190.19" filterUnits="userSpaceOnUse" color-interpolation-filters="sRGB">
<feFlood flood-opacity="0" result="BackgroundImageFix"/>
<feColorMatrix in="SourceAlpha" type="matrix" values="0 0 0 0 0 0 0 0 0 0 0 0 0 0 0 0 0 0 127 0" result="hardAlpha"/>
<feOffset dy="6.73239"/>
<feGaussianBlur stdDeviation="3.3662"/>
<feColorMatrix type="matrix" values="0 0 0 0 0 0 0 0 0 0 0 0 0 0 0 0 0 0 0.25 0"/>
<feBlend mode="normal" in2="BackgroundImageFix" result="effect1_dropShadow_1412_2"/>
<feBlend mode="normal" in="SourceGraphic" in2="effect1_dropShadow_1412_2" result="shape"/>
</filter>
<filter id="filter1_d_1412_2" x="0.464294" y="69.4644" width="233.071" height="241.071" filterUnits="userSpaceOnUse" color-interpolation-filters="sRGB">
<feFlood flood-opacity="0" result="BackgroundImageFix"/>
<feColorMatrix in="SourceAlpha" type="matrix" values="0 0 0 0 0 0 0 0 0 0 0 0 0 0 0 0 0 0 127 0" result="hardAlpha"/>
<feMorphology radius="1" operator="erode" in="SourceAlpha" result="effect1_dropShadow_1412_2"/>
<feOffset dy="17"/>
<feGaussianBlur stdDeviation="5"/>
<feColorMatrix type="matrix" values="0 0 0 0 0 0 0 0 0 0 0 0 0 0 0 0 0 0 0.13 0"/>
<feBlend mode="normal" in2="BackgroundImageFix" result="effect1_dropShadow_1412_2"/>
<feBlend mode="normal" in="SourceGraphic" in2="effect1_dropShadow_1412_2" result="shape"/>
</filter>
</defs>
</svg>
