<svg width="465" height="113" viewBox="0 0 465 113" fill="none" xmlns="http://www.w3.org/2000/svg">
<g filter="url(#filter0_d_1412_21)">
<path fill-rule="evenodd" clip-rule="evenodd" d="M192 0C183.716 0 177 6.71573 177 15V90C177 98.2843 183.716 105 192 105H304C312.284 105 319 98.2843 319 90C319 98.2843 325.716 105 334 105H446C454.284 105 461 98.2843 461 90V15C461 6.71573 454.284 0 446 0H334C325.716 0 319 6.71573 319 15C319 6.71573 312.284 0 304 0H192Z" fill="#C8C8C8"/>
</g>
<g filter="url(#filter1_d_1412_21)">
<rect x="334" y="17" width="112" height="71.6279" rx="10" fill="#333234"/>
</g>
<rect x="334" y="27" width="112" height="13" fill="#ECECEC"/>
<g filter="url(#filter2_d_1412_21)">
<rect x="192" y="17" width="112" height="71.6279" rx="10" fill="#866DBA"/>
</g>
<rect x="203" y="27" width="38" height="51" rx="5" fill="#ECECEC" fill-opacity="0.4"/>
<g filter="url(#filter3_d_1412_21)">
<rect x="146" y="105" width="142" height="105" rx="15" transform="rotate(-180 146 105)" fill="#C8C8C8"/>
</g>
<g opacity="0.4">
<mask id="mask0_1412_21" style="mask-type:alpha" maskUnits="userSpaceOnUse" x="4" y="0" width="142" height="105">
<rect x="4" width="142" height="105" rx="15" fill="black"/>
</mask>
<g mask="url(#mask0_1412_21)">
<path d="M67.2167 68.5068C66.0405 61.7788 65.7739 54.8488 66.1811 48.0868C66.2153 46.8084 67.2936 45.9335 68.5737 45.9669C69.8538 46.0003 70.7292 47.0766 70.695 48.355C70.2206 54.8142 70.7231 61.3742 71.7648 67.4967C72.0338 68.7077 71.0227 69.8853 69.8099 70.1547C68.597 70.4241 67.4857 69.7179 67.2167 68.5068ZM69.6924 29.5161C69.6251 29.2133 69.4906 28.6078 69.7266 28.2377C76.9791 5.02371 93.9318 -14.6263 116.136 -24.9588C117.281 -25.5309 118.696 -24.892 119.268 -23.7483C119.84 -22.6046 119.2 -21.1916 118.054 -20.6194C96.9957 -10.8591 81.0541 7.61324 74.2063 29.7843C73.8688 31.13 72.42 31.7695 71.3759 31.366C70.7022 31.1979 69.8941 30.4243 69.6924 29.5161ZM84.8346 69.0415C79.455 44.8208 87.4496 19.2182 105.917 2.09094C106.996 1.21605 108.276 1.24942 109.151 2.32576C110.026 3.4021 109.992 4.68049 108.914 5.55538C91.7606 21.4376 84.3394 45.3245 89.3827 68.0313C92.745 83.1692 101.498 96.7921 113.756 106.142C114.867 106.848 114.9 108.429 114.192 109.54C113.484 110.65 111.901 110.684 110.79 109.978C97.6563 99.5515 88.3986 85.0876 84.8346 69.0415ZM76.3812 -14.8582C76.2467 -15.4637 76.3481 -16.4393 76.8873 -16.8768C79.9879 -20.107 83.1556 -23.0344 86.3234 -25.9619C87.4018 -26.8367 88.7491 -26.5006 89.5572 -25.727C90.4326 -24.6507 90.0952 -23.305 89.3201 -22.4974C86.0851 -19.8727 82.9173 -16.9453 80.1199 -13.7824C79.3448 -12.9749 77.7615 -12.9409 76.9534 -13.7145C76.8861 -14.0172 76.4484 -14.5554 76.3812 -14.8582ZM112.297 129.657C112.163 129.052 112.399 128.682 112.567 128.009C113.275 126.899 114.421 126.326 115.835 126.965C132.709 135.608 152.381 138.228 171.18 134.052C187.856 130.348 202.783 121.632 214.276 108.913C215.051 108.106 216.567 107.769 217.442 108.845C218.25 109.619 218.587 111.133 217.508 112.008C205.544 125.467 189.707 134.385 171.818 138.358C152.109 142.736 131.461 140.015 113.543 130.969C112.937 131.104 112.432 130.263 112.297 129.657ZM101.208 65.4048C101.006 64.4965 100.872 63.891 100.67 62.9828C100.401 61.7717 101.412 60.5941 102.625 60.3247C103.838 60.0553 105.016 61.0643 105.285 62.2753C105.42 62.8809 105.622 63.7891 105.756 64.3946C111.539 90.4318 137.471 106.911 163.547 101.119C189.623 95.3273 206.14 69.4201 200.357 43.383C194.574 17.3458 168.642 0.866914 142.566 6.6586C123.464 10.9013 108.973 25.8747 105.293 45.1183C104.955 46.464 103.877 47.3389 102.529 47.0028C101.182 46.6666 100.307 45.5903 100.644 44.2446C104.527 23.0498 120.569 6.46128 141.49 1.81446C169.992 -4.51598 198.517 13.6108 204.838 42.07C211.159 70.5292 192.99 99.0272 164.488 105.358C136.054 111.991 107.529 93.864 101.208 65.4048ZM123 152.06C122.933 151.757 122.866 151.455 123.034 150.782C123.372 149.436 124.821 148.797 125.865 149.2C141.493 153.671 158.505 154.341 174.878 150.704C187.007 148.01 198.361 143.264 208.335 136.601C209.481 136.029 210.761 136.063 211.636 137.139C212.208 138.283 212.174 139.561 211.096 140.436C200.582 147.536 188.622 152.417 175.887 155.245C158.907 159.017 141.289 158.482 124.684 153.91C123.639 153.507 123.135 152.666 123 152.06ZM130.594 118.922C130.526 118.619 130.392 118.014 130.628 117.644C130.965 116.298 132.414 115.658 133.458 116.062C144.371 119.357 155.959 119.96 167.178 117.468C186.887 113.09 203.129 100.27 212.131 82.068C212.839 80.9577 213.985 80.3855 215.399 81.0244C216.511 81.7307 217.083 82.8744 216.442 84.2874C207.103 103.835 189.479 117.598 168.557 122.245C156.429 124.939 143.931 124.537 132.277 120.772C131.233 120.368 130.728 119.528 130.594 118.922ZM117.884 61.7008C114.926 48.3795 119.816 34.5856 130.296 25.9039C131.375 25.029 132.722 25.3652 133.53 26.1388C134.406 27.2151 134.068 28.5608 133.293 29.3684C123.824 36.8723 119.81 48.8831 122.432 60.6907C126.198 77.6451 143.239 88.4741 160.219 84.7027C177.198 80.9314 188.053 63.9067 184.287 46.9522C180.521 29.9978 163.481 19.1689 146.501 22.9402C145.591 23.1422 144.682 23.3442 143.772 23.5463C142.559 23.8157 141.145 23.1768 140.876 21.9657C140.607 20.7547 141.247 19.3416 142.46 19.0723C143.37 18.8702 144.583 18.6008 145.492 18.3988C164.898 14.0887 184.464 26.2628 188.835 45.9421C193.206 65.6213 180.936 84.8667 161.227 89.2441C141.452 93.3188 122.188 81.0773 117.884 61.7008ZM147.616 172.644C147.549 172.341 147.549 172.341 147.482 172.038C147.516 170.76 148.594 169.885 149.875 169.918C159.441 170.017 169.11 169.141 178.206 167.12C179.116 166.918 179.722 166.783 180.632 166.581C181.845 166.312 183.259 166.951 183.528 168.162C183.797 169.373 183.157 170.786 181.944 171.055C181.034 171.257 180.428 171.392 179.518 171.594C169.815 173.749 159.844 174.693 149.906 174.359C148.693 174.628 147.885 173.855 147.616 172.644ZM118.62 -5.17819C118.418 -6.08646 118.823 -7.12944 119.666 -7.63424C125.326 -10.7977 131.492 -13.1202 137.859 -14.5344C163.935 -20.3261 190.813 -11.0467 207.58 10.0093C208.456 11.0857 208.118 12.4314 207.343 13.2389C206.265 14.1138 204.917 13.7777 204.109 13.0041C188.588 -6.74013 163.428 -15.448 138.868 -9.99308C132.804 -8.64618 127.245 -6.45834 121.82 -3.66499C120.674 -3.09285 119.327 -3.429 118.755 -4.57268C118.687 -4.87544 118.62 -5.17819 118.62 -5.17819ZM134.258 58.0642C131.971 47.7704 138.578 37.4076 148.887 35.1178C159.197 32.8281 169.569 39.4196 171.856 49.7134C174.142 60.0072 167.535 70.37 157.226 72.6598C146.917 74.9495 136.544 68.358 134.258 58.0642ZM167.307 50.7236C165.559 42.8519 157.78 37.9082 149.896 39.6592C142.013 41.4102 137.057 49.1823 138.806 57.054C140.554 64.9257 148.334 69.8694 156.217 68.1184C164.101 66.3674 169.056 58.5953 167.307 50.7236ZM118.273 -59.7443C118.004 -60.9553 118.712 -62.0656 119.925 -62.335C122.35 -62.8738 124.709 -63.7153 127.134 -64.254C143.204 -67.8233 159.34 -68.2304 175.307 -65.105C176.654 -64.7689 177.529 -63.6926 177.192 -62.3468C176.854 -61.0011 175.776 -60.1262 174.429 -60.4623C159.136 -63.4196 143.607 -63.1473 128.143 -59.7127C125.717 -59.1739 123.595 -58.7025 121.236 -57.861C120.024 -57.5916 118.609 -58.2305 118.273 -59.7443ZM114.642 -76.0932C114.373 -77.3042 115.08 -78.4146 116.293 -78.6839C118.719 -79.2227 121.077 -80.0642 123.503 -80.603C129.264 -81.8825 134.789 -82.792 140.381 -83.3987C141.661 -83.3653 142.773 -82.6591 143.042 -81.448C143.007 -80.1697 142.3 -79.0594 141.087 -78.79C135.495 -78.1833 129.969 -77.2738 124.512 -76.0616C122.086 -75.5228 119.964 -75.0514 117.605 -74.2099C116.325 -74.2433 114.911 -74.8822 114.642 -76.0932ZM115.491 -93.7551C115.222 -94.9661 115.93 -96.0764 117.076 -96.6485C117.985 -96.8506 118.592 -96.9853 119.501 -97.1873C142.848 -102.373 166.429 -102.21 189.334 -96.4952C190.681 -96.1591 191.253 -95.0154 190.916 -93.6697C190.578 -92.324 189.433 -91.7518 188.085 -92.088C165.551 -97.5669 142.948 -97.6295 120.207 -92.5786C119.297 -92.3766 118.691 -92.2419 117.781 -92.0398C117.175 -91.9051 115.76 -92.544 115.491 -93.7551ZM124.898 -113C124.562 -114.514 125.573 -115.691 126.853 -115.658C131.468 -116.365 136.084 -117.073 140.53 -117.107C141.743 -117.377 142.922 -116.368 143.191 -115.157C143.157 -113.878 142.449 -112.768 141.169 -112.801C136.486 -112.397 131.803 -111.992 127.558 -111.049C126.278 -111.083 125.167 -111.789 124.898 -113ZM148.614 -115.09C148.547 -115.393 148.547 -115.393 148.48 -115.696C148.514 -116.974 149.525 -118.152 150.805 -118.119C163.168 -118.323 175.868 -117.014 187.859 -114.594C189.206 -114.258 189.779 -113.114 189.744 -111.836C189.407 -110.49 188.261 -109.918 186.981 -109.951C175.36 -112.136 163.335 -113.277 150.972 -113.072C149.995 -113.173 148.883 -113.879 148.614 -115.09ZM146.499 -131.776L146.432 -132.079C146.399 -133.66 147.41 -134.838 148.69 -134.804C156.303 -134.907 163.984 -134.707 171.799 -133.901C172.776 -133.8 173.651 -132.724 173.617 -131.445C173.583 -130.167 172.201 -129.225 171.224 -129.325C163.78 -129.896 156.335 -130.466 148.789 -130.061C147.509 -130.094 146.701 -130.868 146.499 -131.776ZM157.796 -80.9128C157.729 -81.2156 157.729 -81.2156 157.662 -81.5183C157.696 -82.7967 158.774 -83.6716 160.054 -83.6382C168.409 -83.2699 176.594 -82.2287 184.678 -80.2119C186.025 -79.8758 186.597 -78.7321 186.563 -77.4537C186.226 -76.108 185.08 -75.5358 183.8 -75.5692C176.087 -77.3506 167.901 -78.3918 160.153 -78.8948C158.806 -79.231 157.998 -80.0045 157.796 -80.9128ZM193.208 -18.8856C193.074 -19.4911 193.243 -20.164 193.479 -20.5341C194.186 -21.6444 195.702 -21.9811 196.814 -21.2749C217.964 -9.13473 233.013 11.3497 238.326 35.2676C238.595 36.4786 237.954 37.8917 236.438 38.2284C234.922 38.5651 233.81 37.8589 233.474 36.3451C228.498 13.941 214.324 -5.46707 194.218 -17.2037C193.781 -17.7419 193.343 -18.2801 193.208 -18.8856ZM216.886 70.5281C216.819 70.2253 216.751 69.9225 216.987 69.5524C219.282 59.8296 219.556 49.6026 217.337 39.6116C216.059 33.8592 214.242 28.5443 211.516 23.4314C210.944 22.2877 211.281 20.942 212.427 20.3698C213.572 19.7977 214.92 20.1338 215.492 21.2775C218.286 26.6932 220.54 32.5463 221.885 38.6014C224.239 49.198 224.099 60.0305 221.636 70.4261C221.298 71.7719 220.153 72.344 218.805 72.0079C217.525 71.9745 217.02 71.1336 216.886 70.5281ZM214.207 -46.1057C214.072 -46.7112 214.241 -47.3841 214.477 -47.7542C215.185 -48.8645 216.701 -49.2012 217.812 -48.495C222.628 -45.4346 227.511 -42.0715 231.855 -38.2709C232.663 -37.4974 233 -35.9836 232.292 -34.8733C231.517 -34.0657 230.001 -33.729 228.889 -34.4352C224.612 -37.933 220.033 -41.3635 215.217 -44.4239C214.779 -44.962 214.341 -45.5002 214.207 -46.1057ZM209.365 -67.9043C209.231 -68.5098 209.467 -68.8799 209.635 -69.5528C210.343 -70.6631 211.489 -71.2352 212.903 -70.5963C228.901 -63.0303 243.012 -52.5035 255.167 -39.3186C256.042 -38.2423 256.008 -36.9639 254.93 -36.089C253.851 -35.2141 252.571 -35.2475 251.696 -36.3239C239.978 -48.9706 226.306 -58.9592 210.914 -66.6599C209.937 -66.7606 209.5 -67.2988 209.365 -67.9043ZM250.721 118.292C250.586 117.686 250.755 117.013 250.991 116.643C259.014 104.06 264.814 90.0638 267.616 75.4629C267.953 74.1171 269.032 73.2422 270.379 73.5784C271.726 73.9145 272.602 74.9909 272.264 76.3366C269.293 91.6103 263.628 106.212 255.066 119.233C254.358 120.343 252.842 120.68 251.731 119.974C251.293 119.435 250.855 118.897 250.721 118.292ZM213.583 -84.7258C213.449 -85.3313 213.381 -85.6341 213.617 -86.0042C214.022 -87.0471 215.471 -87.6866 216.515 -87.2831C237.06 -77.8678 255.683 -64.2133 270.296 -47.1265C271.171 -46.0502 271.137 -44.7718 270.058 -43.8969C268.98 -43.022 267.7 -43.0554 266.825 -44.1318C252.649 -60.6803 234.397 -74.0994 214.593 -83.0439C214.223 -83.2794 213.718 -84.1203 213.583 -84.7258ZM263.449 129.761C263.315 129.155 263.484 128.482 263.72 128.112C266.079 124.411 268.439 120.71 270.428 116.774C271.136 115.663 272.349 115.394 273.696 115.73C274.808 116.436 275.076 117.647 274.739 118.993C272.447 122.997 270.154 127.001 267.795 130.702C267.087 131.812 265.571 132.149 264.459 131.443C263.718 130.972 263.584 130.366 263.449 129.761ZM221.068 -99.7314C220.933 -100.337 220.866 -100.64 221.338 -101.38C221.743 -102.423 223.192 -103.062 224.606 -102.423C232.42 -98.7581 239.998 -94.7227 247.104 -89.9471C248.215 -89.2409 248.551 -87.7271 247.843 -86.6168C247.135 -85.5065 245.619 -85.1697 244.508 -85.876C237.469 -90.3488 230.195 -94.4516 222.448 -97.8141C221.64 -98.5877 221.202 -99.1258 221.068 -99.7314ZM280.425 134.568C280.291 133.962 280.46 133.29 280.696 132.919C287.943 121.144 293.709 108.426 297.387 94.9014C297.724 93.5557 299.173 92.9162 300.217 93.3196C301.564 93.6558 302.204 95.1022 301.799 96.1452C297.886 110.04 291.884 123.128 284.4 135.274C283.692 136.384 282.176 136.721 281.065 136.014C280.998 135.712 280.56 135.173 280.425 134.568ZM276.058 106.31C275.991 106.007 275.856 105.402 276.092 105.032C281.083 93.1218 284.12 81.0102 285.439 68.3272C285.473 67.0488 286.855 66.1066 288.135 66.14C289.415 66.1734 290.358 67.5525 290.324 68.8308C288.768 81.884 285.563 94.6683 280.639 106.881C280.235 107.924 278.786 108.564 277.742 108.16C276.698 107.757 276.193 106.916 276.058 106.31ZM234.144 -112.484C234.009 -113.09 234.245 -113.46 234.414 -114.133C235.122 -115.243 236.267 -115.815 237.682 -115.176C258.058 -105.088 276.075 -91.2987 291.53 -74.7168C292.405 -73.6404 292.371 -72.3621 291.293 -71.4872C290.214 -70.6123 288.934 -70.6457 288.059 -71.722C272.974 -88.0685 255.092 -101.252 235.39 -111.172C234.783 -111.038 234.345 -111.576 234.144 -112.484ZM300.807 133.218C300.672 132.613 300.908 132.242 301.077 131.57C310.921 112.863 317.263 92.7106 319.327 71.9198C319.361 70.6415 320.742 69.6992 322.022 69.7326C323.302 69.766 324.245 71.1451 324.211 72.4235C321.978 93.8871 315.468 114.712 305.388 133.789C304.68 134.899 303.534 135.471 302.12 134.833C301.379 134.362 300.941 133.824 300.807 133.218ZM271.862 -7.12737C271.66 -8.03564 272.065 -9.07862 273.21 -9.65076C274.356 -10.2229 275.703 -9.88675 276.275 -8.74307C283.074 4.6784 287.65 19.5469 290.035 34.5841C290.304 35.7951 289.293 36.9728 288.08 37.2421C286.867 37.5115 285.689 36.5025 285.42 35.2915C283.472 20.7925 279.031 6.52951 272.3 -6.58921C271.929 -6.82462 271.862 -7.12737 271.862 -7.12737ZM258.652 -76.6276C258.518 -77.2331 258.687 -77.9059 259.159 -78.6461C259.866 -79.7564 261.45 -79.7904 262.561 -79.0842C269.936 -73.0975 276.468 -66.6061 282.832 -59.4418C283.708 -58.3655 283.673 -57.0871 282.595 -56.2122C281.517 -55.3373 280.237 -55.3707 279.361 -56.4471C273.368 -63.3759 266.835 -69.8673 259.528 -75.5512C258.854 -75.7193 258.787 -76.022 258.652 -76.6276ZM252.776 -121.706C252.642 -122.311 252.811 -122.984 253.047 -123.354C253.754 -124.464 255.271 -124.801 256.382 -124.095C270.998 -115.587 284.368 -105.531 296.49 -93.927C297.298 -93.1534 297.331 -91.5723 296.556 -90.7647C295.781 -89.9572 294.198 -89.9232 293.389 -90.6968C281.638 -102.065 268.268 -112.121 254.089 -120.091C253.349 -120.562 252.911 -121.1 252.776 -121.706ZM301.166 80.4012C301.099 80.0984 301.031 79.7957 301.267 79.4256C301.976 75.4558 302.618 71.1832 303.024 67.2807C303.058 66.0024 304.137 65.1274 305.417 65.1608C306.697 65.1942 307.572 66.2705 307.538 67.5489C307.199 71.7541 306.558 76.0267 305.848 79.9965C305.511 81.3423 304.433 82.2171 303.085 81.881C302.108 81.7803 301.368 81.3095 301.166 80.4012ZM283.321 -21.4273C283.12 -22.3356 283.524 -23.3785 284.367 -23.8833C285.512 -24.4555 286.86 -24.1193 287.432 -22.9756C293.76 -11.6735 299.01 0.503591 302.441 13.0847C302.71 14.2958 302.069 15.7088 300.856 15.9782C299.643 16.2476 298.229 15.6087 297.96 14.3977C294.596 2.11929 289.784 -9.5196 283.523 -20.519C283.389 -21.1245 283.389 -21.1245 283.321 -21.4273ZM302.531 37.8447C302.095 34.447 301.726 31.3521 301.053 28.3245C300.784 27.1135 301.795 25.9358 303.008 25.6664C304.221 25.3971 305.4 26.4061 305.669 27.6171C306.341 30.6447 306.777 34.0424 307.214 37.44C307.483 38.6511 306.472 39.8287 305.259 40.0981C303.912 39.762 302.8 39.0557 302.531 37.8447ZM326.078 118.074C326.011 117.772 325.876 117.166 326.112 116.796C329.687 107.107 332.285 97.3163 334.21 87.3581C334.547 86.0124 335.625 85.1375 336.973 85.4736C338.32 85.8098 339.195 86.8861 338.858 88.2318C337.001 98.4928 334.167 108.653 330.592 118.343C330.187 119.385 328.806 120.328 327.694 119.621C326.65 119.218 326.212 118.68 326.078 118.074ZM275.517 -126.757C275.383 -127.362 275.551 -128.035 275.787 -128.405C276.495 -129.515 278.011 -129.852 279.123 -129.146C284.376 -125.547 289.697 -121.646 294.782 -117.375C295.893 -116.668 295.926 -115.087 295.218 -113.977C294.51 -112.867 292.927 -112.833 291.816 -113.539C286.798 -117.508 281.781 -121.476 276.527 -125.075C276.022 -125.916 275.584 -126.454 275.517 -126.757ZM297.878 -30.3789C297.676 -31.2871 298.081 -32.3301 298.923 -32.8349C300.069 -33.407 301.416 -33.0709 301.988 -31.9272C310.707 -17.0259 317.201 -0.677602 321.034 16.5796C322.245 22.0292 323.219 27.8489 323.823 33.4333C324.092 34.6443 323.081 35.822 321.868 36.0914C320.655 36.3607 319.477 35.3517 319.208 34.1407C318.604 28.5564 317.697 23.0394 316.553 17.8925C312.855 1.24085 306.798 -14.5693 298.147 -29.1678C297.945 -30.0761 297.945 -30.0761 297.878 -30.3789ZM314.285 -35.2939C314.084 -36.2022 314.488 -37.2451 315.331 -37.7499C316.476 -38.3221 317.824 -37.9859 318.396 -36.8422C320.988 -32.3348 323.344 -27.4573 325.329 -22.8153C325.901 -21.6716 325.261 -20.2585 324.115 -19.6864C322.97 -19.1142 321.555 -19.7531 320.983 -20.8968C318.997 -25.5389 316.709 -30.1136 314.117 -34.621C314.353 -34.9911 314.285 -35.2939 314.285 -35.2939ZM326.671 -8.18157C326.402 -9.3926 327.109 -10.5029 328.322 -10.7723C329.535 -11.0417 330.882 -10.7055 331.219 -9.19174C335.29 1.97632 338.216 13.7165 339.861 25.4234C340.13 26.6344 339.119 27.812 337.907 28.0814C336.694 28.3508 335.515 27.3418 335.246 26.1308C333.297 14.4913 330.439 3.05385 326.671 -8.18157ZM333.79 -34.8606C333.588 -35.7688 333.993 -36.8118 335.138 -37.3839C336.284 -37.9561 337.698 -37.3172 338.271 -36.1735C345.271 -21.8438 350.587 -6.50444 354.084 9.23896L354.488 11.0555C354.757 12.2665 354.049 13.3768 352.533 13.7136C351.32 13.983 350.208 13.2767 349.872 11.7629L349.536 10.2491C346.107 -5.1915 340.858 -20.2281 333.924 -34.2551C333.857 -34.5578 333.857 -34.5578 333.79 -34.8606ZM355.211 -27.2284C354.942 -28.4395 355.65 -29.5498 356.56 -29.7518C357.705 -30.3239 359.12 -29.685 359.692 -28.5414C361.947 -22.6882 364.201 -16.8351 365.849 -10.8473C366.118 -9.63627 365.478 -8.22322 364.265 -7.95384C363.052 -7.68446 361.637 -8.32335 361.368 -9.53438C359.72 -15.5222 357.533 -21.0725 355.279 -26.9257L355.211 -27.2284Z" fill="#3E3E3E"/>
</g>
</g>
<rect x="134" width="105" height="24" transform="rotate(90 134 0)" fill="#ECECEC"/>
<rect x="16" y="12" width="24" height="13" rx="4" fill="#3E3E3E"/>
<rect x="44" y="12" width="17" height="3" rx="1.5" fill="#3E3E3E"/>
<rect x="44" y="17" width="24" height="3" rx="1.5" fill="#3E3E3E"/>
<rect x="44" y="22" width="14" height="3" rx="1.5" fill="#3E3E3E"/>
<defs>
<filter id="filter0_d_1412_21" x="173" y="0" width="292" height="113" filterUnits="userSpaceOnUse" color-interpolation-filters="sRGB">
<feFlood flood-opacity="0" result="BackgroundImageFix"/>
<feColorMatrix in="SourceAlpha" type="matrix" values="0 0 0 0 0 0 0 0 0 0 0 0 0 0 0 0 0 0 127 0" result="hardAlpha"/>
<feOffset dy="4"/>
<feGaussianBlur stdDeviation="2"/>
<feColorMatrix type="matrix" values="0 0 0 0 0 0 0 0 0 0 0 0 0 0 0 0 0 0 0.25 0"/>
<feBlend mode="normal" in2="BackgroundImageFix" result="effect1_dropShadow_1412_21"/>
<feBlend mode="normal" in="SourceGraphic" in2="effect1_dropShadow_1412_21" result="shape"/>
</filter>
<filter id="filter1_d_1412_21" x="330" y="13" width="120" height="79.6279" filterUnits="userSpaceOnUse" color-interpolation-filters="sRGB">
<feFlood flood-opacity="0" result="BackgroundImageFix"/>
<feColorMatrix in="SourceAlpha" type="matrix" values="0 0 0 0 0 0 0 0 0 0 0 0 0 0 0 0 0 0 127 0" result="hardAlpha"/>
<feOffset/>
<feGaussianBlur stdDeviation="2"/>
<feColorMatrix type="matrix" values="0 0 0 0 0 0 0 0 0 0 0 0 0 0 0 0 0 0 0.2 0"/>
<feBlend mode="normal" in2="BackgroundImageFix" result="effect1_dropShadow_1412_21"/>
<feBlend mode="normal" in="SourceGraphic" in2="effect1_dropShadow_1412_21" result="shape"/>
</filter>
<filter id="filter2_d_1412_21" x="188" y="13" width="120" height="79.6279" filterUnits="userSpaceOnUse" color-interpolation-filters="sRGB">
<feFlood flood-opacity="0" result="BackgroundImageFix"/>
<feColorMatrix in="SourceAlpha" type="matrix" values="0 0 0 0 0 0 0 0 0 0 0 0 0 0 0 0 0 0 127 0" result="hardAlpha"/>
<feOffset/>
<feGaussianBlur stdDeviation="2"/>
<feColorMatrix type="matrix" values="0 0 0 0 0 0 0 0 0 0 0 0 0 0 0 0 0 0 0.2 0"/>
<feBlend mode="normal" in2="BackgroundImageFix" result="effect1_dropShadow_1412_21"/>
<feBlend mode="normal" in="SourceGraphic" in2="effect1_dropShadow_1412_21" result="shape"/>
</filter>
<filter id="filter3_d_1412_21" x="0" y="0" width="150" height="113" filterUnits="userSpaceOnUse" color-interpolation-filters="sRGB">
<feFlood flood-opacity="0" result="BackgroundImageFix"/>
<feColorMatrix in="SourceAlpha" type="matrix" values="0 0 0 0 0 0 0 0 0 0 0 0 0 0 0 0 0 0 127 0" result="hardAlpha"/>
<feOffset dy="4"/>
<feGaussianBlur stdDeviation="2"/>
<feColorMatrix type="matrix" values="0 0 0 0 0 0 0 0 0 0 0 0 0 0 0 0 0 0 0.25 0"/>
<feBlend mode="normal" in2="BackgroundImageFix" result="effect1_dropShadow_1412_21"/>
<feBlend mode="normal" in="SourceGraphic" in2="effect1_dropShadow_1412_21" result="shape"/>
</filter>
</defs>
</svg>
