<svg width="800" height="525" viewBox="0 0 800 525" fill="none" xmlns="http://www.w3.org/2000/svg">
<g filter="url(#filter0_d_1408_112)">
<path fill-rule="evenodd" clip-rule="evenodd" d="M384.679 -154.33C377.511 -150.191 377.505 -143.484 384.661 -139.341C377.485 -143.472 365.867 -143.468 358.699 -139.33L155.869 -22.2362C148.694 -18.0944 148.694 -11.3791 155.869 -7.2372L299.079 75.438C306.254 79.5799 317.886 79.5799 325.06 75.4381L527.891 -41.6558C535.059 -45.7942 535.065 -52.5017 527.908 -56.6444C535.085 -52.5135 546.703 -52.5171 553.871 -56.6554L756.701 -173.749C763.875 -177.891 763.875 -184.606 756.701 -188.748L613.491 -271.423C606.316 -275.565 594.684 -275.565 587.509 -271.423L384.679 -154.33Z" fill="#3E3E3E"/>
</g>
<g filter="url(#filter1_d_1408_112)">
<rect width="264.203" height="195.361" rx="15" transform="matrix(0.866044 0.499967 -0.866044 0.499967 191.389 64.1279)" fill="#F2F2F2"/>
</g>
<g filter="url(#filter2_d_1408_112)">
<rect width="264.203" height="195.361" rx="15" transform="matrix(0.866044 0.499967 -0.866044 0.499967 420.2 196.221)" fill="#F2F2F2"/>
</g>
<g filter="url(#filter3_d_1408_112)">
<rect width="208.385" height="133.27" rx="10" transform="matrix(0.866044 0.499967 -0.866044 0.499967 416.977 225.988)" fill="#333234"/>
</g>
<rect width="208.385" height="24.1876" transform="matrix(0.866044 0.499967 -0.866044 0.499967 400.864 235.291)" fill="#ECECEC"/>
<g filter="url(#filter4_d_1408_112)">
<rect width="208.385" height="133.27" rx="10" transform="matrix(0.866044 0.499967 -0.866044 0.499967 761.248 207.8)" fill="#4A4A4A"/>
</g>
<rect width="70.7022" height="94.8898" rx="5" transform="matrix(0.866044 0.499967 -0.866044 0.499967 762.859 227.335)" fill="#929292"/>
<g filter="url(#filter5_d_1408_112)">
<rect width="208.385" height="133.27" rx="10" transform="matrix(0.866044 -0.499967 0.866044 0.499967 -142 68.8484)" fill="#C4B7E1"/>
</g>
<rect width="70.7022" height="94.8898" rx="5" transform="matrix(0.866044 -0.499967 0.866044 0.499967 -108.162 67.918)" fill="#494949"/>
<g filter="url(#filter6_d_1408_112)">
<rect width="208.385" height="133.27" rx="10" transform="matrix(0.866044 -0.499967 0.866044 0.499967 588.992 -13.2502)" fill="#C4B7E1"/>
</g>
<rect width="70.7022" height="94.8898" rx="5" transform="matrix(0.866044 -0.499967 0.866044 0.499967 622.831 -14.1807)" fill="#494949"/>
<g filter="url(#filter7_d_1408_112)">
<rect width="283.891" height="209.919" rx="15" transform="matrix(-0.866044 -0.499967 0.866044 -0.499967 174.909 521)" fill="#C8C8C8"/>
</g>
<g opacity="0.4">
<mask id="mask0_1408_112" style="mask-type:alpha" maskUnits="userSpaceOnUse" x="-64" y="278" width="414" height="239">
<rect width="283.891" height="209.919" rx="15" transform="matrix(0.866044 0.499967 -0.866044 0.499967 110.846 274.111)" fill="#C8C8C8"/>
</mask>
<g mask="url(#mask0_1408_112)">
<path d="M46.2818 373.789C55.8944 365.889 67.4317 358.695 79.8444 352.343C82.1171 351.1 85.499 351.303 87.6575 352.616C89.8161 353.929 89.4681 355.88 87.1955 357.123C75.1905 363.106 64.7026 370.165 55.9055 377.326C54.2744 378.805 50.4848 378.972 47.9184 378.029C45.3521 377.086 44.6507 375.269 46.2818 373.789ZM118.078 337.291C118.486 336.921 119.301 336.181 120.35 336.047C173.101 320.093 236.476 317.397 292.81 329.263C295.784 329.836 297.127 331.889 296.137 333.604C295.148 335.319 291.592 336.091 288.618 335.518C235.258 324.225 175.673 326.754 125.429 342.071C122.515 343.079 118.899 342.27 117.79 340.823C116.914 339.981 116.854 338.4 118.078 337.291ZM75.8602 391.934C108.482 362.347 166.653 344.747 228.283 346.087C231.665 346.29 233.823 347.603 233.475 349.554C233.127 351.505 230.855 352.748 227.473 352.545C170.274 351.274 116.067 367.733 85.484 395.47C65.0954 413.962 56.663 436.328 61.6985 457.926C62.3999 459.742 59.7194 461.356 56.5714 461.758C53.4233 462.16 50.6231 460.612 49.9217 458.795C45.2342 435.246 54.2483 411.535 75.8602 391.934ZM206.489 299.622C207.305 298.883 209.17 298.009 210.861 298.111C221.822 297.981 232.375 298.221 242.929 298.461C246.311 298.665 248.062 300.348 248.121 301.929C247.773 303.879 244.859 304.887 242.119 304.92C231.973 304.31 221.42 304.069 211.1 304.435C208.36 304.467 205.56 302.918 205.5 301.337C205.908 300.968 206.082 299.992 206.489 299.622ZM18.4578 479.973C19.2734 479.233 20.3228 479.099 21.7798 478.595C24.928 478.193 27.9021 478.766 29.2451 480.819C43.4965 506.323 73.0206 528.605 112.799 543.222C148.086 556.188 189.022 562.396 230.942 561.171C233.683 561.138 236.891 562.317 236.543 564.268C236.603 565.849 234.564 567.698 231.182 567.495C187.163 568.989 144.302 562.073 106.449 548.164C64.7455 532.839 33.7043 509.48 18.3437 482.529C17.0606 482.058 17.6423 480.712 18.4578 479.973ZM110.506 404.665C111.729 403.555 112.545 402.816 113.768 401.706C115.399 400.227 119.189 400.06 121.755 401.003C124.321 401.946 124.615 404.133 122.984 405.612C122.168 406.352 120.945 407.461 120.13 408.201C85.0612 440.007 101.428 482.399 156.605 502.674C211.781 522.949 285.236 513.564 320.304 481.758C355.373 449.952 339.006 407.56 283.829 387.285C243.41 372.432 192.393 372.914 152.703 388.47C149.788 389.478 146.407 389.275 144.656 387.592C142.905 385.909 143.253 383.958 146.167 382.951C189.587 365.647 246.084 365.1 290.354 381.368C350.663 403.529 368.667 450.159 330.336 484.924C292.005 519.689 211.205 530.013 150.896 507.852C90.1789 486.06 72.1753 439.429 110.506 404.665ZM-1.79985 513.064C-1.39206 512.694 -0.984315 512.324 0.472821 511.82C3.38707 510.812 7.00276 511.621 8.11197 513.068C27.4306 533.159 55.7258 550.832 90.3715 563.563C116.035 572.993 143.911 579.599 172.717 582.908C175.691 583.481 177.85 584.794 177.502 586.745C176.512 588.46 174.24 589.704 170.858 589.501C140.361 586.089 111.201 579.012 84.2549 569.11C48.3261 555.908 18.7476 537.763 -2.088 516.596C-3.19717 515.149 -2.61538 513.803 -1.79985 513.064ZM68.7241 487.53C69.1319 487.161 69.9474 486.421 70.9967 486.287C73.911 485.279 77.5267 486.088 78.6359 487.535C91.8267 501.736 110.846 513.922 134.585 522.645C176.288 537.969 226.609 541.389 273.71 532.194C276.858 531.792 279.832 532.365 281.175 534.417C281.877 536.234 280.887 537.949 277.331 538.721C227.316 548.925 172.971 545.065 128.702 528.798C103.039 519.368 82.0945 506.475 68.436 491.062C67.3268 489.615 67.9085 488.27 68.7241 487.53ZM145.793 417.631C163.735 401.359 196.086 392.459 229.263 394.257C232.645 394.46 234.396 396.143 234.455 397.724C234.108 399.675 231.193 400.683 228.453 400.715C199.065 398.751 171.32 406.744 155.417 421.168C132.582 441.879 143.337 469.736 179.266 482.938C215.195 496.141 263.465 489.973 286.3 469.262C309.136 448.552 298.38 420.694 262.451 407.492C260.527 406.785 258.602 406.077 256.677 405.37C254.111 404.427 252.768 402.374 254.399 400.895C256.03 399.416 259.586 398.644 262.152 399.587C264.077 400.294 266.643 401.237 268.568 401.944C309.629 417.033 322.429 448.759 295.924 472.799C269.419 496.838 214.852 503.81 173.149 488.486C131.854 472.792 119.696 441.301 145.793 417.631ZM5.18275 558.243C5.59049 557.873 5.59045 557.873 5.99824 557.503C8.27088 556.26 11.6528 556.463 13.8114 557.776C30.2046 567.438 48.4626 576.225 67.7102 583.298C69.635 584.005 70.9181 584.477 72.8429 585.184C75.4093 586.127 76.7522 588.18 75.1212 589.659C73.4901 591.138 69.9343 591.91 67.3679 590.967C65.4432 590.26 64.1599 589.789 62.2352 589.081C41.7044 581.537 22.8048 572.514 6.17779 562.246C3.61145 561.303 3.55164 559.722 5.18275 558.243ZM262.863 351.518C264.086 350.408 266.593 349.77 268.925 350.108C284.204 352.604 298.9 356.445 312.374 361.396C367.55 381.672 398.02 417.813 390.595 455.619C390.247 457.57 387.332 458.577 384.592 458.61C381.21 458.407 379.459 456.724 379.4 455.143C386.711 419.893 358.225 386.04 306.257 366.944C293.425 362.229 280.012 358.859 265.783 356.229C262.809 355.655 261.058 353.973 262.047 352.258C262.455 351.888 262.863 351.518 262.863 351.518ZM180.439 430.362C194.303 417.788 223.685 414.034 245.499 422.05C267.313 430.065 273.86 447.022 259.995 459.596C246.131 472.171 216.749 475.925 194.935 467.909C173.121 459.893 166.574 442.937 180.439 430.362ZM250.372 456.06C260.974 446.444 256.064 433.727 239.382 427.597C222.701 421.467 200.665 424.283 190.062 433.899C179.46 443.514 184.37 456.232 201.052 462.362C217.733 468.491 239.769 465.676 250.372 456.06ZM356.738 296.629C358.369 295.15 361.518 294.748 364.084 295.691C369.217 297.577 374.757 299.093 379.89 300.979C413.894 313.474 442.537 329.196 464.77 348.279C466.521 349.962 466.173 351.913 463.258 352.92C460.344 353.928 456.962 353.725 455.212 352.042C433.854 333.801 406.494 318.55 373.773 306.527C368.64 304.64 364.149 302.99 358.609 301.474C356.043 300.531 354.7 298.478 356.738 296.629ZM378.758 276.658C380.389 275.179 383.537 274.776 386.104 275.719C391.236 277.606 396.777 279.122 401.909 281.008C414.1 285.487 425.24 290.101 435.973 295.084C438.132 296.397 438.833 298.214 437.202 299.693C434.93 300.937 431.782 301.339 429.215 300.396C418.482 295.412 407.341 290.799 395.793 286.555C390.66 284.669 386.169 283.019 380.629 281.503C378.47 280.19 377.127 278.137 378.758 276.658ZM410.809 259.853C412.44 258.374 415.589 257.972 418.563 258.545C420.487 259.252 421.771 259.724 423.695 260.431C473.097 278.584 513.643 302.318 543.406 330.924C545.157 332.606 544.168 334.321 541.253 335.329C538.339 336.337 535.365 335.764 533.614 334.081C504.084 306.081 465.056 283.425 416.937 265.743C415.012 265.036 413.729 264.564 411.804 263.857C410.521 263.385 409.178 261.333 410.809 259.853ZM460.417 250.02C462.456 248.171 466.246 248.004 468.404 249.317C477.62 253.223 486.836 257.129 494.595 261.54C497.162 262.483 497.455 264.669 495.824 266.149C493.551 267.392 490.403 267.794 488.245 266.481C479.437 262.205 470.628 257.929 461.646 254.629C459.488 253.316 458.786 251.499 460.417 250.02ZM505.1 271.636C505.508 271.266 505.508 271.266 505.916 270.896C508.188 269.652 511.978 269.486 514.137 270.799C535.896 282.952 555.617 296.955 572.19 311.359C573.941 313.042 572.951 314.757 570.678 316.001C567.764 317.008 564.79 316.435 562.631 315.122C546.292 301.323 527.447 288.162 505.687 276.009C504.17 274.932 503.469 273.115 505.1 271.636ZM530.328 252.843L530.735 252.474C533.416 250.86 537.206 250.694 539.364 252.007C552.723 259.514 565.675 267.391 577.811 276.008C579.328 277.085 578.98 279.036 576.707 280.28C574.434 281.523 570.411 281.084 568.894 280.007C556.992 271.996 545.09 263.984 531.323 256.847C529.164 255.534 529.104 253.953 530.328 252.843ZM461.822 314.976C462.23 314.606 462.23 314.606 462.638 314.236C464.91 312.993 468.292 313.196 470.451 314.509C484.277 323.227 496.647 332.45 507.152 342.546C508.903 344.229 507.913 345.944 505.641 347.187C502.726 348.195 499.752 347.622 497.594 346.309C487.323 336.819 474.953 327.596 462.409 319.349C460.658 317.666 460.599 316.085 461.822 314.976ZM415.74 412.371C416.555 411.632 418.013 411.128 419.062 410.994C422.21 410.591 425.418 411.77 426.119 413.587C441.719 446.862 432.309 482.38 400.095 511.597C398.464 513.076 394.908 513.849 391.7 512.67C388.492 511.491 387.791 509.674 389.829 507.825C420.005 480.457 429.067 446.89 414.576 415.062C414.75 414.087 414.924 413.111 415.74 412.371ZM301.923 525.412C302.331 525.042 302.738 524.672 303.788 524.538C324.595 517.113 342.777 507.165 356.233 494.96C363.981 487.933 370.038 480.805 374.17 472.969C375.159 471.254 378.073 470.246 381.047 470.819C384.022 471.392 385.772 473.075 384.783 474.79C380.243 482.996 374.012 491.1 365.857 498.496C351.585 511.441 332.588 522.129 310.323 530.058C307.409 531.065 304.435 530.492 302.684 528.809C300.526 527.497 301.107 526.151 301.923 525.412ZM499.227 406.152C500.042 405.413 501.499 404.909 502.549 404.775C505.697 404.373 508.905 405.551 509.606 407.368C512.646 415.241 515.277 423.483 516.218 431.624C516.278 433.205 514.239 435.054 511.091 435.457C508.351 435.489 505.143 434.31 504.441 432.494C503.093 424.722 501.103 416.716 498.063 408.843C498.237 407.868 498.411 406.892 499.227 406.152ZM528.586 379.524C529.402 378.785 530.451 378.65 531.908 378.147C535.056 377.744 538.03 378.317 539.373 380.37C553.973 403.923 560.177 428.549 558.395 453.878C558.047 455.829 555.774 457.073 552.392 456.869C549.01 456.666 546.852 455.353 547.2 453.402C548.808 429.049 542.43 405.398 529.114 382.316C527.597 381.239 527.771 380.264 528.586 379.524ZM277.806 606.974C278.622 606.234 280.079 605.73 281.128 605.596C316.806 601.037 351.082 592.845 381.214 581.052C384.128 580.044 387.51 580.247 389.261 581.93C391.012 583.612 390.664 585.563 387.749 586.571C356.16 598.868 321.069 607.8 283.7 612.257C280.552 612.66 277.344 611.481 276.643 609.664C276.817 608.689 276.991 607.713 277.806 606.974ZM565.014 366.926C565.83 366.187 566.238 365.817 567.287 365.683C569.794 365.045 573.409 365.854 574.518 367.301C593.788 397.247 602.391 429.51 598.107 461.196C597.76 463.147 595.487 464.39 592.105 464.187C588.723 463.983 586.564 462.671 586.912 460.72C591.022 430.01 582.653 398.352 563.851 369.617C563.617 369.011 564.199 367.666 565.014 366.926ZM279.987 631.16C280.803 630.421 282.26 629.917 283.309 629.783C293.803 628.442 304.296 627.101 314.556 625.155C317.704 624.753 320.271 625.696 322.021 627.378C322.723 629.195 321.092 630.674 318.177 631.682C307.276 633.393 296.375 635.103 285.881 636.444C282.733 636.846 279.525 635.668 278.824 633.851C278.356 632.64 279.172 631.9 279.987 631.16ZM603.955 359.409C604.77 358.669 605.178 358.299 607.277 358.031C609.783 357.393 613.399 358.202 614.742 360.255C621.925 371.729 628.058 383.337 632.093 395.213C632.794 397.03 630.755 398.879 627.607 399.281C624.459 399.683 621.251 398.504 620.55 396.688C616.107 385.181 610.616 373.809 603.025 362.705C602.965 361.124 603.139 360.149 603.955 359.409ZM301.057 652.934C301.872 652.194 303.329 651.69 304.379 651.556C337.317 647.03 369.319 640.081 399.103 630.239C402.018 629.231 405.633 630.04 406.743 631.487C408.493 633.17 407.096 635.254 404.59 635.892C373.756 645.869 340.704 652.952 306.717 657.612C303.569 658.014 300.361 656.836 299.659 655.019C300.067 654.649 300.241 653.674 301.057 652.934ZM342.421 620.323C342.829 619.954 343.645 619.214 344.694 619.08C373.956 612.164 400.185 603.093 424.428 591.734C426.701 590.491 430.724 590.93 432.883 592.243C435.042 593.556 434.286 595.876 432.013 597.12C406.72 608.613 379.035 618.187 349.365 625.473C346.858 626.111 343.242 625.302 342.133 623.855C341.024 622.408 341.606 621.063 342.421 620.323ZM648.675 359.732C649.491 358.992 650.54 358.858 651.997 358.354C655.145 357.952 658.119 358.525 659.462 360.578C677.275 391.028 684.594 422.82 682.643 454.843C682.295 456.793 680.023 458.037 676.641 457.834C673.259 457.63 671.1 456.317 671.448 454.367C673.633 422.949 665.498 391.898 648.561 362.288C647.278 361.817 647.452 360.841 648.675 359.732ZM338.682 671.956C339.498 671.217 340.547 671.083 342.004 670.579C391.438 661.721 437.31 647.916 476.881 629.197C479.154 627.954 483.177 628.393 485.336 629.706C487.495 631.019 486.739 633.339 484.466 634.583C443.438 653.806 396.109 668.114 345.625 677.106C342.477 677.508 339.503 676.935 338.16 674.883C337.693 673.672 337.866 672.696 338.682 671.956ZM531.564 502.742C532.787 501.633 535.294 500.995 538.268 501.568C541.242 502.141 542.993 503.824 542.003 505.539C530.537 525.751 512.715 545.185 490.809 562.6C489.178 564.079 485.388 564.246 482.822 563.303C480.256 562.36 479.962 560.173 481.593 558.694C503.325 542.255 520.331 523.559 531.39 503.718C531.156 503.112 531.564 502.742 531.564 502.742ZM629.027 420.07C629.843 419.33 631.3 418.826 633.398 418.558C636.547 418.156 639.347 419.705 640.048 421.521C642.452 434.877 642.523 447.895 641.137 461.417C640.789 463.368 638.516 464.611 635.134 464.408C631.752 464.205 629.594 462.892 629.942 460.941C631.562 448.025 631.491 435.007 628.679 422.021C627.804 421.18 628.212 420.81 629.027 420.07ZM696.902 369.139C697.718 368.399 699.175 367.895 700.224 367.761C703.373 367.359 706.58 368.538 707.282 370.354C717.858 393.469 723.595 416.884 724.492 440.599C724.552 442.18 721.872 443.793 719.132 443.826C716.391 443.858 713.591 442.31 713.531 440.728C712.867 417.619 707.13 394.204 696.381 372.065C695.913 370.854 696.087 369.878 696.902 369.139ZM430.752 619.522C431.16 619.153 431.568 618.783 432.617 618.649C440.719 615.389 449.228 611.76 456.687 608.265C458.96 607.022 462.342 607.225 464.5 608.538C466.659 609.851 466.311 611.802 464.038 613.045C456.171 616.91 447.662 620.539 439.561 623.798C436.646 624.806 433.265 624.603 431.514 622.92C429.997 621.843 429.529 620.632 430.752 619.522ZM576.164 499.903C577.388 498.794 579.894 498.156 582.227 498.493C585.201 499.066 586.952 500.749 585.962 502.464C577.35 520.087 565.357 537.506 549.513 553.511C547.882 554.99 544.326 555.762 541.76 554.819C539.194 553.876 537.851 551.823 539.482 550.344C554.917 534.709 566.737 518.266 574.941 501.013C575.757 500.273 575.757 500.273 576.164 499.903ZM506.8 578.35C511.927 574.518 516.646 571.055 520.724 567.357C522.355 565.877 526.145 565.711 528.711 566.654C531.278 567.597 531.571 569.783 529.94 571.263C525.862 574.961 520.735 578.794 515.608 582.626C513.977 584.105 510.188 584.272 507.621 583.329C505.87 581.646 505.169 579.829 506.8 578.35ZM408.658 682.08C409.066 681.71 409.881 680.97 410.931 680.836C433.897 674.724 455.346 667.535 475.92 659.505C478.834 658.497 482.216 658.701 483.967 660.383C485.717 662.066 485.37 664.017 482.455 665.025C461.474 673.425 438.975 680.748 416.009 686.86C413.503 687.498 409.479 687.058 408.778 685.242C407.668 683.795 407.842 682.819 408.658 682.08ZM745.021 386.821C745.837 386.081 747.294 385.577 748.343 385.443C751.491 385.041 754.699 386.22 755.401 388.036C758.266 396.884 760.724 406.102 762.133 415.455C762.834 417.271 760.154 418.885 757.006 419.287C753.858 419.689 751.057 418.141 750.356 416.324C748.54 407.342 746.723 398.359 743.858 389.511C744.44 388.166 744.614 387.19 745.021 386.821ZM616.867 505.506C618.09 504.396 620.597 503.758 622.929 504.096C625.903 504.669 627.654 506.352 626.665 508.067C615.96 531.676 598.899 554.508 575.656 575.589C568.316 582.246 559.926 589.037 551.303 595.223C549.672 596.702 545.883 596.869 543.316 595.926C540.75 594.983 540.456 592.796 542.087 591.317C550.71 585.131 558.692 578.71 565.624 572.423C588.051 552.082 604.938 530.224 615.236 506.985C616.459 505.876 616.459 505.876 616.867 505.506ZM653.785 516.993C655.008 515.884 657.515 515.246 659.847 515.583C662.822 516.156 664.572 517.839 663.583 519.554C660.266 526.65 655.901 533.88 651.301 540.505C650.312 542.22 646.756 542.992 643.782 542.419C640.807 541.846 639.464 539.793 640.454 538.078C645.054 531.454 649.012 524.593 652.328 517.497C653.377 517.363 653.785 516.993 653.785 516.993ZM628.286 556.473C629.917 554.993 633.065 554.591 635.632 555.534C638.198 556.477 639.949 558.16 637.91 560.009C625.623 575.242 610.361 589.901 592.941 603.248C591.31 604.727 587.52 604.893 584.954 603.95C582.388 603.007 582.094 600.821 583.725 599.341C600.503 585.759 615.357 571.47 628.286 556.473ZM686.805 536.922C688.029 535.812 690.535 535.174 693.509 535.747C696.483 536.321 697.826 538.373 696.837 540.088C684.147 561.409 666.793 582.055 645.588 601.287L643.142 603.506C641.511 604.985 638.363 605.387 635.155 604.209C632.588 603.266 631.887 601.449 633.926 599.6L635.965 597.75C656.761 578.889 673.708 558.613 685.99 537.661C686.397 537.292 686.397 537.292 686.805 536.922ZM710.68 565.962C712.312 564.483 715.46 564.081 717.384 564.788C720.358 565.361 721.701 567.414 720.712 569.129C714.481 577.233 708.251 585.337 700.737 592.969C699.106 594.449 695.55 595.221 692.983 594.278C690.417 593.335 689.074 591.282 690.705 589.803C698.219 582.17 704.042 574.436 710.273 566.332L710.68 565.962Z" fill="#3E3E3E"/>
</g>
</g>
<rect width="209.919" height="47.9815" transform="matrix(-0.866044 0.499967 -0.866044 -0.499967 335.932 404.053)" fill="#ECECEC"/>
<rect width="47.9816" height="25.99" rx="4" transform="matrix(0.866044 0.499967 -0.866044 0.499967 113.508 292)" fill="#3E3E3E"/>
<rect width="33.9869" height="5.99769" rx="2.99885" transform="matrix(0.866044 0.499967 -0.866044 0.499967 161.989 319.987)" fill="#3E3E3E"/>
<rect width="47.9816" height="5.99769" rx="2.99885" transform="matrix(0.866044 0.499967 -0.866044 0.499967 153.332 324.985)" fill="#3E3E3E"/>
<rect width="27.9892" height="5.99769" rx="2.99885" transform="matrix(0.866044 0.499967 -0.866044 0.499967 144.675 329.983)" fill="#3E3E3E"/>
<g filter="url(#filter8_d_1408_112)">
<rect width="283.891" height="209.919" rx="15" transform="matrix(-0.866044 -0.499967 0.866044 -0.499967 612.243 251.022)" fill="#4A4A4A"/>
</g>
<g opacity="0.4">
<mask id="mask1_1408_112" style="mask-type:alpha" maskUnits="userSpaceOnUse" x="373" y="8" width="414" height="239">
<rect width="283.891" height="209.919" rx="15" transform="matrix(0.866044 0.499967 -0.866044 0.499967 548.179 4.13354)" fill="black"/>
</mask>
<g mask="url(#mask1_1408_112)">
<path d="M483.615 103.812C493.228 95.9113 504.765 88.718 517.178 82.3659C519.451 81.1223 522.832 81.3257 524.991 82.6386C527.15 83.9514 526.802 85.9023 524.529 87.1459C512.524 93.128 502.036 100.187 493.239 107.348C491.608 108.828 487.818 108.994 485.252 108.051C482.686 107.108 481.984 105.291 483.615 103.812ZM555.411 67.3133C555.819 66.9435 556.634 66.2037 557.684 66.0697C610.434 50.1153 673.809 47.4193 730.143 59.2855C733.117 59.8587 734.46 61.9112 733.471 63.6263C732.481 65.3414 728.926 66.1135 725.952 65.5403C672.591 54.2474 613.006 56.7769 562.762 72.0933C559.848 73.1011 556.232 72.2921 555.123 70.8452C554.248 70.0038 554.188 68.4228 555.411 67.3133ZM513.194 121.956C545.815 92.3694 603.987 74.7693 665.616 76.109C668.998 76.3124 671.157 77.6253 670.809 79.5761C670.461 81.527 668.188 82.7706 664.806 82.5672C607.608 81.2967 553.4 97.755 522.817 125.493C502.429 143.985 493.996 166.35 499.032 187.948C499.733 189.765 497.053 191.378 493.905 191.781C490.757 192.183 487.957 190.634 487.255 188.817C482.568 165.269 491.582 141.558 513.194 121.956ZM643.823 29.6448C644.638 28.9051 646.503 28.0314 648.194 28.133C659.155 28.0034 669.709 28.2437 680.262 28.4839C683.644 28.6873 685.395 30.37 685.455 31.951C685.107 33.9018 682.193 34.9097 679.452 34.9421C669.307 34.332 658.753 34.0918 648.434 34.4571C645.693 34.4895 642.893 32.9409 642.833 31.3599C643.241 30.9901 643.415 30.0146 643.823 29.6448ZM455.791 209.995C456.607 209.256 457.656 209.122 459.113 208.618C462.261 208.215 465.236 208.789 466.579 210.841C480.83 236.345 510.354 258.627 550.132 273.244C585.42 286.211 626.356 292.419 668.276 291.193C671.016 291.161 674.224 292.34 673.876 294.29C673.936 295.871 671.897 297.721 668.515 297.517C624.497 299.011 581.636 292.096 543.782 278.186C502.079 262.862 471.038 239.503 455.677 212.552C454.394 212.08 454.976 210.735 455.791 209.995ZM547.839 134.687C549.063 133.578 549.878 132.838 551.101 131.729C552.733 130.249 556.522 130.083 559.089 131.026C561.655 131.969 561.949 134.155 560.317 135.635C559.502 136.374 558.279 137.484 557.463 138.224C522.395 170.03 538.762 212.421 593.938 232.696C649.114 252.971 722.569 243.586 757.638 211.78C792.706 179.974 776.339 137.583 721.163 117.307C680.743 102.455 629.727 102.936 590.036 118.493C587.122 119.5 583.74 119.297 581.989 117.614C580.238 115.932 580.586 113.981 583.501 112.973C626.921 95.669 683.418 95.1227 727.687 111.39C787.996 133.551 806 180.182 767.669 214.947C729.339 249.711 648.538 260.035 588.229 237.874C527.512 216.083 509.509 169.452 547.839 134.687ZM435.534 243.086C435.941 242.716 436.349 242.346 437.806 241.843C440.721 240.835 444.336 241.644 445.445 243.091C464.764 263.181 493.059 280.854 527.705 293.585C553.368 303.015 581.245 309.621 610.051 312.931C613.025 313.504 615.183 314.817 614.835 316.768C613.846 318.483 611.573 319.726 608.191 319.523C577.694 316.112 548.535 309.035 521.588 299.133C485.66 285.93 456.081 267.786 435.245 246.618C434.136 245.171 434.718 243.826 435.534 243.086ZM506.058 217.553C506.465 217.183 507.281 216.443 508.33 216.309C511.244 215.302 514.86 216.111 515.969 217.557C529.16 231.759 548.18 243.944 571.918 252.667C613.621 267.992 663.942 271.412 711.043 262.216C714.191 261.814 717.165 262.387 718.509 264.44C719.21 266.257 718.221 267.972 714.665 268.744C664.649 278.947 610.305 275.088 566.035 258.821C540.372 249.39 519.428 236.497 505.769 221.085C504.66 219.638 505.242 218.293 506.058 217.553ZM583.126 147.654C601.068 131.381 633.419 122.482 666.596 124.279C669.978 124.483 671.729 126.166 671.789 127.747C671.441 129.697 668.527 130.705 665.786 130.738C636.399 128.773 608.653 136.767 592.75 151.19C569.915 171.901 580.67 199.758 616.599 212.961C652.528 226.163 700.799 219.996 723.634 199.285C746.469 178.574 735.714 150.717 699.785 137.514C697.86 136.807 695.935 136.1 694.01 135.392C691.444 134.449 690.101 132.397 691.732 130.918C693.363 129.438 696.919 128.666 699.485 129.609C701.41 130.316 703.977 131.259 705.901 131.967C746.963 147.055 759.763 178.782 733.258 202.821C706.752 226.861 652.186 233.833 610.483 218.508C569.187 202.814 557.029 171.323 583.126 147.654ZM442.516 288.265C442.924 287.896 442.924 287.896 443.332 287.526C445.604 286.282 448.986 286.486 451.145 287.798C467.538 297.46 485.796 306.248 505.044 313.321C506.968 314.028 508.252 314.499 510.176 315.207C512.743 316.15 514.086 318.202 512.455 319.682C510.824 321.161 507.268 321.933 504.701 320.99C502.777 320.283 501.493 319.811 499.569 319.104C479.038 311.56 460.138 302.536 443.511 292.269C440.945 291.326 440.885 289.745 442.516 288.265ZM700.196 81.5405C701.42 80.431 703.926 79.7929 706.259 80.1304C721.537 82.6265 736.234 86.4679 749.707 91.4188C804.883 111.694 835.354 147.835 827.928 185.641C827.58 187.592 824.666 188.6 821.926 188.632C818.544 188.429 816.793 186.746 816.733 185.165C824.045 149.916 795.559 116.063 743.59 96.9664C730.759 92.2512 717.345 88.8814 703.116 86.2511C700.142 85.6779 698.391 83.9952 699.381 82.2801C699.789 81.9103 700.196 81.5405 700.196 81.5405ZM617.772 160.385C631.636 147.81 661.018 144.056 682.832 152.072C704.646 160.088 711.193 177.044 697.329 189.619C683.465 202.193 654.083 205.947 632.269 197.932C610.455 189.916 603.908 172.959 617.772 160.385ZM687.705 186.082C698.307 176.467 693.397 163.749 676.716 157.62C660.035 151.49 637.998 154.305 627.396 163.921C616.794 173.537 621.704 186.254 638.385 192.384C655.066 198.514 677.103 195.698 687.705 186.082ZM794.072 26.6516C795.703 25.1723 798.851 24.7701 801.417 25.7131C806.55 27.5991 812.09 29.1154 817.223 31.0014C851.227 43.4966 879.87 59.2186 902.103 78.3015C903.854 79.9842 903.506 81.9351 900.592 82.9429C897.678 83.9507 894.296 83.7474 892.545 82.0647C871.187 63.8231 843.827 48.5726 811.107 36.549C805.974 34.6629 801.483 33.0126 795.942 31.4964C793.376 30.5534 792.033 28.5008 794.072 26.6516ZM816.092 6.68047C817.723 5.20112 820.871 4.7989 823.437 5.74193C828.57 7.628 834.11 9.1442 839.243 11.0303C851.433 15.5097 862.574 20.1231 873.307 25.1065C875.465 26.4193 876.167 28.2361 874.536 29.7155C872.263 30.959 869.115 31.3613 866.549 30.4182C855.816 25.4349 844.675 20.8214 833.126 16.5778C827.994 14.6917 823.503 13.0415 817.962 11.5252C815.804 10.2124 814.46 8.15981 816.092 6.68047ZM848.143 -10.1242C849.774 -11.6035 852.922 -12.0057 855.896 -11.4326C857.821 -10.7253 859.104 -10.2538 861.029 -9.54648C910.431 8.60686 950.976 32.3402 980.74 60.9461C982.491 62.6288 981.501 64.3439 978.587 65.3517C975.672 66.3596 972.698 65.7864 970.948 64.1037C941.418 36.1033 902.39 13.4471 854.271 -4.2347C852.346 -4.94198 851.063 -5.41349 849.138 -6.12077C847.855 -6.59229 846.512 -8.64484 848.143 -10.1242ZM897.751 -19.9577C899.79 -21.8069 903.579 -21.9734 905.738 -20.6605C914.954 -16.7543 924.17 -12.8481 931.929 -8.43801C934.495 -7.49497 934.789 -5.30836 933.158 -3.82902C930.885 -2.58544 927.737 -2.18318 925.578 -3.49605C916.77 -7.77209 907.962 -12.0481 898.98 -15.3487C896.821 -16.6616 896.12 -18.4784 897.751 -19.9577ZM942.434 1.65821C942.841 1.28837 942.841 1.28838 943.249 0.91854C945.522 -0.325043 949.311 -0.491522 951.47 0.821342C973.23 12.9746 992.95 26.977 1009.52 41.3817C1011.27 43.0644 1010.28 44.7795 1008.01 46.0231C1005.1 47.0309 1002.12 46.4577 999.965 45.1448C983.626 31.3458 964.781 18.1847 943.021 6.03144C941.504 4.95434 940.802 3.13755 942.434 1.65821ZM967.661 -17.1342L968.069 -17.504C970.749 -19.1174 974.539 -19.2839 976.698 -17.971C990.057 -10.4637 1003.01 -2.58646 1015.14 6.03041C1016.66 7.10752 1016.31 9.05839 1014.04 10.302C1011.77 11.5456 1007.74 11.1064 1006.23 10.0293C994.325 2.01805 982.423 -5.99323 968.656 -13.1308C966.498 -14.4436 966.438 -16.0246 967.661 -17.1342ZM899.155 44.9983C899.563 44.6285 899.563 44.6285 899.971 44.2587C902.244 43.0151 905.626 43.2184 907.784 44.5313C921.611 53.2499 933.981 62.4723 944.485 72.5686C946.236 74.2513 945.247 75.9664 942.974 77.21C940.06 78.2178 937.086 77.6446 934.927 76.3317C924.656 66.8411 912.286 57.6186 899.743 49.3716C897.992 47.6889 897.932 46.1078 899.155 44.9983ZM853.073 142.394C853.889 141.654 855.346 141.15 856.395 141.016C859.543 140.614 862.751 141.793 863.453 143.61C879.053 176.885 869.642 212.403 837.428 241.62C835.797 243.099 832.241 243.871 829.033 242.692C825.826 241.513 825.124 239.697 827.163 237.847C857.338 210.48 866.401 176.913 851.91 145.084C852.084 144.109 852.258 143.134 853.073 142.394ZM739.256 255.434C739.664 255.064 740.072 254.694 741.121 254.56C761.929 247.136 780.11 237.187 793.567 224.982C801.314 217.956 807.371 210.827 811.503 202.991C812.492 201.276 815.407 200.268 818.381 200.841C821.355 201.415 823.106 203.097 822.116 204.812C817.577 213.018 811.346 221.122 803.19 228.519C788.918 241.463 769.922 252.151 747.657 260.08C744.743 261.088 741.768 260.515 740.018 258.832C737.859 257.519 738.441 256.174 739.256 255.434ZM936.56 136.175C937.376 135.435 938.833 134.931 939.882 134.797C943.03 134.395 946.238 135.574 946.939 137.391C949.979 145.263 952.611 153.506 953.552 161.647C953.612 163.228 951.573 165.077 948.425 165.479C945.684 165.512 942.476 164.333 941.775 162.516C940.426 154.745 938.436 146.738 935.397 138.865C935.57 137.89 935.744 136.915 936.56 136.175ZM965.92 109.547C966.735 108.807 967.785 108.673 969.242 108.169C972.39 107.767 975.364 108.34 976.707 110.392C991.306 133.946 997.511 158.572 995.728 183.901C995.38 185.852 993.107 187.095 989.726 186.892C986.344 186.688 984.185 185.376 984.533 183.425C986.142 159.071 979.763 135.421 966.447 112.339C964.93 111.262 965.104 110.286 965.92 109.547ZM715.14 336.996C715.955 336.256 717.412 335.752 718.462 335.618C754.14 331.06 788.415 322.867 818.547 311.074C821.462 310.066 824.843 310.27 826.594 311.952C828.345 313.635 827.997 315.586 825.083 316.594C793.494 328.891 758.403 337.823 721.034 342.28C717.886 342.682 714.678 341.503 713.976 339.687C714.15 338.711 714.324 337.736 715.14 336.996ZM1002.35 96.9488C1003.16 96.2091 1003.57 95.8393 1004.62 95.7052C1007.13 95.0672 1010.74 95.8762 1011.85 97.3231C1031.12 127.27 1039.72 159.533 1035.44 191.218C1035.09 193.169 1032.82 194.413 1029.44 194.209C1026.06 194.006 1023.9 192.693 1024.25 190.742C1028.36 160.032 1019.99 128.375 1001.18 99.6393C1000.95 99.0337 1001.53 97.6885 1002.35 96.9488ZM717.321 361.183C718.136 360.443 719.593 359.939 720.643 359.805C731.136 358.464 741.63 357.124 751.89 355.177C755.038 354.775 757.604 355.718 759.355 357.401C760.056 359.218 758.425 360.697 755.511 361.705C744.61 363.415 733.708 365.126 723.215 366.467C720.067 366.869 716.859 365.69 716.157 363.873C715.69 362.662 716.505 361.923 717.321 361.183ZM1041.29 89.4314C1042.1 88.6918 1042.51 88.3219 1044.61 88.0538C1047.12 87.4158 1050.73 88.2247 1052.08 90.2773C1059.26 101.751 1065.39 113.359 1069.43 125.235C1070.13 127.052 1068.09 128.901 1064.94 129.303C1061.79 129.706 1058.58 128.527 1057.88 126.71C1053.44 115.204 1047.95 103.832 1040.36 92.7276C1040.3 91.1465 1040.47 90.1711 1041.29 89.4314ZM738.39 382.956C739.206 382.217 740.663 381.713 741.712 381.579C774.65 377.052 806.653 370.104 836.437 360.261C839.351 359.253 842.967 360.062 844.076 361.509C845.827 363.192 844.43 365.277 841.923 365.915C811.089 375.892 778.038 382.974 744.05 387.635C740.902 388.037 737.694 386.858 736.993 385.041C737.401 384.671 737.575 383.696 738.39 382.956ZM779.755 350.346C780.162 349.976 780.978 349.236 782.027 349.102C811.29 342.186 837.518 333.116 861.762 321.757C864.034 320.513 868.058 320.952 870.216 322.265C872.375 323.578 871.619 325.899 869.347 327.142C844.054 338.635 816.368 348.21 786.698 355.496C784.192 356.134 780.576 355.325 779.467 353.878C778.357 352.431 778.939 351.086 779.755 350.346ZM1086.01 89.7544C1086.82 89.0147 1087.87 88.8807 1089.33 88.3767C1092.48 87.9745 1095.45 88.5477 1096.8 90.6002C1114.61 121.051 1121.93 152.842 1119.98 184.865C1119.63 186.816 1117.36 188.059 1113.97 187.856C1110.59 187.653 1108.43 186.34 1108.78 184.389C1110.97 152.972 1102.83 121.92 1085.89 92.3108C1084.61 91.8393 1084.79 90.8639 1086.01 89.7544ZM776.015 401.979C776.831 401.239 777.88 401.105 779.338 400.601C828.771 391.743 874.644 377.939 914.215 359.22C916.487 357.976 920.511 358.415 922.669 359.728C924.828 361.041 924.072 363.362 921.8 364.605C880.772 383.828 833.442 398.137 782.959 407.129C779.811 407.531 776.837 406.958 775.494 404.905C775.026 403.694 775.2 402.719 776.015 401.979ZM968.897 232.765C970.121 231.655 972.627 231.017 975.601 231.591C978.575 232.164 980.326 233.846 979.337 235.562C967.87 255.773 950.048 275.208 928.143 292.623C926.511 294.102 922.722 294.268 920.155 293.325C917.589 292.382 917.295 290.196 918.927 288.716C940.658 272.277 957.665 253.582 968.723 233.74C968.49 233.135 968.897 232.765 968.897 232.765ZM1066.36 150.093C1067.18 149.353 1068.63 148.849 1070.73 148.581C1073.88 148.179 1076.68 149.727 1077.38 151.544C1079.79 164.899 1079.86 177.917 1078.47 191.439C1078.12 193.39 1075.85 194.634 1072.47 194.43C1069.09 194.227 1066.93 192.914 1067.28 190.963C1068.9 178.047 1068.82 165.029 1066.01 152.043C1065.14 151.202 1065.54 150.832 1066.36 150.093ZM1134.24 99.1613C1135.05 98.4216 1136.51 97.9177 1137.56 97.7836C1140.71 97.3814 1143.91 98.5602 1144.62 100.377C1155.19 123.491 1160.93 146.906 1161.83 170.621C1161.89 172.202 1159.21 173.816 1156.46 173.848C1153.72 173.881 1150.92 172.332 1150.86 170.751C1150.2 147.641 1144.46 124.226 1133.71 102.088C1133.25 100.876 1133.42 99.9009 1134.24 99.1613ZM868.086 349.545C868.494 349.175 868.901 348.805 869.951 348.671C878.052 345.412 886.561 341.783 894.021 338.288C896.293 337.044 899.675 337.248 901.834 338.56C903.992 339.873 903.644 341.824 901.372 343.068C893.504 346.933 884.995 350.562 876.894 353.821C873.98 354.829 870.598 354.625 868.847 352.943C867.33 351.866 866.863 350.654 868.086 349.545ZM1013.5 229.926C1014.72 228.816 1017.23 228.178 1019.56 228.516C1022.53 229.089 1024.29 230.772 1023.3 232.487C1014.68 250.109 1002.69 267.528 986.847 283.533C985.216 285.012 981.66 285.785 979.093 284.841C976.527 283.898 975.184 281.846 976.815 280.367C992.251 264.732 1004.07 248.288 1012.27 231.035C1013.09 230.296 1013.09 230.296 1013.5 229.926ZM944.134 308.372C949.261 304.54 953.98 301.077 958.058 297.379C959.689 295.9 963.478 295.733 966.045 296.676C968.611 297.619 968.905 299.806 967.274 301.285C963.196 304.984 958.069 308.816 952.942 312.649C951.311 314.128 947.521 314.294 944.955 313.351C943.204 311.669 942.502 309.852 944.134 308.372ZM845.991 412.102C846.399 411.732 847.215 410.993 848.264 410.858C871.23 404.747 892.679 397.558 913.253 389.528C916.167 388.52 919.549 388.723 921.3 390.406C923.051 392.088 922.703 394.039 919.789 395.047C898.807 403.447 876.309 410.77 853.342 416.882C850.836 417.52 846.813 417.081 846.111 415.264C845.002 413.817 845.176 412.842 845.991 412.102ZM1182.35 116.843C1183.17 116.103 1184.63 115.6 1185.68 115.465C1188.82 115.063 1192.03 116.242 1192.73 118.059C1195.6 126.907 1198.06 136.125 1199.47 145.477C1200.17 147.294 1197.49 148.907 1194.34 149.309C1191.19 149.712 1188.39 148.163 1187.69 146.346C1185.87 137.364 1184.06 128.382 1181.19 119.534C1181.77 118.188 1181.95 117.213 1182.35 116.843ZM1054.2 235.528C1055.42 234.419 1057.93 233.781 1060.26 234.118C1063.24 234.691 1064.99 236.374 1064 238.089C1053.29 261.698 1036.23 284.531 1012.99 305.612C1005.65 312.269 997.26 319.06 988.637 325.245C987.006 326.725 983.216 326.891 980.65 325.948C978.083 325.005 977.79 322.818 979.421 321.339C988.044 315.154 996.025 308.732 1002.96 302.445C1025.38 282.104 1042.27 260.247 1052.57 237.007C1053.79 235.898 1053.79 235.898 1054.2 235.528ZM1091.12 247.015C1092.34 245.906 1094.85 245.268 1097.18 245.605C1100.15 246.179 1101.91 247.861 1100.92 249.576C1097.6 256.673 1093.23 263.903 1088.63 270.527C1087.64 272.243 1084.09 273.015 1081.11 272.441C1078.14 271.868 1076.8 269.816 1077.79 268.101C1082.39 261.476 1086.34 254.616 1089.66 247.519C1090.71 247.385 1091.12 247.015 1091.12 247.015ZM1065.62 286.495C1067.25 285.016 1070.4 284.614 1072.97 285.557C1075.53 286.5 1077.28 288.182 1075.24 290.032C1062.96 305.264 1047.69 319.924 1030.27 333.27C1028.64 334.749 1024.85 334.916 1022.29 333.973C1019.72 333.03 1019.43 330.843 1021.06 329.364C1037.84 315.782 1052.69 301.492 1065.62 286.495ZM1124.14 266.944C1125.36 265.835 1127.87 265.197 1130.84 265.77C1133.82 266.343 1135.16 268.396 1134.17 270.111C1121.48 291.432 1104.13 312.078 1082.92 331.309L1080.48 333.528C1078.84 335.008 1075.7 335.41 1072.49 334.231C1069.92 333.288 1069.22 331.471 1071.26 329.622L1073.3 327.773C1094.09 308.911 1111.04 288.635 1123.32 267.684C1123.73 267.314 1123.73 267.314 1124.14 266.944ZM1148.01 295.985C1149.64 294.505 1152.79 294.103 1154.72 294.811C1157.69 295.384 1159.03 297.436 1158.05 299.151C1151.81 307.255 1145.58 315.359 1138.07 322.992C1136.44 324.471 1132.88 325.243 1130.32 324.3C1127.75 323.357 1126.41 321.305 1128.04 319.825C1135.55 312.193 1141.38 304.459 1147.61 296.355L1148.01 295.985Z" fill="#F8F8F8"/>
</g>
</g>
<rect width="209.919" height="47.9815" transform="matrix(-0.866044 0.499967 -0.866044 -0.499967 773.264 134.075)" fill="#ECECEC"/>
<rect width="47.9816" height="25.99" rx="4" transform="matrix(0.866044 0.499967 -0.866044 0.499967 550.509 23)" fill="#F8F8F8"/>
<rect width="33.9869" height="5.99769" rx="2.99885" transform="matrix(0.866044 0.499967 -0.866044 0.499967 598.989 50.9873)" fill="#F8F8F8"/>
<rect width="47.9816" height="5.99769" rx="2.99885" transform="matrix(0.866044 0.499967 -0.866044 0.499967 590.332 55.9851)" fill="#F8F8F8"/>
<rect width="27.9892" height="5.99769" rx="2.99885" transform="matrix(0.866044 0.499967 -0.866044 0.499967 581.675 60.9829)" fill="#F8F8F8"/>
<g filter="url(#filter9_d_1408_112)">
<rect width="208.385" height="133.27" rx="10" transform="matrix(0.866044 -0.499967 0.866044 0.499967 192.709 -17.9868)" fill="#ECECEC"/>
</g>
<rect width="70.7022" height="94.8898" rx="5" transform="matrix(0.866044 -0.499967 0.866044 0.499967 226.548 -18.917)" fill="#494949"/>
<g filter="url(#filter10_d_1408_112)">
<rect width="208.385" height="133.27" rx="10" transform="matrix(0.866044 0.499967 -0.866044 0.499967 188.166 80.9316)" fill="#866DBA"/>
</g>
<rect width="70.7022" height="94.8898" rx="5" transform="matrix(0.866044 0.499967 -0.866044 0.499967 189.777 100.466)" fill="#494949"/>
<defs>
<filter id="filter0_d_1408_112" x="146.488" y="-274.53" width="619.594" height="361.074" filterUnits="userSpaceOnUse" color-interpolation-filters="sRGB">
<feFlood flood-opacity="0" result="BackgroundImageFix"/>
<feColorMatrix in="SourceAlpha" type="matrix" values="0 0 0 0 0 0 0 0 0 0 0 0 0 0 0 0 0 0 127 0" result="hardAlpha"/>
<feOffset dy="4"/>
<feGaussianBlur stdDeviation="2"/>
<feColorMatrix type="matrix" values="0 0 0 0 0 0 0 0 0 0 0 0 0 0 0 0 0 0 0.25 0"/>
<feBlend mode="normal" in2="BackgroundImageFix" result="effect1_dropShadow_1408_112"/>
<feBlend mode="normal" in="SourceGraphic" in2="effect1_dropShadow_1408_112" result="shape"/>
</filter>
<filter id="filter1_d_1408_112" x="25.807" y="68.521" width="390.783" height="228.981" filterUnits="userSpaceOnUse" color-interpolation-filters="sRGB">
<feFlood flood-opacity="0" result="BackgroundImageFix"/>
<feColorMatrix in="SourceAlpha" type="matrix" values="0 0 0 0 0 0 0 0 0 0 0 0 0 0 0 0 0 0 127 0" result="hardAlpha"/>
<feOffset dy="4"/>
<feGaussianBlur stdDeviation="2"/>
<feColorMatrix type="matrix" values="0 0 0 0 0 0 0 0 0 0 0 0 0 0 0 0 0 0 0.25 0"/>
<feBlend mode="normal" in2="BackgroundImageFix" result="effect1_dropShadow_1408_112"/>
<feBlend mode="normal" in="SourceGraphic" in2="effect1_dropShadow_1408_112" result="shape"/>
</filter>
<filter id="filter2_d_1408_112" x="254.618" y="200.614" width="390.783" height="228.981" filterUnits="userSpaceOnUse" color-interpolation-filters="sRGB">
<feFlood flood-opacity="0" result="BackgroundImageFix"/>
<feColorMatrix in="SourceAlpha" type="matrix" values="0 0 0 0 0 0 0 0 0 0 0 0 0 0 0 0 0 0 127 0" result="hardAlpha"/>
<feOffset dy="4"/>
<feGaussianBlur stdDeviation="2"/>
<feColorMatrix type="matrix" values="0 0 0 0 0 0 0 0 0 0 0 0 0 0 0 0 0 0 0.25 0"/>
<feBlend mode="normal" in2="BackgroundImageFix" result="effect1_dropShadow_1408_112"/>
<feBlend mode="normal" in="SourceGraphic" in2="effect1_dropShadow_1408_112" result="shape"/>
</filter>
<filter id="filter3_d_1408_112" x="302.633" y="224.917" width="293.742" height="172.959" filterUnits="userSpaceOnUse" color-interpolation-filters="sRGB">
<feFlood flood-opacity="0" result="BackgroundImageFix"/>
<feColorMatrix in="SourceAlpha" type="matrix" values="0 0 0 0 0 0 0 0 0 0 0 0 0 0 0 0 0 0 127 0" result="hardAlpha"/>
<feOffset/>
<feGaussianBlur stdDeviation="2"/>
<feColorMatrix type="matrix" values="0 0 0 0 0 0 0 0 0 0 0 0 0 0 0 0 0 0 0.2 0"/>
<feBlend mode="normal" in2="BackgroundImageFix" result="effect1_dropShadow_1408_112"/>
<feBlend mode="normal" in="SourceGraphic" in2="effect1_dropShadow_1408_112" result="shape"/>
</filter>
<filter id="filter4_d_1408_112" x="646.904" y="210.729" width="293.742" height="172.959" filterUnits="userSpaceOnUse" color-interpolation-filters="sRGB">
<feFlood flood-opacity="0" result="BackgroundImageFix"/>
<feColorMatrix in="SourceAlpha" type="matrix" values="0 0 0 0 0 0 0 0 0 0 0 0 0 0 0 0 0 0 127 0" result="hardAlpha"/>
<feOffset dy="4"/>
<feGaussianBlur stdDeviation="2"/>
<feColorMatrix type="matrix" values="0 0 0 0 0 0 0 0 0 0 0 0 0 0 0 0 0 0 0.25 0"/>
<feBlend mode="normal" in2="BackgroundImageFix" result="effect1_dropShadow_1408_112"/>
<feBlend mode="normal" in="SourceGraphic" in2="effect1_dropShadow_1408_112" result="shape"/>
</filter>
<filter id="filter5_d_1408_112" x="-140.927" y="-32.4087" width="293.742" height="172.959" filterUnits="userSpaceOnUse" color-interpolation-filters="sRGB">
<feFlood flood-opacity="0" result="BackgroundImageFix"/>
<feColorMatrix in="SourceAlpha" type="matrix" values="0 0 0 0 0 0 0 0 0 0 0 0 0 0 0 0 0 0 127 0" result="hardAlpha"/>
<feOffset dy="4"/>
<feGaussianBlur stdDeviation="2"/>
<feColorMatrix type="matrix" values="0 0 0 0 0 0 0 0 0 0 0 0 0 0 0 0 0 0 0.25 0"/>
<feBlend mode="normal" in2="BackgroundImageFix" result="effect1_dropShadow_1408_112"/>
<feBlend mode="normal" in="SourceGraphic" in2="effect1_dropShadow_1408_112" result="shape"/>
</filter>
<filter id="filter6_d_1408_112" x="590.065" y="-114.507" width="293.742" height="172.959" filterUnits="userSpaceOnUse" color-interpolation-filters="sRGB">
<feFlood flood-opacity="0" result="BackgroundImageFix"/>
<feColorMatrix in="SourceAlpha" type="matrix" values="0 0 0 0 0 0 0 0 0 0 0 0 0 0 0 0 0 0 127 0" result="hardAlpha"/>
<feOffset dy="4"/>
<feGaussianBlur stdDeviation="2"/>
<feColorMatrix type="matrix" values="0 0 0 0 0 0 0 0 0 0 0 0 0 0 0 0 0 0 0.25 0"/>
<feBlend mode="normal" in2="BackgroundImageFix" result="effect1_dropShadow_1408_112"/>
<feBlend mode="normal" in="SourceGraphic" in2="effect1_dropShadow_1408_112" result="shape"/>
</filter>
<filter id="filter7_d_1408_112" x="-67.3434" y="278.504" width="420.442" height="246.103" filterUnits="userSpaceOnUse" color-interpolation-filters="sRGB">
<feFlood flood-opacity="0" result="BackgroundImageFix"/>
<feColorMatrix in="SourceAlpha" type="matrix" values="0 0 0 0 0 0 0 0 0 0 0 0 0 0 0 0 0 0 127 0" result="hardAlpha"/>
<feOffset dy="4"/>
<feGaussianBlur stdDeviation="2"/>
<feColorMatrix type="matrix" values="0 0 0 0 0 0 0 0 0 0 0 0 0 0 0 0 0 0 0.25 0"/>
<feBlend mode="normal" in2="BackgroundImageFix" result="effect1_dropShadow_1408_112"/>
<feBlend mode="normal" in="SourceGraphic" in2="effect1_dropShadow_1408_112" result="shape"/>
</filter>
<filter id="filter8_d_1408_112" x="369.991" y="8.52661" width="420.442" height="246.103" filterUnits="userSpaceOnUse" color-interpolation-filters="sRGB">
<feFlood flood-opacity="0" result="BackgroundImageFix"/>
<feColorMatrix in="SourceAlpha" type="matrix" values="0 0 0 0 0 0 0 0 0 0 0 0 0 0 0 0 0 0 127 0" result="hardAlpha"/>
<feOffset dy="4"/>
<feGaussianBlur stdDeviation="2"/>
<feColorMatrix type="matrix" values="0 0 0 0 0 0 0 0 0 0 0 0 0 0 0 0 0 0 0.25 0"/>
<feBlend mode="normal" in2="BackgroundImageFix" result="effect1_dropShadow_1408_112"/>
<feBlend mode="normal" in="SourceGraphic" in2="effect1_dropShadow_1408_112" result="shape"/>
</filter>
<filter id="filter9_d_1408_112" x="188.783" y="-119.244" width="303.742" height="190.959" filterUnits="userSpaceOnUse" color-interpolation-filters="sRGB">
<feFlood flood-opacity="0" result="BackgroundImageFix"/>
<feColorMatrix in="SourceAlpha" type="matrix" values="0 0 0 0 0 0 0 0 0 0 0 0 0 0 0 0 0 0 127 0" result="hardAlpha"/>
<feMorphology radius="1" operator="erode" in="SourceAlpha" result="effect1_dropShadow_1408_112"/>
<feOffset dy="17"/>
<feGaussianBlur stdDeviation="5"/>
<feColorMatrix type="matrix" values="0 0 0 0 0 0 0 0 0 0 0 0 0 0 0 0 0 0 0.13 0"/>
<feBlend mode="normal" in2="BackgroundImageFix" result="effect1_dropShadow_1408_112"/>
<feBlend mode="normal" in="SourceGraphic" in2="effect1_dropShadow_1408_112" result="shape"/>
</filter>
<filter id="filter10_d_1408_112" x="68.8217" y="83.8604" width="303.742" height="190.959" filterUnits="userSpaceOnUse" color-interpolation-filters="sRGB">
<feFlood flood-opacity="0" result="BackgroundImageFix"/>
<feColorMatrix in="SourceAlpha" type="matrix" values="0 0 0 0 0 0 0 0 0 0 0 0 0 0 0 0 0 0 127 0" result="hardAlpha"/>
<feMorphology radius="1" operator="erode" in="SourceAlpha" result="effect1_dropShadow_1408_112"/>
<feOffset dy="17"/>
<feGaussianBlur stdDeviation="5"/>
<feColorMatrix type="matrix" values="0 0 0 0 0 0 0 0 0 0 0 0 0 0 0 0 0 0 0.13 0"/>
<feBlend mode="normal" in2="BackgroundImageFix" result="effect1_dropShadow_1408_112"/>
<feBlend mode="normal" in="SourceGraphic" in2="effect1_dropShadow_1408_112" result="shape"/>
</filter>
</defs>
</svg>
