<svg width="597" height="86" viewBox="0 0 597 86" fill="none" xmlns="http://www.w3.org/2000/svg">
<rect width="223.336" height="85.4875" rx="38.8111" fill="#866DBA"/>
<path fill-rule="evenodd" clip-rule="evenodd" d="M171.107 85.4875C173.843 78.5372 174.569 70.9806 173.413 63.5431C171.378 50.4638 163.487 39.0542 151.629 32.526L151.618 32.5198L151.606 32.5138C150.931 32.1591 150.199 32.0593 149.497 32.2628C148.82 32.4593 148.303 32.8991 147.941 33.3842L147.886 33.4583L147.842 33.5395C147.477 34.2115 147.369 34.9471 147.579 35.6557C147.782 36.3365 148.234 36.8477 148.723 37.2003L148.78 37.2411L148.841 37.2756C159.207 43.1665 166.099 53.0322 167.895 64.5814C168.914 71.1344 168.112 77.7968 165.75 83.9852C165.538 84.464 165.497 84.9893 165.603 85.4875H171.107ZM159.735 85.4875C162.874 79.4767 164.168 72.4763 162.977 65.3192C160.174 47.3191 142.912 34.9047 124.666 37.6929C106.414 40.4819 93.7219 57.4813 96.5226 75.4878C97.0748 79.038 98.1882 82.4024 99.7779 85.4875H106.225C104.124 82.2714 102.685 78.5951 102.069 74.6333C99.7227 59.5503 110.292 45.3297 125.672 42.9796C141.054 40.629 155.459 51.0373 157.806 66.1231C158.896 73.1324 157.197 79.9555 153.522 85.4875H159.735ZM147.327 85.4875C151.751 80.548 154.04 73.7657 153.05 66.6751L153.049 66.6651L153.047 66.6551C151.076 53.9826 139.198 45.4468 126.368 47.4074C113.528 49.3695 104.828 61.2492 106.77 73.7337L107.056 75.572C107.185 76.3994 107.711 76.9943 108.286 77.3344C108.854 77.6705 109.55 77.8135 110.225 77.7104C111.872 77.4588 112.579 75.7963 112.387 74.5622L112.129 72.9078C110.641 63.3397 117.413 54.2162 127.188 52.7226C136.965 51.2285 146.199 57.9101 147.688 67.4811C148.831 74.8315 145.1 81.9195 138.877 85.4875H147.327ZM112.43 85.4875H120.698C118.592 84.2609 116.74 82.5844 115.28 80.5053L115.23 80.4329L115.169 80.368C114.401 79.5408 112.889 78.9713 111.527 79.922L111.461 79.9679L111.402 80.0215C110.565 80.7749 109.957 82.2929 110.943 83.6624L110.951 83.6731C111.416 84.3056 111.91 84.9109 112.43 85.4875ZM94.4949 85.4875C93.2333 82.4875 92.2973 79.4484 91.7926 76.2036C89.5532 61.8058 95.6604 47.5984 107.88 39.3623L107.956 39.3116L108.023 39.2508C108.86 38.4974 109.467 36.9794 108.482 35.6099L108.435 35.5442L108.379 35.4849C107.612 34.6589 106.103 34.0897 104.743 35.0346C90.8492 44.5278 83.8977 60.7272 86.4333 77.0296C86.8826 79.9178 87.6361 82.7611 88.6836 85.4875H94.4949ZM176.109 85.4875C178.591 78.275 179.334 70.4895 178.143 62.8273C176.612 52.9887 172.048 43.9784 164.971 36.8103L164.957 36.7964L164.944 36.7821C164.506 36.3108 164.224 35.656 164.21 34.9743C164.197 34.2706 164.477 33.5113 165.173 32.9922C165.644 32.5933 166.273 32.343 166.92 32.3293C167.601 32.3149 168.352 32.5696 168.88 33.234C176.747 41.1007 181.622 51.1428 183.344 62.2137C184.562 70.0469 183.956 77.9977 181.693 85.4875H176.109ZM192.873 84.5876C190.962 85.0064 188.999 85.2844 186.994 85.4103C189.134 77.6647 189.683 69.3848 188.419 61.257C187.299 54.0549 184.927 47.2413 181.369 41.1715L181.328 41.1003L181.295 41.0244C181.068 40.4911 180.947 39.8573 181.075 39.2071C181.208 38.5297 181.594 37.9312 182.206 37.504L182.321 37.4235L182.451 37.3697C183.53 36.9225 185.031 36.9404 185.98 38.2589L186.013 38.3053L186.042 38.3546C190.025 45.0693 192.555 52.5664 193.778 60.4311C195.034 68.506 194.696 76.7086 192.873 84.5876ZM171.326 0H176.627C178.488 1.21658 180.341 2.44765 182.078 3.69943C183.308 4.58579 183.582 6.32484 182.673 7.54401C182.038 8.39695 181.206 8.52263 180.802 8.58364L180.767 8.58889C180.039 8.70017 179.298 8.47624 178.824 8.1346C176.661 6.57568 174.559 5.06126 172.311 3.75839L172.255 3.72617L172.203 3.6886C171.627 3.27357 171.255 2.70295 171.107 2.04952C170.966 1.42191 171.048 0.796059 171.229 0.243165L171.294 0.0421531L171.326 0ZM165.542 0H167.578C167.387 0.073826 167.199 0.123119 167.022 0.150189L167.009 0.15207C166.915 0.166676 166.686 0.201817 166.435 0.199078C166.247 0.197025 165.899 0.175235 165.542 0ZM153.165 0C160.848 2.4524 168.105 6.05753 174.594 10.8731C175.816 11.7614 176.087 13.4951 175.181 14.7114L175.055 14.8793L174.884 14.9992L174.827 15.0393C174.528 15.2495 173.958 15.6519 173.275 15.7562C172.546 15.8675 171.805 15.6436 171.331 15.302C164.128 10.1101 156.001 6.17829 147.405 3.98474L147.37 3.97589L147.336 3.96513C146.699 3.76456 146.099 3.36811 145.716 2.76342C145.317 2.13278 145.214 1.36318 145.462 0.604752C145.53 0.396189 145.62 0.192616 145.731 0H153.165ZM201.594 79.5571L201.438 79.5431C199.859 79.4014 198.948 78.0093 199.073 76.6324C199.515 71.0067 199.377 65.2987 198.537 59.8991L198.308 58.4284C198.116 57.1944 198.823 55.5319 200.47 55.2802C201.145 55.1772 201.841 55.3201 202.409 55.6563C202.984 55.9964 203.51 56.5913 203.639 57.4187L203.867 58.8893C204.792 64.8337 204.967 70.8938 204.364 76.8874C204.419 77.547 204.217 78.1762 203.764 78.6619C203.303 79.1559 202.687 79.3901 202.122 79.4763L201.594 79.5571ZM57.2474 52.1315L57.2578 52.0996C57.4665 51.462 57.8743 50.8711 58.4824 50.4972C59.1124 50.1099 59.8758 50.0096 60.6301 50.2472C61.2668 50.4478 61.867 50.8442 62.2499 51.4489C62.6425 52.0688 62.7488 52.823 62.5166 53.5689C60.1496 62.4087 59.6927 71.5101 61.1224 80.7021C61.3524 82.1806 61.5419 83.3899 61.9317 84.7423L61.9543 84.8209L61.9669 84.9017C61.9968 85.0943 62.0057 85.291 61.9939 85.4875H56.565C56.4665 84.9391 56.3441 84.3845 56.2149 83.8004L56.2108 83.7819L56.2107 83.7817C56.0523 83.0657 55.8838 82.304 55.7632 81.5281C54.2218 71.6181 54.637 61.7737 57.2386 52.1639L57.2474 52.1315ZM51.6309 85.4875C51.3753 84.4378 51.2171 83.427 51.0331 82.2439C50.5259 78.9832 50.2028 75.694 50.0638 72.3761L50.0608 72.3033L50.0496 72.2314C49.8181 70.743 48.5325 69.977 47.3503 69.8709L47.1942 69.8569L47.0392 69.8806C45.5634 70.1061 44.7658 71.3546 44.6522 72.5525L44.6438 72.6405L44.6475 72.7288C44.7906 76.1443 45.1233 79.5302 45.6739 83.0698C45.7945 83.8457 45.963 84.6075 46.1214 85.3235L46.1215 85.3238L46.1256 85.3421C46.1363 85.3908 46.147 85.4393 46.1577 85.4875H51.6309ZM41.0172 85.4875L40.8141 84.1818C38.6998 70.588 39.6459 57.2839 43.8316 44.2238C44.0402 43.5833 44.0575 42.8621 43.7487 42.2003C43.432 41.5217 42.8437 41.06 42.1429 40.8392C41.5011 40.637 40.7831 40.6222 40.1238 40.9213C39.4468 41.2286 38.9722 41.8045 38.742 42.5078C34.2684 56.1787 33.1943 70.4739 35.4263 84.824L35.508 85.349C36.5968 85.4407 37.6985 85.4875 38.8111 85.4875H41.0172ZM24.1509 71.3257C24.0846 70.5651 24.3926 69.9001 24.81 69.4348C25.2514 68.9427 25.8734 68.5982 26.5481 68.4951L26.703 68.4714L26.8591 68.4854C27.4519 68.5386 28.0902 68.7489 28.5935 69.1941C29.1136 69.654 29.4357 70.3261 29.3879 71.109C29.4431 73.9214 29.5007 76.6235 29.8823 79.0771L29.9072 79.2371L29.8919 79.3982C29.7783 80.596 28.9806 81.8445 27.5049 82.0701C25.8997 82.3153 24.4038 81.1787 24.4755 79.5344C24.241 76.8359 23.9994 74.0291 24.1509 71.3257ZM26.6716 67.8942L26.5155 67.8802C25.218 67.7638 23.8267 66.6499 23.9619 65.0186C24.3484 57.5243 25.6789 49.8985 27.6594 42.75L27.6674 42.7214L27.6766 42.6931C28.183 41.1458 29.6145 40.6819 30.7758 40.7861L30.9153 40.7986L31.0489 40.8407C31.76 41.0647 32.308 41.5183 32.6398 42.1227C32.9585 42.7032 33.0362 43.3435 32.9814 43.9209L32.9715 44.0256L32.9448 44.1273C31.1636 50.9107 29.9946 57.9671 29.6199 65.2695L29.6159 65.3479L29.6024 65.4252C29.4271 66.4317 28.6093 67.5981 27.2002 67.8134L26.6716 67.8942ZM16.6565 68.4836L16.5305 68.4782C15.0972 68.4171 13.585 67.3595 13.7299 65.6387C13.9799 61.0569 14.4188 56.4278 15.2372 51.7308C15.483 50.32 16.9327 49.5588 18.1945 49.672C19.0464 49.7485 19.6796 50.2496 20.0536 50.7694C20.4086 51.2627 20.6659 51.9614 20.5481 52.6754C19.8967 57.1116 19.2621 61.4504 19.2024 65.8718L19.2017 65.9243L19.1967 65.9765C19.0695 67.3182 18.1271 68.2589 16.9679 68.436L16.6565 68.4836ZM47.8283 63.7203L47.6722 63.7063C46.0886 63.5642 45.1773 62.1645 45.3083 60.7838L45.3094 60.772L45.3108 60.7603C45.8833 55.7098 46.8659 50.7691 48.4537 45.9169C48.96 44.3696 50.3916 43.9057 51.5529 44.0099L51.6924 44.0225L51.826 44.0646C52.5371 44.2886 53.0851 44.7422 53.4169 45.3465C53.7356 45.9271 53.8133 46.5673 53.7585 47.1448L53.746 47.2765L53.7071 47.403C52.335 51.8623 51.3812 56.6431 50.7667 61.2021L50.7509 61.3192L50.7141 61.4316C50.3501 62.544 49.5332 63.4597 48.3569 63.6395L47.8283 63.7203ZM85.5739 44.4036C84.3532 43.5238 84.0741 41.8038 84.9585 40.5861C93.4087 28.1188 106.792 19.7223 121.894 17.4145C123.22 17.2119 124.82 17.9929 125.091 19.7367C125.204 20.4583 125.091 21.2191 124.621 21.8492C124.154 22.4764 123.46 22.8038 122.742 22.9135C109.268 24.9725 97.2045 32.5017 89.4514 43.7732L89.3185 43.9665L89.1261 44.1008L89.0691 44.1409C88.7709 44.3511 88.2 44.7535 87.5171 44.8578C86.7889 44.9691 86.0479 44.7452 85.5739 44.4036ZM114.31 35.452L114.295 35.4583C113.041 35.9783 111.413 35.5815 110.785 34.1083C110.242 32.8354 110.681 31.2258 112.148 30.6123C115.638 29.1155 119.393 27.9595 123.251 27.3699C129.984 26.3411 136.759 26.856 143.161 28.7829L143.169 28.7853L143.177 28.7878C143.878 29.0086 144.466 29.4703 144.783 30.1489C145.071 30.766 145.075 31.4347 144.905 32.0415C144.815 32.6657 144.533 33.1776 144.124 33.546C143.709 33.9199 143.231 34.0858 142.852 34.1437L142.829 34.1473C142.629 34.1787 142.106 34.2605 141.541 33.9598C135.937 32.3012 129.978 31.7824 124.071 32.685C120.612 33.2136 117.421 34.0677 114.326 35.4452L114.31 35.452ZM76.2219 18.7906L76.2434 18.7713C77.1388 17.9648 78.7459 17.6854 79.9494 18.5529L80.0534 18.6278L80.1406 18.7217C80.9678 19.6118 81.2539 21.2237 80.358 22.426L80.3118 22.4881L80.2585 22.5442C77.9823 24.9396 75.7455 27.5055 73.727 30.2145L73.6019 30.3824L73.4302 30.5023L73.3731 30.5424C73.0749 30.7526 72.504 31.155 71.8212 31.2594C71.0929 31.3706 70.3519 31.1467 69.8779 30.8051C68.6482 29.9187 68.374 28.1797 69.2824 26.9605C71.356 24.1776 73.6452 21.3283 76.2014 18.8109L76.2219 18.7906ZM56.5945 32.9826L56.4255 32.8607C55.9364 32.5082 55.4838 31.997 55.2815 31.3162C55.0709 30.6076 55.1787 29.872 55.5439 29.1999L55.5493 29.1899L55.555 29.18C60.8937 19.7564 67.9815 11.6014 76.6177 4.74477L76.6489 4.72002L76.6816 4.69723C77.2339 4.31161 77.9146 4.0836 78.6329 4.1719C79.3696 4.26246 79.9947 4.6684 80.4264 5.26832C80.8203 5.81568 81.0577 6.49899 80.9639 7.22524C80.8699 7.9532 80.4635 8.56094 79.8809 8.98127C71.9082 15.349 65.42 22.9504 60.2081 31.647C60.096 32.0554 59.8923 32.4278 59.5817 32.7262C59.2085 33.0847 58.7664 33.2542 58.3687 33.315C57.9365 33.3811 57.5844 33.3163 57.2996 33.2266C57.1906 33.1922 57.0841 33.1515 57.0137 33.1245L57.0134 33.1245L56.9932 33.1167C56.9127 33.0861 56.8545 33.0645 56.7932 33.0452L56.5945 32.9826ZM46.6968 29.9233C46.0682 29.5974 45.6615 29.0289 45.458 28.4794C45.2436 27.9004 45.1853 27.1535 45.5115 26.4639L45.5286 26.4279L45.5477 26.3931C51.0082 16.4762 58.18 7.44985 66.745 0H75.261C64.9893 7.67801 56.3823 17.7859 50.3171 28.9467L50.273 29.0279L50.2178 29.1019C49.9514 29.4594 49.5511 29.6906 49.3139 29.8107C49.0351 29.952 48.6749 30.0913 48.312 30.1468C48.2926 30.1497 48.2708 30.1534 48.2468 30.1574C47.9532 30.2064 47.3224 30.3116 46.6968 29.9233ZM52.0205 0H59.0288C58.2265 0.800851 57.4421 1.62053 56.6773 2.46039C56.539 2.74654 56.3211 3.03674 55.9651 3.24395C55.6274 3.4405 55.2454 3.49416 55.1047 3.51391L55.0732 3.51845C54.2485 3.64446 53.5078 3.33654 52.9145 2.90891C52.2084 2.40002 51.9132 1.63801 51.8935 0.934445C51.8846 0.617254 51.9297 0.301257 52.0205 0ZM38.1855 0.00494108C38.3936 0.00165114 38.6022 0 38.8111 0H45.1881C41.1024 4.75389 37.4344 9.84526 34.1953 15.2124C34.1115 15.6614 33.8538 16.033 33.5293 16.2873C33.1335 16.5974 32.6594 16.7299 32.2709 16.7892C31.8387 16.8553 31.4865 16.7905 31.2018 16.7008C31.0927 16.6664 30.986 16.6256 30.9156 16.5987L30.8954 16.591C30.8149 16.5603 30.7567 16.5387 30.6954 16.5194L30.4967 16.4568L30.3277 16.335C29.8386 15.9824 29.386 15.4712 29.1837 14.7904C28.9731 14.0818 29.0809 13.3462 29.4461 12.6742L29.4571 12.6539L29.4688 12.634C32.0847 8.20518 35.0001 3.99409 38.1855 0.00494108ZM24.352 2.78283C26.6847 1.84582 29.1293 1.12878 31.6603 0.657375C30.864 1.76366 30.0903 2.88198 29.3405 4.01107L29.3211 4.04028L29.3002 4.06839C28.863 4.65509 28.2485 5.17093 27.423 5.29707C26.6947 5.40835 25.9537 5.18448 25.4797 4.8428C24.7882 4.34441 24.3989 3.57641 24.352 2.78283ZM36.6722 20.9724L36.6768 20.9642C39.2422 16.4022 42.0383 11.9713 45.2819 7.84223C46.1839 6.64915 47.9078 6.39365 49.1195 7.26701C50.3492 8.15335 50.6233 9.89243 49.7149 11.1116C46.7346 15.1115 43.9844 19.2433 41.665 23.6663L41.5573 23.8716L41.385 24.0268C40.8902 24.4725 40.2884 24.9741 39.4926 25.0957L39.4584 25.1011C39.299 25.1263 38.97 25.1783 38.6102 25.1184C38.2316 25.0553 37.9175 24.8936 37.6434 24.7074C36.3475 24.0248 35.9379 22.3236 36.6677 20.9806L36.6722 20.9724ZM131.905 83.0546C124.867 84.1301 118.16 79.3211 117.075 72.3472C115.99 65.3706 120.928 58.7778 127.969 57.7019C135.008 56.6263 141.715 61.4354 142.8 68.4093C143.885 75.3859 138.946 81.9787 131.905 83.0546ZM128.789 63.0171C124.619 63.6542 121.804 67.4681 122.434 71.5213C123.065 75.5773 126.914 78.3769 131.086 77.7394C135.255 77.1023 138.071 73.2884 137.44 69.2352C136.81 65.1792 132.961 62.3796 128.789 63.0171Z" fill="#413A4E"/>
<path d="M519.369 35.0175C518.2 28.436 512.823 23.3558 505.211 23.3558C496.186 23.3558 489.761 30.5309 489.761 41.7213C489.761 52.9116 496.186 60.0867 505.211 60.0867C512.823 60.0867 518.2 54.9891 519.369 48.425H516.087C515.092 53.3306 510.815 57.0142 505.211 57.0142C498.438 57.0142 492.921 51.6547 492.921 41.7213C492.921 31.8228 498.438 26.4284 505.211 26.4284C510.815 26.4284 515.092 30.1294 516.087 35.0175H519.369ZM533.881 60.2089C538.35 60.2089 541.074 57.7299 542.191 55.3557H542.383V59.5979H545.49V41.3896C545.49 34.197 540.079 32.4163 535.976 32.4163C531.874 32.4163 527.649 34.0399 525.833 38.4218L528.784 39.4867C529.761 37.1823 532.188 35.2096 536.063 35.2096C540.131 35.2096 542.383 37.4441 542.383 41.1102V41.7387C542.383 43.7638 539.869 43.7987 535.365 44.3574C529.307 45.108 525.065 46.8014 525.065 52.1086C525.065 57.276 529.01 60.2089 533.881 60.2089ZM534.3 57.3633C530.791 57.3633 528.172 55.4954 528.172 52.2482C528.172 49.0011 530.826 47.6394 535.365 47.0808C537.565 46.8189 541.475 46.3301 542.383 45.4397V49.3153C542.383 53.7147 539.258 57.3633 534.3 57.3633ZM553.757 59.5979H556.864V42.2799C556.864 38.2996 559.919 35.419 564.109 35.419C564.93 35.419 565.698 35.5587 565.977 35.5936V32.4338C565.558 32.4163 564.842 32.3814 564.336 32.3814C560.967 32.3814 558.086 34.197 557.004 36.9029H556.777V32.7829H553.757V59.5979ZM580.118 60.1565C584.988 60.1565 587.258 57.0665 588.358 54.6225H588.724V59.5979H591.762V23.8446H588.637V37.898H588.358C587.293 35.4889 585.076 32.4163 580.17 32.4163C573.554 32.4163 569.085 38.0028 569.085 46.2603C569.085 54.5876 573.536 60.1565 580.118 60.1565ZM580.484 57.3109C575.142 57.3109 572.209 52.4577 572.209 46.2079C572.209 40.0279 575.107 35.2445 580.484 35.2445C585.722 35.2445 588.689 39.7835 588.689 46.2079C588.689 52.6847 585.687 57.3109 580.484 57.3109Z" fill="#F8F8F8"/>
<path d="M252.388 61.1118H259.976V49.5786H266.355C274.608 49.5786 279.41 44.6979 279.41 37.5938C279.41 30.5245 274.696 25.5396 266.547 25.5396H252.388V61.1118ZM259.976 43.5515V31.6883H265.093C269.474 31.6883 271.594 34.0505 271.594 37.5938C271.594 41.1198 269.474 43.5515 265.128 43.5515H259.976Z" fill="#F8F8F8"/>
<path d="M291.151 61.6155C295.129 61.6155 297.705 59.896 299.019 57.4122H299.229V61.1118H306.309V43.1173C306.309 36.7601 300.876 34.0852 294.883 34.0852C288.435 34.0852 284.194 37.1422 283.16 42.0056L290.064 42.5614C290.572 40.7898 292.167 39.4871 294.848 39.4871C297.389 39.4871 298.844 40.755 298.844 42.9436V43.0478C298.844 44.7673 297.004 44.9931 292.325 45.4447C286.998 45.9311 282.214 47.7027 282.214 53.6604C282.214 58.9407 286.016 61.6155 291.151 61.6155ZM293.289 56.509C290.993 56.509 289.346 55.4494 289.346 53.4172C289.346 51.3329 291.081 50.3081 293.709 49.9434C295.339 49.7176 298.003 49.3354 298.896 48.7449V51.5761C298.896 54.3725 296.566 56.509 293.289 56.509Z" fill="#F8F8F8"/>
<path d="M317.41 61.1118H325.296L329.922 44.3331H330.255L334.881 61.1118H342.784L350.092 34.4326H342.557L338.456 52.2535H338.228L333.812 34.4326H326.4L322.054 52.3577H321.809L317.638 34.4326H310.085L317.41 61.1118Z" fill="#F8F8F8"/>
<path d="M354.074 71.1165H361.539V56.839H361.767C362.801 59.0622 365.061 61.546 369.407 61.546C375.541 61.546 380.325 56.7348 380.325 47.807C380.325 38.636 375.33 34.0852 369.425 34.0852C364.921 34.0852 362.766 36.7427 361.767 38.9139H361.434V34.4326H354.074V71.1165ZM361.381 47.7722C361.381 43.013 363.414 39.9734 367.042 39.9734C370.739 39.9734 372.702 43.152 372.702 47.7722C372.702 52.4272 370.704 55.6579 367.042 55.6579C363.449 55.6579 361.381 52.5314 361.381 47.7722Z" fill="#F8F8F8"/>
<path d="M385.301 61.1118H392.766V46.0179C392.766 42.7351 395.185 40.4771 398.479 40.4771C399.513 40.4771 400.933 40.6508 401.633 40.8766V34.311C400.968 34.1547 400.039 34.0505 399.285 34.0505C396.271 34.0505 393.8 35.7874 392.819 39.0876H392.539V34.4326H385.301V61.1118Z" fill="#F8F8F8"/>
<path d="M405.101 61.1118H412.893V34.4326H405.101V61.1118Z" fill="#F8F8F8"/>
<path d="M426.403 45.6879C426.421 42.2488 428.489 40.234 431.503 40.234C434.499 40.234 436.304 42.1793 436.287 45.4447V61.1118H443.752V44.1247C443.752 37.9065 440.072 34.0852 434.464 34.0852C430.469 34.0852 427.577 36.0306 426.368 39.1397H426.053V34.4326H418.938V61.1118H426.403V45.6879Z" fill="#F8F8F8"/>
<path d="M463.952 34.4326H458.888V28.0407H451.423V34.4326H447.743V39.9908H451.423V53.8862C451.388 59.1143 454.98 61.7024 460.395 61.4766C462.323 61.4071 463.689 61.025 464.443 60.7818L463.269 55.2757C462.901 55.3452 462.112 55.5189 461.411 55.5189C459.922 55.5189 458.888 54.9631 458.888 52.9135V39.9908H463.952V34.4326Z" fill="#F8F8F8"/>
<ellipse cx="408.998" cy="26.3583" rx="3.8958" ry="3.86146" fill="#67C18C"/>
<ellipse cx="470.031" cy="26.3583" rx="3.8958" ry="3.86146" fill="#67C18C"/>
</svg>
